<?xml version="1.0" encoding="UTF-8"?>
<svg width="341px" height="107px" viewBox="0 0 341 107" version="1.1" xmlns="http://www.w3.org/2000/svg" xmlns:xlink="http://www.w3.org/1999/xlink">
    <!-- Generator: Sketch 63.1 (92452) - https://sketch.com -->
    <title>bg-confetti</title>
    <desc>Created with Sketch.</desc>
    <defs>
        <path d="M9.71963616,2.375 C9.06290399,3.125 8.14347894,4 7.61809321,6 C6.96136103,8 7.2240539,9.25 7.35540034,10.125 C7.48674677,10.875 7.48674677,11.25 7.2240539,12.25 C6.96136103,13.25 6.56732173,13.5 6.04193599,14.125 C5.38520382,14.75 4.46577878,15.75 3.94039304,17.75 C3.28366086,19.75 3.54635373,21 3.67770017,21.875 C3.8090466,22.625 3.8090466,23 3.54635373,24 C3.28366086,25 2.88962156,25.25 2.36423582,25.875 C1.70750365,26.625 0.788078608,27.5 0.131346435,29.5 L4.46577878,30.875 C4.72847165,29.875 5.12251095,29.625 5.64789669,29 C6.30462886,28.25 7.2240539,27.375 7.88078608,25.375 C8.53751825,23.375 8.27482538,22.125 8.14347894,21.25 C8.01213251,20.5 8.01213251,20.125 8.27482538,19.125 C8.53751825,18.125 8.93155755,17.875 9.45694329,17.25 C10.1136755,16.5 11.0331005,15.625 11.5584862,13.625 C12.2152184,11.625 11.9525255,10.375 11.8211791,9.5 C11.6898327,8.75 11.6898327,8.375 11.9525255,7.375 C12.2152184,6.375 12.6092577,6.125 13.1346435,5.5 C13.7913756,4.75 14.7108007,3.875 15.3675328,1.875 L11.0331005,0.5 C10.5077148,1.5 10.2450219,1.875 9.71963616,2.375 L9.71963616,2.375 Z" id="path-1"></path>
        <path d="M0.131346435,4.375 C1.18211791,4.75 1.44481078,5 1.97019652,5.625 C2.62692869,6.25 3.54635373,7.25 5.64789669,7.875 C7.61809321,8.625 8.93155755,8.5 9.98232903,8.375 C10.7704076,8.25 11.1644469,8.25 12.2152184,8.625 C13.2659899,9 13.5286828,9.25 14.0540685,9.875 C14.7108007,10.5 15.6302257,11.5 17.7317687,12.125 C19.7019652,12.875 21.0154295,12.75 22.066201,12.625 C22.8542796,12.5 23.2483189,12.5 24.2990904,12.875 C25.3498619,13.25 25.6125547,13.5 26.1379405,14.125 C26.7946727,14.75 27.7140977,15.75 29.8156407,16.375 L31.3917979,12.25 C30.3410264,11.875 30.0783335,11.625 29.5529478,11 C28.8962156,10.375 27.9767906,9.375 25.8752476,8.75 C23.9050511,8 22.5915867,8.125 21.5408153,8.25 C20.7527367,8.375 20.3586974,8.375 19.3079259,8 C18.2571544,7.625 17.9944615,7.375 17.4690758,6.75 C16.8123436,6.125 15.8929186,5.125 13.7913756,4.5 C11.8211791,3.75 10.3763683,3.875 9.45694329,4 C8.66886468,4.125 8.27482538,4.125 7.2240539,3.75 C6.17328243,3.375 5.91058956,3.125 5.38520382,2.5 C4.72847165,1.875 3.8090466,0.875 1.70750365,0.25 L0.131346435,4.375 L0.131346435,4.375 Z" id="path-3"></path>
        <path d="M19.045233,3.5 C18.7825401,4.25 18.6511937,4.625 17.8631151,5.375 C17.0750365,6.125 16.6809972,6.25 16.024265,6.5 C15.10484,6.75 13.9227221,7.25 12.3465649,8.625 C10.9017541,10.125 10.3763683,11.25 10.1136755,12.25 C9.85098259,13 9.71963616,13.375 8.93155755,14.125 C8.14347894,14.875 7.74943964,15 7.09270747,15.25 C6.17328243,15.5 4.99116451,16 3.4150073,17.375 C1.97019652,18.875 1.44481078,20 1.18211791,21 C0.919425042,21.75 0.788078608,22.125 1.49323608e-13,22.875 L3.28366086,26.125 C4.72847165,24.625 5.25385738,23.5 5.51655025,22.5 C5.77924312,21.75 5.91058956,21.375 6.69866816,20.625 C7.48674677,19.875 7.88078608,19.75 8.53751825,19.5 C9.45694329,19.25 10.6390612,18.75 12.2152184,17.375 C13.6600292,15.875 14.1854149,14.75 14.4481078,13.75 C14.7108007,13 14.8421471,12.625 15.6302257,11.875 C16.4183043,11.125 16.8123436,11 17.4690758,10.75 C18.3885008,10.5 19.5706188,10 21.146776,8.625 C22.5915867,7.125 23.1169725,6 23.3796654,5 C23.6423582,4.25 23.7737047,3.875 24.5617833,3.125 L21.2781224,0 C19.8333116,1.375 19.4392723,2.625 19.045233,3.5 Z" id="path-5"></path>
        <path d="M14.3167614,4.125 C14.1854149,4.875 14.1854149,5.25 13.6600292,6.125 C13.1346435,7 12.7406042,7.25 12.083872,7.625 C11.2957934,8.125 10.1136755,8.75 8.93155755,10.5 C7.74943964,12.25 7.61809321,13.5 7.48674677,14.375 C7.35540034,15.125 7.35540034,15.5 6.8300146,16.375 C6.30462886,17.25 5.91058956,17.5 5.25385738,17.875 C4.46577878,18.375 3.28366086,19 2.10154295,20.75 C0.919425042,22.5 0.788078608,23.75 0.656732173,24.625 C0.525385738,25.375 0.525385738,25.75 0,26.625 L3.94039304,28.875 C5.12251095,27.125 5.25385738,25.875 5.38520382,25 C5.51655025,24.25 5.51655025,23.875 6.04193599,23 C6.56732173,22.125 6.96136103,21.875 7.61809321,21.5 C8.40617181,21 9.58828972,20.375 10.7704076,18.625 C11.9525255,16.875 12.083872,15.625 12.2152184,14.75 C12.3465649,14 12.3465649,13.625 12.8719506,12.75 C13.3973363,11.875 13.7913756,11.625 14.4481078,11.25 C15.2361864,10.75 16.4183043,10.125 17.6004222,8.375 C18.7825401,6.625 18.9138866,5.375 19.045233,4.5 C19.1765794,3.75 19.1765794,3.375 19.7019652,2.5 L15.7615722,0.25 C14.5794542,2 14.4481078,3.25 14.3167614,4.125 L14.3167614,4.125 Z" id="path-7"></path>
        <path d="M0.788078608,2.5 C1.44481078,4.5 2.36423582,5.375 3.020968,6.125 C3.54635373,6.625 3.8090466,7 4.20308591,8 C4.46577878,9 4.46577878,9.375 4.33443234,10.125 C4.20308591,11 3.94039304,12.375 4.59712521,14.25 C5.25385738,16.25 6.17328243,17.125 6.69866816,17.875 C7.2240539,18.375 7.48674677,18.75 7.88078608,19.75 C8.14347894,20.75 8.14347894,21.125 8.01213251,21.875 C7.88078608,22.75 7.61809321,24.125 8.27482538,26 C8.93155755,28 9.85098259,28.875 10.5077148,29.625 C11.0331005,30.125 11.2957934,30.5 11.6898327,31.5 L16.024265,30.125 C15.3675328,28.125 14.4481078,27.25 13.7913756,26.5 C13.2659899,26 13.003297,25.625 12.6092577,24.625 C12.3465649,23.625 12.3465649,23.25 12.4779113,22.5 C12.6092577,21.625 12.8719506,20.25 12.2152184,18.375 C11.5584862,16.375 10.6390612,15.5 9.98232903,14.75 C9.45694329,14.25 9.19425042,13.875 8.80021112,12.875 C8.53751825,11.875 8.53751825,11.5 8.66886468,10.75 C8.80021112,9.875 9.06290399,8.5 8.40617181,6.625 C7.74943964,4.75 6.8300146,3.75 6.17328243,3 C5.64789669,2.5 5.38520382,2.125 4.99116451,1.125 L0.788078608,2.5 L0.788078608,2.5 Z" id="path-9"></path>
    </defs>
    <g id="Estadísticas" stroke="none" stroke-width="1" fill="none" fill-rule="evenodd" opacity="0.900000036">
        <g transform="translate(-1025.000000, -136.000000)" id="mi-perfil">
            <g transform="translate(0.000000, -1.000000)">
                <g id="Datos-personales" transform="translate(1025.163077, 133.000000)">
                    <g id="bg-confetti" opacity="0.4" transform="translate(-17.052308, 1.000000)">
                        <g>
                            <polygon id="Shape" fill="#FF80D5" fill-rule="nonzero" points="270.179616 16.875 276.484245 20.125 283.708299 6.5 277.40367 3.25"></polygon>
                            <polygon id="Shape" fill="#FFA300" fill-rule="nonzero" points="216.196231 20 230.512993 26.5 233.402614 20.25 219.085853 13.75"></polygon>
                            <polygon id="Shape" fill="#E53838" fill-rule="nonzero" points="342.288809 102.75 356.60557 109.25 359.495191 103 345.17843 96.5"></polygon>
                            <g id="Group" transform="translate(335.118607, 48.337500)">
                                <g id="Clipped">
                                    <mask id="mask-2" fill="white">
                                        <use xlink:href="#path-1"></use>
                                    </mask>
                                    <g id="gU_2_"></g>
                                    <polygon id="Shape" fill="#8EE000" fill-rule="nonzero" mask="url(#mask-2)" points="-4.85981808 -4.25 20.0960045 -4.25 20.0960045 35.5 -4.85981808 35.5"></polygon>
                                </g>
                            </g>
                            <g id="Group" transform="translate(311.094030, 14.925000)">
                                <g id="Clipped">
                                    <mask id="mask-4" fill="white">
                                        <use xlink:href="#path-3"></use>
                                    </mask>
                                    <g id="gW_2_"></g>
                                    <polygon id="Shape" fill="#3CCADD" fill-rule="nonzero" mask="url(#mask-4)" points="-8.40617181 2.25 12.7406042 -15.25 39.6666232 14.375 18.5198473 31.875"></polygon>
                                </g>
                            </g>
                            <polygon id="Shape" fill="#1CAFF6" fill-rule="nonzero" points="293.559281 24.5 300.126603 38.625 306.431232 35.75 299.86391 21.625"></polygon>
                            <g id="Group" transform="translate(0.309978, 67.110000)">
                                <g id="Clipped">
                                    <mask id="mask-6" fill="white">
                                        <use xlink:href="#path-5"></use>
                                    </mask>
                                    <g id="gY_2_"></g>
                                    <path d="M-4.72847165,-4.75 L29.5529478,-4.75 L29.5529478,30.75 L-4.72847165,30.75 C-4.72847165,30.625 -4.72847165,-4.75 -4.72847165,-4.75 Z" id="Shape" fill="#1CB0F7" fill-rule="nonzero" mask="url(#mask-6)"></path>
                                </g>
                            </g>
                            <polygon id="Shape" fill="#E53838" fill-rule="nonzero" points="1.70750365 49.875 4.59712521 56.125 18.9138866 49.625 16.024265 43.375"></polygon>
                            <polygon id="Shape" fill="#FF80D5" fill-rule="nonzero" points="69.8763032 27.625 72.7659248 33.875 87.0826861 27.375 84.1930646 21.125"></polygon>
                            <g id="Group" transform="translate(121.464674, 18.656863) rotate(79.000000) translate(-121.464674, -18.656863) translate(111.613691, 3.656863)">
                                <g id="Clipped">
                                    <mask id="mask-8" fill="white">
                                        <use xlink:href="#path-7"></use>
                                    </mask>
                                    <g id="ha_2_"></g>
                                    <polygon id="Shape" fill="#8EE000" fill-rule="nonzero" mask="url(#mask-8)" points="22.7229332 -6.125 30.9977586 27.625 -3.15231443 35.125 -11.4271398 1.375"></polygon>
                                </g>
                            </g>
                            <g id="Group" transform="translate(10.245022, 0.187500)">
                                <g id="Clipped">
                                    <mask id="mask-10" fill="white">
                                        <use xlink:href="#path-9"></use>
                                    </mask>
                                    <g id="hc_2_"></g>
                                    <polygon id="Shape" fill="#9D41D8" fill-rule="nonzero" mask="url(#mask-10)" points="-4.20308591 -3.5 20.7527367 -3.5 20.7527367 36.25 -4.20308591 36.25"></polygon>
                                </g>
                            </g>
                            <polygon id="Shape" fill="#FAA918" fill-rule="nonzero" points="36.2516159 30.625 42.5562448 33.5 49.1235665 19.375 42.8189377 16.5"></polygon>
                            <polygon id="Shape" fill="#E53838" fill-rule="nonzero" points="171.801136 19.375 177.054994 24 187.562709 12.625 182.308851 8"></polygon>
                        </g>
                    </g>
                </g>
            </g>
        </g>
    </g>
</svg>