<?xml version="1.0" encoding="utf-8"?>
<!-- Generator: Adobe Illustrator 22.0.1, SVG Export Plug-In . SVG Version: 6.00 Build 0)  -->
<svg version="1.1" id="Capa_1" xmlns="http://www.w3.org/2000/svg" xmlns:xlink="http://www.w3.org/1999/xlink" x="0px" y="0px"
	 width="308px" height="152.2px" viewBox="0 0 308 152.2" style="enable-background:new 0 0 308 152.2;" xml:space="preserve">
<style type="text/css">
	.st0{fill:#E25117;}
	.st1{fill:url(#SVGID_1_);}
	.st2{fill:#E24F16;}
	.st3{opacity:0.5;}
	.st4{fill:#FFFFFF;}
</style>
<g>
	<g>
		<polygon class="st0" points="303.9,147.2 9.5,148.3 14.9,13.4 299.3,17.1 		"/>
		<linearGradient id="SVGID_1_" gradientUnits="userSpaceOnUse" x1="151.6577" y1="38.9618" x2="151.6577" y2="189.3464">
			<stop  offset="0" style="stop-color:#EC8600"/>
			<stop  offset="1" style="stop-color:#E56013"/>
		</linearGradient>
		<polygon class="st1" points="299.4,141.7 3.9,142.9 9.2,4.3 294.8,8 		"/>
	</g>
	<g>
		<circle class="st2" cx="229.8" cy="76.3" r="50.2"/>
		<g class="st3">
			<path class="st4" d="M260.8,78.8h-61c-2.3,0-4.2-1.9-4.2-4.2v-17c0-2.3,1.9-4.2,4.2-4.2h61c2.3,0,4.2,1.9,4.2,4.2v17
				C265,76.9,263.1,78.8,260.8,78.8z"/>
			<path class="st4" d="M224.9,89.8h-25.2c-2.3,0-4.2-1.9-4.2-4.2v0c0-2.3,1.9-4.2,4.2-4.2h25.2c2.3,0,4.2,1.9,4.2,4.2v0
				C229.2,87.9,227.3,89.8,224.9,89.8z"/>
			<path class="st4" d="M260.9,89.8h-25.2c-2.3,0-4.2-1.9-4.2-4.2v0c0-2.3,1.9-4.2,4.2-4.2h25.2c2.3,0,4.2,1.9,4.2,4.2v0
				C265.2,87.9,263.3,89.8,260.9,89.8z"/>
			<path class="st4" d="M224.9,100.3h-25.2c-2.3,0-4.2-1.9-4.2-4.2v0c0-2.3,1.9-4.2,4.2-4.2h25.2c2.3,0,4.2,1.9,4.2,4.2v0
				C229.2,98.4,227.3,100.3,224.9,100.3z"/>
			<path class="st4" d="M260.9,100.3h-25.2c-2.3,0-4.2-1.9-4.2-4.2v0c0-2.3,1.9-4.2,4.2-4.2h25.2c2.3,0,4.2,1.9,4.2,4.2v0
				C265.2,98.4,263.3,100.3,260.9,100.3z"/>
		</g>
	</g>
	<g>
		<path class="st4" d="M29,38c0,0,2.5,0,7.2,0c0,0,0.1,13.4,0.2,27.8c0,0-2.4,0-7.3,0C29.2,65.8,29.2,53.6,29,38z"/>
		<path class="st4" d="M38.2,39.1c0,0,2.9-0.2,6.8-0.3c0,0,1.7,5.1,4.8,13.6c-0.2-3.2-0.5-8.2-1-15.2c0,0,2.5,0.2,6.5,0.1
			c0,0,0.2,10.7,0.7,28.5c0,0-2,0.3-6.5,0.7c0,0-2-5.7-5-13.7c0.1,2.8,0.2,6.7,0.6,12.4c0,0-2.6-0.1-6.8-0.1
			C38.4,65.1,38.5,55.3,38.2,39.1z"/>
		<path class="st4" d="M57.8,39.1c0,0,2.5,0,7.2,0c0,0,0.1,11.7,0.2,26.2c0,0-2.4,0-7.3,0C58,65.2,58,54.6,57.8,39.1z"/>
		<path class="st4" d="M66.6,51.9c0-10.1,2.8-14.8,9.5-14.8c6.6,0,8.6,5.4,8.4,11.7c-4.6,0-7.7-0.2-7.7-0.2c0-4.4-0.2-5.6-1-5.6
			c-1,0-1.3,1.8-1.2,8.8c0,7.4,0.3,8.5,1.2,8.5c0.8,0,1.1-1,1-6.3c4.1-0.2,7.8-0.1,7.8-0.1c0.1,10-3.9,12.5-9,12.5
			C69.2,66.5,66.6,62.4,66.6,51.9z"/>
		<path class="st4" d="M85.8,38c0,0,2.5,0,7.2,0c0,0,0.1,13.4,0.2,27.8c0,0-2.4,0-7.3,0C86,65.8,86,53.6,85.8,38z"/>
		<path class="st4" d="M98.2,37.9c5.8-0.2,10.2-0.2,10.2-0.2s1.8,13.4,4.5,28.7c0,0-3-0.1-7.6,0c0,0-0.1-1.3-0.3-4.5
			c-0.7,0-2,0-3.4,0l-0.2,3.4c0,0-2.2-0.1-7.2-0.1C94.2,65.2,96,54.6,98.2,37.9z M102.1,56.1c1.3,0,2.4,0,2.4,0
			c-0.6-6.8-1.2-12.3-1.2-12.3C103,45.9,102.6,50.3,102.1,56.1z"/>
		<path class="st4" d="M121.6,56.6c0,0-0.3,0-0.6,0l0.2,8.6c0,0-3.1,0-7.4,0c0,0,0.2-10.6,0.2-27.4c2.4-0.4,4.5-0.7,6.4-0.7
			c7.4,0,10.7,3.5,10.7,10.1c0,3.5-1.3,5.8-3.4,7.3c0.3,1,1.6,5,4,11.7c0,0-2.7,0.2-7.5,0.5C124.2,66.7,123.2,62.7,121.6,56.6z
			 M123.5,47.7c0-2.8-0.8-4.6-2.6-4.4c0,4.2,0.1,8.5,0.1,8.5C122.6,51.7,123.5,50.6,123.5,47.7z"/>
	</g>
	<g>
		<path class="st4" d="M29.3,72.1c0,0,8.1,0.1,23.6-0.2c0,0-0.2,3.9-0.2,10.6c0,0-2.4-0.1-6.4-0.1c0,6.8,0.1,16.3,0.2,31.6
			c0,0-3.5-0.1-10.8,0.1c0,0,0.1-12.3-0.1-31.7l-6.4,0.1C29.4,82.5,29.5,79.9,29.3,72.1z"/>
		<path class="st4" d="M66.1,100c0,0-0.4,0.1-0.8,0.1l0.2,12.9c0,0-4.7-0.1-11.1,0.1c0,0,0.3-15.9,0.2-41.2c3.6-0.7,6.8-1,9.6-1
			c11,0,16.1,5.2,16.1,15.1c0,5.2-1.9,8.7-5,10.9c0.5,1.6,2.3,7.4,6,17.5c0,0-4.1,0.3-11.3,0.7C70,115.1,68.7,109.2,66.1,100z
			 M69,86.7c0-4.2-1.2-6.9-3.9-6.7c0.1,6.3,0.2,12.7,0.2,12.7C67.6,92.7,69,91,69,86.7z"/>
		<path class="st4" d="M82.2,72.1c0,0,3.7,0,10.9-0.1c0,0,0.1,20.1,0.3,41.8c0,0-3.6-0.1-10.9,0C82.5,113.8,82.5,95.5,82.2,72.1z"/>
		<path class="st4" d="M94.9,73.6c6.1,0,10.9-0.2,10.9-0.2c0.7,16,1.6,27,2,32.2c1.9-22.8,2.3-33.8,2.3-33.8
			c7.3,0.1,11.3-0.1,11.3-0.1c-4.8,34.5-5.7,43-5.7,43s-7.6,0.1-15.9-0.2C97,89.1,94.9,73.6,94.9,73.6z"/>
		<path class="st4" d="M122.8,73.7c0,0,3.7,0,10.9-0.1c0,0,0.1,17.6,0.3,39.2c0,0-3.6-0.1-10.9,0C123,112.9,123.1,97,122.8,73.7z"/>
		<path class="st4" d="M141.4,71.9c8.7-0.4,15.4-0.2,15.4-0.2s2.8,20.2,6.7,43c0,0-4.4-0.1-11.5,0.1c0,0-0.1-2-0.5-6.7
			c-1.1-0.1-2.9-0.1-5-0.1l-0.4,5c0,0-3.3-0.2-10.7-0.1C135.4,112.9,138.1,97,141.4,71.9z M147.2,99.2c1.9,0.1,3.7,0,3.7,0
			c-1-10.1-1.9-18.4-1.9-18.4C148.6,84,147.9,90.6,147.2,99.2z"/>
	</g>
</g>
</svg>
