<?xml version="1.0" encoding="utf-8"?>
<!-- Generator: Adobe Illustrator 23.0.2, SVG Export Plug-In . SVG Version: 6.00 Build 0)  -->
<svg version="1.1" id="Capa_1" xmlns="http://www.w3.org/2000/svg" xmlns:xlink="http://www.w3.org/1999/xlink" x="0px" y="0px"
	 viewBox="0 0 310 152.5" style="enable-background:new 0 0 310 152.5;" xml:space="preserve">
<style type="text/css">
	.st0{fill:#39B54A;}
	.st1{fill:#009444;}
	.st2{fill:#FFFFFF;}
	.st3{opacity:0.2;fill:#FFFFFF;}
</style>
<g>
	<g>
		<polygon class="st0" points="304.93,147.86 10.53,149.02 15.85,14.16 300.27,17.77 		"/>
		<polygon class="st1" points="300.45,142.42 4.87,143.6 10.2,5.02 295.77,8.73 		"/>
	</g>
	<g>
		<path class="st2" d="M103.36,69.52c0-1.68-0.01-3.6-0.03-5.74c-0.02-1.84-0.04-4.03-0.06-6.56c-0.02-2.53-0.05-5.37-0.09-8.51
			c0.38,0.02,0.84,0.03,1.37,0.03c0.47,0,1.03,0,1.7,0s1.47-0.01,2.4-0.03c-0.02,0.69-0.03,1.73-0.03,3.13
			c0,1.2,0.01,2.81,0.03,4.85c0.02,2.04,0.06,4.65,0.12,7.86c0.61,0.04,1.18,0.07,1.72,0.08c0.54,0.01,1.01,0.01,1.41,0.01h1.31
			c-0.02,0.77-0.03,1.46-0.03,2.07c0,0.61,0,1.14,0,1.58v1.37c-0.3,0-0.68,0-1.14-0.02c-0.46-0.01-0.94-0.02-1.46-0.03
			c-0.52-0.01-1.05-0.02-1.61-0.03c-0.56-0.01-1.1-0.01-1.63-0.01C106.09,69.53,104.76,69.52,103.36,69.52z"/>
		<path class="st2" d="M120.41,70.22c-1.26,0-2.32-0.23-3.19-0.7s-1.58-1.16-2.13-2.07c-0.55-0.91-0.95-2.04-1.2-3.37
			s-0.38-2.89-0.38-4.65c0-1.68,0.1-3.22,0.3-4.6c0.2-1.39,0.56-2.58,1.08-3.59s1.22-1.78,2.1-2.34c0.88-0.56,2.01-0.84,3.39-0.84
			c1.4,0,2.55,0.26,3.45,0.78s1.61,1.26,2.13,2.23s0.87,2.16,1.06,3.56c0.19,1.4,0.29,2.99,0.29,4.77
			c-0.02,1.99-0.17,3.67-0.46,5.04c-0.28,1.38-0.7,2.49-1.26,3.34c-0.56,0.85-1.27,1.47-2.13,1.85S121.58,70.22,120.41,70.22z
			 M120.47,66.06c0.14,0,0.27-0.07,0.38-0.21c0.11-0.14,0.2-0.45,0.27-0.91c0.07-0.47,0.12-1.16,0.15-2.07
			c0.03-0.91,0.05-2.15,0.05-3.71c0-1.48-0.02-2.66-0.05-3.56s-0.08-1.57-0.15-2.04c-0.07-0.47-0.17-0.78-0.29-0.93
			c-0.12-0.15-0.26-0.23-0.43-0.23c-0.2,0-0.36,0.09-0.49,0.26s-0.21,0.51-0.27,1.02c-0.06,0.51-0.1,1.22-0.12,2.13
			c-0.02,0.91-0.03,2.1-0.03,3.56c0,1.48,0.02,2.66,0.06,3.54c0.04,0.88,0.1,1.56,0.17,2.02c0.07,0.47,0.17,0.77,0.29,0.91
			S120.29,66.06,120.47,66.06z"/>
		<path class="st2" d="M134.75,70.19c-1.03,0-1.97-0.17-2.81-0.5c-0.84-0.33-1.56-0.91-2.16-1.73c-0.6-0.82-1.06-1.93-1.38-3.34
			c-0.32-1.41-0.49-3.2-0.49-5.36c0-1.96,0.14-3.65,0.43-5.06c0.28-1.41,0.71-2.56,1.29-3.46c0.58-0.9,1.31-1.56,2.19-1.99
			s1.92-0.64,3.11-0.64c1.17,0,2.18,0.23,3.01,0.68c0.83,0.46,1.51,1.08,2.04,1.87c0.53,0.79,0.9,1.72,1.11,2.8
			c0.21,1.07,0.29,2.23,0.23,3.46c-0.87-0.02-1.67-0.03-2.4-0.03c-0.65,0-1.27,0-1.87,0c-0.6,0-1.03-0.01-1.29-0.03
			c0.02-1.62-0.05-2.74-0.21-3.34c-0.16-0.61-0.41-0.91-0.73-0.91c-0.2,0-0.37,0.09-0.5,0.27c-0.13,0.18-0.24,0.52-0.32,1.02
			c-0.08,0.5-0.14,1.18-0.17,2.05c-0.03,0.87-0.05,2-0.05,3.37c0,1.44,0.03,2.6,0.08,3.48c0.05,0.88,0.13,1.57,0.23,2.07
			c0.1,0.5,0.23,0.83,0.38,1s0.34,0.26,0.56,0.26c0.32,0,0.56-0.24,0.71-0.71c0.15-0.48,0.22-1.34,0.2-2.6
			c-0.12,0.02-0.24,0.03-0.36,0.03c-0.1,0.02-0.23,0.03-0.4,0.03s-0.33,0.01-0.52,0.03v-1.19c0-0.38,0-0.86,0-1.41
			c0-0.56-0.01-1.19-0.03-1.9c0.83,0.02,1.65,0.03,2.46,0.03h4.47c0.08,2.45-0.03,4.44-0.32,5.97c-0.29,1.53-0.73,2.72-1.32,3.59
			s-1.32,1.44-2.2,1.75C136.84,70.04,135.85,70.19,134.75,70.19z"/>
		<path class="st2" d="M150.4,70.31l-0.52-2.07c-0.16-0.67-0.36-1.47-0.61-2.42c-0.24-0.94-0.53-2-0.85-3.18
			c-0.02,0.02-0.06,0.03-0.12,0.03H148l0.12,6.53h-1.58c-0.51,0-1.1,0-1.79,0c-0.69,0-1.44,0.01-2.25,0.03
			c0.02-1.62,0.04-3.49,0.06-5.62c0.02-1.82,0.04-4.01,0.05-6.56c0.01-2.55,0.02-5.44,0.02-8.66c0.91-0.16,1.77-0.29,2.58-0.38
			c0.81-0.09,1.57-0.14,2.28-0.14c2.82,0,4.88,0.64,6.18,1.93c1.31,1.29,1.96,3.2,1.96,5.73c0,1.34-0.23,2.45-0.68,3.34
			c-0.46,0.89-1.08,1.62-1.87,2.19c0.12,0.41,0.43,1.34,0.91,2.81s1.2,3.49,2.13,6.06c-0.43,0.02-0.92,0.05-1.49,0.09
			c-0.49,0.04-1.08,0.09-1.79,0.14C152.13,70.22,151.32,70.27,150.4,70.31z M148,59.01c0.59-0.02,1.05-0.26,1.38-0.73
			c0.33-0.47,0.5-1.25,0.5-2.34c0-1.07-0.16-1.92-0.47-2.54c-0.31-0.62-0.82-0.9-1.5-0.84c0,0.81,0,1.6,0.02,2.36
			s0.03,1.44,0.05,2.05C147.99,57.68,148,58.36,148,59.01z"/>
		<path class="st2" d="M163.02,70.22c-1.26,0-2.32-0.23-3.19-0.7s-1.58-1.16-2.13-2.07c-0.55-0.91-0.95-2.04-1.2-3.37
			c-0.25-1.34-0.38-2.89-0.38-4.65c0-1.68,0.1-3.22,0.3-4.6c0.2-1.39,0.56-2.58,1.08-3.59s1.22-1.78,2.1-2.34
			c0.88-0.56,2.01-0.84,3.39-0.84c1.4,0,2.55,0.26,3.45,0.78s1.61,1.26,2.13,2.23s0.87,2.16,1.06,3.56c0.19,1.4,0.29,2.99,0.29,4.77
			c-0.02,1.99-0.17,3.67-0.46,5.04c-0.28,1.38-0.7,2.49-1.26,3.34c-0.56,0.85-1.27,1.47-2.13,1.85S164.19,70.22,163.02,70.22z
			 M163.08,66.06c0.14,0,0.27-0.07,0.38-0.21c0.11-0.14,0.2-0.45,0.27-0.91c0.07-0.47,0.12-1.16,0.15-2.07
			c0.03-0.91,0.05-2.15,0.05-3.71c0-1.48-0.02-2.66-0.05-3.56s-0.08-1.57-0.15-2.04c-0.07-0.47-0.17-0.78-0.29-0.93
			c-0.12-0.15-0.26-0.23-0.43-0.23c-0.2,0-0.36,0.09-0.49,0.26c-0.12,0.17-0.21,0.51-0.27,1.02c-0.06,0.51-0.1,1.22-0.12,2.13
			c-0.02,0.91-0.03,2.1-0.03,3.56c0,1.48,0.02,2.66,0.06,3.54c0.04,0.88,0.1,1.56,0.17,2.02s0.17,0.77,0.29,0.91
			C162.74,65.98,162.89,66.06,163.08,66.06z"/>
		<path class="st2" d="M176.6,69.76c0.02-2.59,0.03-5.15,0.03-7.66c0-2.51,0-4.78,0-6.81v-6.72c0.73-0.12,1.43-0.22,2.11-0.29
			c0.68-0.07,1.31-0.11,1.9-0.11c1.68,0,3.1,0.22,4.25,0.67c1.16,0.45,2.09,1.14,2.81,2.08c0.72,0.94,1.24,2.14,1.56,3.59
			c0.32,1.45,0.49,3.17,0.49,5.15c0,1.9-0.19,3.52-0.58,4.85c-0.38,1.33-0.95,2.41-1.7,3.24c-0.75,0.83-1.68,1.43-2.78,1.81
			c-1.1,0.38-2.38,0.56-3.81,0.56C179.61,70.13,178.18,70.01,176.6,69.76z M182.19,65.75c0.3,0.02,0.56-0.02,0.76-0.11
			c0.2-0.09,0.37-0.35,0.5-0.78c0.13-0.42,0.23-1.07,0.29-1.93c0.06-0.86,0.09-2.04,0.09-3.54c0-1.28-0.03-2.34-0.09-3.21
			c-0.06-0.86-0.16-1.55-0.3-2.07s-0.33-0.88-0.56-1.08c-0.23-0.2-0.52-0.28-0.87-0.24c0,1.62,0.01,3.21,0.03,4.76
			c0.02,1.55,0.04,2.93,0.06,4.15C182.12,63.13,182.15,64.48,182.19,65.75z"/>
		<path class="st2" d="M190.94,69.67v-6.14c0-1.9-0.01-4.13-0.03-6.69c-0.02-2.55-0.05-5.32-0.09-8.3h1.4c0.47,0,1.04,0,1.72,0
			s1.47-0.01,2.39-0.03c0,2.01,0.01,4.16,0.03,6.47c0.02,1.96,0.04,4.21,0.05,6.75c0.01,2.53,0.04,5.18,0.08,7.93h-1.37H190.94z"/>
		<path class="st2" d="M197.23,69.19c0.26-1.62,0.56-3.49,0.88-5.62c0.28-1.8,0.61-3.98,0.97-6.52c0.36-2.54,0.76-5.41,1.18-8.62
			c1.09-0.04,2.11-0.07,3.05-0.09c0.94-0.02,1.77-0.03,2.48-0.03h2.25c0.26,2.03,0.58,4.21,0.94,6.56c0.3,2.03,0.66,4.35,1.08,6.96
			c0.42,2.61,0.88,5.37,1.38,8.27c-0.47-0.02-0.99-0.03-1.58-0.03c-0.51,0-1.12,0-1.82,0.01s-1.51,0.03-2.4,0.05
			c-0.02-0.2-0.04-0.47-0.06-0.79c-0.02-0.28-0.04-0.64-0.08-1.06c-0.03-0.43-0.07-0.94-0.11-1.55c-0.29-0.02-0.65-0.03-1.09-0.03
			c-0.45,0-0.93,0-1.46,0l-0.18,2.55c-0.34,0-0.78-0.01-1.31-0.03c-0.45-0.02-1.01-0.03-1.69-0.03S198.19,69.19,197.23,69.19z
			 M204.1,52.93c-0.1,0.83-0.23,2.04-0.4,3.63c-0.16,1.59-0.33,3.49-0.52,5.7c0.24,0.02,0.48,0.03,0.7,0.02
			c0.22-0.01,0.41-0.02,0.58-0.02h0.58c-0.12-1.28-0.24-2.48-0.35-3.62s-0.22-2.13-0.32-2.98C204.28,54.67,204.18,53.76,204.1,52.93
			z"/>
		<path class="st2" d="M219.97,70.31l-0.52-2.07c-0.16-0.67-0.36-1.47-0.61-2.42c-0.24-0.94-0.53-2-0.85-3.18
			c-0.02,0.02-0.06,0.03-0.12,0.03h-0.3l0.12,6.53h-1.58c-0.51,0-1.1,0-1.79,0s-1.44,0.01-2.25,0.03c0.02-1.62,0.04-3.49,0.06-5.62
			c0.02-1.82,0.04-4.01,0.04-6.56c0.01-2.55,0.02-5.44,0.02-8.66c0.91-0.16,1.77-0.29,2.58-0.38c0.81-0.09,1.57-0.14,2.28-0.14
			c2.82,0,4.88,0.64,6.18,1.93s1.96,3.2,1.96,5.73c0,1.34-0.23,2.45-0.68,3.34c-0.46,0.89-1.08,1.62-1.87,2.19
			c0.12,0.41,0.43,1.34,0.91,2.81c0.49,1.47,1.2,3.49,2.13,6.06c-0.43,0.02-0.92,0.05-1.49,0.09c-0.49,0.04-1.08,0.09-1.79,0.14
			C221.69,70.22,220.88,70.27,219.97,70.31z M217.57,59.01c0.59-0.02,1.05-0.26,1.38-0.73c0.33-0.47,0.5-1.25,0.5-2.34
			c0-1.07-0.16-1.92-0.47-2.54c-0.31-0.62-0.82-0.9-1.5-0.84c0,0.81,0,1.6,0.01,2.36c0.01,0.76,0.03,1.44,0.05,2.05
			C217.55,57.68,217.57,58.36,217.57,59.01z"/>
		<path class="st2" d="M226.26,69.67v-6.14c0-1.9-0.01-4.13-0.03-6.69s-0.05-5.32-0.09-8.3h1.4c0.47,0,1.04,0,1.72,0
			c0.68,0,1.47-0.01,2.39-0.03c0,2.01,0.01,4.16,0.03,6.47c0.02,1.96,0.04,4.21,0.04,6.75c0.01,2.53,0.04,5.18,0.08,7.93h-1.37
			H226.26z"/>
		<path class="st2" d="M239.75,70.22c-1.26,0-2.32-0.23-3.19-0.7c-0.87-0.47-1.58-1.16-2.13-2.07c-0.55-0.91-0.95-2.04-1.2-3.37
			s-0.38-2.89-0.38-4.65c0-1.68,0.1-3.22,0.3-4.6c0.2-1.39,0.56-2.58,1.08-3.59s1.22-1.78,2.1-2.34c0.88-0.56,2.01-0.84,3.39-0.84
			c1.4,0,2.55,0.26,3.45,0.78s1.61,1.26,2.13,2.23c0.52,0.97,0.87,2.16,1.06,3.56c0.19,1.4,0.29,2.99,0.29,4.77
			c-0.02,1.99-0.17,3.67-0.46,5.04c-0.28,1.38-0.7,2.49-1.26,3.34c-0.56,0.85-1.27,1.47-2.13,1.85
			C241.94,70.03,240.92,70.22,239.75,70.22z M239.81,66.06c0.14,0,0.27-0.07,0.38-0.21s0.2-0.45,0.27-0.91
			c0.07-0.47,0.12-1.16,0.15-2.07c0.03-0.91,0.05-2.15,0.05-3.71c0-1.48-0.02-2.66-0.05-3.56s-0.08-1.57-0.15-2.04
			c-0.07-0.47-0.17-0.78-0.29-0.93c-0.12-0.15-0.26-0.23-0.43-0.23c-0.2,0-0.36,0.09-0.49,0.26c-0.12,0.17-0.21,0.51-0.27,1.02
			c-0.06,0.51-0.1,1.22-0.12,2.13c-0.02,0.91-0.03,2.1-0.03,3.56c0,1.48,0.02,2.66,0.06,3.54c0.04,0.88,0.1,1.56,0.17,2.02
			s0.17,0.77,0.29,0.91C239.48,65.98,239.63,66.06,239.81,66.06z"/>
	</g>
	<g>
		<path class="st2" d="M112.26,106.75c-1.52,0-2.82-0.25-3.89-0.76c-1.08-0.51-1.96-1.31-2.66-2.41c-0.7-1.1-1.2-2.53-1.52-4.29
			c-0.32-1.76-0.47-3.88-0.47-6.36c0-4.81,0.71-8.36,2.13-10.64c1.42-2.28,3.71-3.42,6.88-3.42c1.57,0,2.88,0.3,3.93,0.89
			c1.05,0.59,1.89,1.4,2.51,2.41c0.62,1.01,1.04,2.19,1.27,3.53c0.23,1.34,0.32,2.77,0.27,4.29c-1.11,0-2.12-0.01-3-0.02
			c-0.89-0.01-1.66-0.03-2.32-0.06c-0.76-0.02-1.43-0.05-2.01-0.08c0-1.06-0.01-1.93-0.04-2.6c-0.03-0.67-0.08-1.21-0.15-1.62
			c-0.08-0.4-0.18-0.68-0.3-0.83c-0.13-0.15-0.29-0.23-0.49-0.23c-0.23,0-0.42,0.13-0.57,0.38c-0.15,0.25-0.27,0.7-0.36,1.33
			c-0.09,0.63-0.15,1.49-0.19,2.56c-0.04,1.08-0.04,2.45-0.02,4.12c0,1.75,0.02,3.15,0.06,4.22c0.04,1.06,0.1,1.88,0.19,2.45
			c0.09,0.57,0.2,0.94,0.34,1.12c0.14,0.18,0.31,0.27,0.51,0.27c0.18,0,0.34-0.08,0.48-0.23c0.14-0.15,0.25-0.44,0.32-0.87
			c0.08-0.43,0.13-1.04,0.17-1.82c0.04-0.78,0.04-1.81,0.02-3.08c0.96-0.05,1.9-0.08,2.81-0.1c0.91-0.01,1.71-0.02,2.39-0.02h2.24
			c0.02,2.38-0.18,4.34-0.61,5.87s-1.03,2.74-1.8,3.63c-0.77,0.89-1.68,1.5-2.72,1.84S113.47,106.75,112.26,106.75z"/>
		<path class="st2" d="M129.96,106.83c-1.57,0-2.9-0.29-3.99-0.87c-1.09-0.58-1.98-1.44-2.66-2.58c-0.68-1.14-1.18-2.54-1.5-4.22
			c-0.32-1.67-0.47-3.61-0.47-5.81c0-2.1,0.13-4.02,0.38-5.75c0.25-1.73,0.7-3.23,1.35-4.48c0.65-1.25,1.52-2.23,2.62-2.93
			c1.1-0.7,2.51-1.04,4.24-1.04c1.75,0,3.18,0.32,4.31,0.97c1.13,0.65,2.01,1.58,2.66,2.79c0.65,1.22,1.09,2.7,1.33,4.44
			c0.24,1.75,0.36,3.74,0.36,5.96c-0.03,2.48-0.22,4.58-0.57,6.31c-0.35,1.72-0.88,3.12-1.58,4.18c-0.7,1.06-1.58,1.84-2.66,2.32
			C132.7,106.59,131.43,106.83,129.96,106.83z M130.04,101.63c0.18,0,0.33-0.09,0.47-0.27c0.14-0.18,0.25-0.56,0.34-1.14
			c0.09-0.58,0.15-1.44,0.19-2.58c0.04-1.14,0.06-2.68,0.06-4.63c0-1.85-0.02-3.33-0.06-4.44c-0.04-1.11-0.1-1.96-0.19-2.55
			c-0.09-0.58-0.21-0.97-0.36-1.16c-0.15-0.19-0.33-0.29-0.53-0.29c-0.25,0-0.46,0.11-0.61,0.32c-0.15,0.22-0.27,0.64-0.34,1.27
			c-0.08,0.63-0.13,1.52-0.15,2.66c-0.03,1.14-0.04,2.62-0.04,4.44c0,1.85,0.02,3.32,0.08,4.43c0.05,1.1,0.12,1.94,0.21,2.53
			c0.09,0.58,0.21,0.96,0.36,1.14S129.81,101.63,130.04,101.63z"/>
		<path class="st2" d="M139.34,105.65c0.15-2.15,0.28-4.56,0.38-7.22c0.1-2.28,0.2-4.94,0.3-8c0.1-3.05,0.2-6.4,0.3-10.05h2.85
			c0.89,0,1.9-0.01,3.04-0.02s2.37-0.04,3.69-0.09c0.13,1.24,0.28,2.57,0.46,3.99c0.15,1.22,0.33,2.63,0.53,4.24
			c0.2,1.61,0.43,3.3,0.68,5.07c0.28-2,0.57-4.25,0.87-6.76c0.3-2.51,0.57-5.09,0.8-7.75c0.99,0.03,2.04,0.06,3.15,0.11
			c0.94,0.05,2,0.09,3.17,0.11c1.18,0.03,2.38,0.06,3.59,0.11c0,2.15,0.05,4.61,0.15,7.37c0.08,2.38,0.18,5.23,0.32,8.55
			c0.14,3.32,0.35,7.07,0.63,11.24c-0.71,0.02-1.46,0.06-2.24,0.11c-0.66,0.05-1.41,0.09-2.26,0.11c-0.85,0.03-1.7,0.05-2.56,0.08
			c0.03-1.67,0.04-3.54,0.04-5.62c0-1.77-0.02-3.88-0.06-6.33c-0.04-2.44-0.11-5.12-0.21-8.03c-0.18,1.06-0.36,2.23-0.53,3.5
			s-0.35,2.58-0.53,3.93c-0.18,1.35-0.34,2.72-0.49,4.1c-0.15,1.38-0.28,2.73-0.38,4.05c-0.68,0-1.41-0.01-2.17-0.04
			c-0.66-0.03-1.39-0.04-2.18-0.06c-0.8-0.01-1.6-0.04-2.41-0.09c-0.1-1.06-0.24-2.29-0.42-3.68c-0.15-1.22-0.34-2.68-0.57-4.39
			c-0.23-1.71-0.52-3.68-0.87-5.91c0,2.3,0.01,4.96,0.02,7.96s0.06,6.19,0.13,9.55c-0.86-0.03-1.71-0.05-2.55-0.08
			c-0.73-0.03-1.51-0.04-2.34-0.04C140.86,105.69,140.08,105.68,139.34,105.65z"/>
		<path class="st2" d="M165.4,105.88c0.03-2.03,0.05-4.37,0.08-7.03c0.03-2.28,0.04-5.02,0.06-8.22s0.02-6.81,0.02-10.81
			c0.76-0.08,1.49-0.14,2.18-0.19c0.7-0.05,1.36-0.08,1.99-0.08c4.13,0,7.11,0.87,8.95,2.6c1.84,1.74,2.75,4.4,2.75,8
			c0,3.17-0.8,5.66-2.39,7.48c-1.6,1.82-3.85,2.76-6.76,2.81c0.02,0.86,0.04,1.73,0.06,2.6c0.01,0.87,0.04,1.8,0.1,2.79
			c-0.58-0.03-1.24-0.04-1.98-0.04c-0.63,0-1.38,0.01-2.24,0.02C167.35,105.84,166.41,105.86,165.4,105.88z M172.16,85.71
			c-0.03,0.66-0.04,1.44-0.04,2.36c0,0.79,0,1.76,0,2.92c0,1.17,0.01,2.53,0.04,4.1c0.38-0.05,0.72-0.16,1.01-0.32
			s0.53-0.42,0.72-0.78c0.19-0.35,0.33-0.82,0.42-1.41c0.09-0.58,0.13-1.32,0.13-2.2c0-1.72-0.2-2.94-0.59-3.67
			S172.9,85.66,172.16,85.71z"/>
		<path class="st2" d="M182.61,105.96c0-2.1-0.01-4.49-0.04-7.18c-0.03-2.3-0.05-5.04-0.08-8.21c-0.03-3.17-0.06-6.71-0.11-10.64
			c0.48,0.03,1.05,0.04,1.71,0.04c0.58,0,1.29,0,2.13,0c0.83,0,1.83-0.01,3-0.04c-0.03,0.86-0.04,2.17-0.04,3.91
			c0,1.5,0.01,3.51,0.04,6.06c0.02,2.54,0.08,5.82,0.15,9.82c0.76,0.05,1.48,0.08,2.15,0.09c0.67,0.01,1.26,0.02,1.77,0.02h1.63
			c-0.03,0.96-0.04,1.82-0.04,2.58s0,1.42,0,1.98v1.71c-0.38,0-0.85-0.01-1.42-0.02c-0.57-0.01-1.18-0.03-1.82-0.04
			c-0.65-0.01-1.32-0.03-2.01-0.04c-0.7-0.01-1.37-0.02-2.03-0.02C186.02,105.97,184.36,105.96,182.61,105.96z"/>
		<path class="st2" d="M195.98,105.99c-0.03-2.2-0.05-4.67-0.08-7.41c-0.03-2.36-0.06-5.13-0.1-8.32
			c-0.04-3.19-0.08-6.71-0.13-10.56c0.71,0,1.63-0.01,2.77-0.04c0.96,0,2.23-0.01,3.8-0.02c1.57-0.01,3.51-0.03,5.81-0.06v1.9
			c0,0.58,0,1.29,0,2.11c0,0.82,0.03,1.73,0.08,2.72c-0.71,0.03-1.4,0.04-2.09,0.04c-0.58,0.03-1.2,0.04-1.84,0.04
			c-0.64,0-1.22,0.01-1.73,0.04c-0.03,0.51-0.03,0.97-0.02,1.39s0.02,0.79,0.02,1.12v1.03c0.15,0,0.6,0.01,1.33,0.02
			c0.73,0.01,1.86-0.01,3.38-0.06v1.82c0,0.58,0,1.26,0,2.03c0,0.77,0.01,1.63,0.04,2.56h-1.33c-0.43,0-0.93-0.01-1.48-0.02
			s-1.15-0.02-1.79-0.02v0.91c0,0.61,0.04,1.42,0.11,2.43c0.41,0.03,0.89,0.05,1.44,0.08c0.46,0.03,1.01,0.06,1.67,0.09
			s1.39,0.07,2.2,0.09c-0.03,0.43-0.04,0.96-0.04,1.6c-0.03,0.53-0.04,1.19-0.04,1.98s0,1.71,0,2.77c-1.11-0.03-2.32-0.06-3.61-0.11
			c-1.12-0.03-2.39-0.05-3.84-0.08C199.1,106.05,197.58,106.02,195.98,105.99z"/>
		<path class="st2" d="M208.74,86.32c0.03-0.35,0.04-0.84,0.04-1.44c0-0.51-0.01-1.18-0.02-2.01c-0.01-0.84-0.03-1.87-0.06-3.12h3.8
			c1.27,0,2.82-0.01,4.67-0.04c1.85-0.02,4.01-0.06,6.5-0.11c-0.03,0.53-0.05,1.13-0.08,1.79c-0.03,0.58-0.04,1.29-0.06,2.11
			c-0.01,0.82-0.01,1.77,0.02,2.83h-1.06c-0.36,0-0.78-0.01-1.27-0.02c-0.49-0.01-1.06-0.02-1.69-0.02c0,1.06,0,2.25,0,3.57
			c0,1.32,0.01,2.79,0.02,4.43s0.03,3.44,0.06,5.41s0.05,4.18,0.08,6.61c-0.48-0.03-1.05-0.04-1.71-0.04c-0.58,0-1.3,0.01-2.15,0.02
			s-1.84,0.03-2.98,0.06c0.03-1.57,0.04-3.38,0.04-5.43c0-1.75-0.01-3.85-0.02-6.31s-0.03-5.23-0.06-8.32L208.74,86.32z"/>
		<path class="st2" d="M222.91,105.54c0.33-2.03,0.7-4.37,1.1-7.03c0.35-2.25,0.76-4.97,1.22-8.15c0.46-3.18,0.95-6.77,1.48-10.77
			c1.37-0.05,2.64-0.09,3.82-0.11s2.21-0.04,3.1-0.04h2.81c0.33,2.53,0.72,5.27,1.18,8.21c0.38,2.53,0.83,5.43,1.35,8.7
			c0.52,3.27,1.09,6.71,1.73,10.33c-0.58-0.03-1.24-0.04-1.98-0.04c-0.63,0-1.39,0.01-2.28,0.02c-0.89,0.01-1.89,0.03-3,0.06
			c-0.03-0.25-0.05-0.58-0.08-0.99c-0.03-0.35-0.06-0.8-0.09-1.33c-0.04-0.53-0.08-1.18-0.13-1.94c-0.36-0.03-0.81-0.04-1.37-0.04
			c-0.56,0-1.17,0-1.82,0l-0.23,3.19c-0.43,0-0.98-0.01-1.63-0.04c-0.56-0.02-1.26-0.04-2.11-0.04S224.1,105.54,222.91,105.54z
			 M231.5,85.22c-0.13,1.04-0.29,2.55-0.49,4.54c-0.2,1.99-0.42,4.36-0.65,7.12c0.3,0.03,0.59,0.03,0.87,0.02
			c0.28-0.01,0.52-0.02,0.72-0.02h0.72c-0.15-1.6-0.3-3.1-0.44-4.52c-0.14-1.42-0.27-2.66-0.4-3.72
			C231.71,87.39,231.6,86.25,231.5,85.22z"/>
		<path class="st2" d="M241.45,106.26c0.03-3.24,0.04-6.43,0.04-9.57c0-3.14,0-5.98,0-8.51v-8.4c0.91-0.15,1.79-0.27,2.64-0.36
			s1.64-0.13,2.38-0.13c2.1,0,3.87,0.28,5.32,0.84c1.44,0.56,2.62,1.42,3.51,2.6c0.9,1.18,1.55,2.67,1.96,4.48
			c0.4,1.81,0.61,3.96,0.61,6.44c0,2.38-0.24,4.4-0.72,6.06c-0.48,1.66-1.19,3.01-2.13,4.04c-0.94,1.04-2.1,1.79-3.48,2.26
			c-1.38,0.47-2.97,0.7-4.77,0.7C245.21,106.72,243.43,106.56,241.45,106.26z M248.44,101.25c0.38,0.03,0.7-0.02,0.95-0.13
			c0.25-0.11,0.46-0.44,0.63-0.97c0.16-0.53,0.28-1.34,0.36-2.41s0.11-2.55,0.11-4.43c0-1.6-0.04-2.93-0.11-4.01
			c-0.08-1.08-0.2-1.94-0.38-2.58s-0.41-1.09-0.7-1.35c-0.29-0.25-0.65-0.35-1.08-0.3c0,2.03,0.01,4.01,0.04,5.95
			c0.02,1.94,0.05,3.67,0.08,5.18C248.35,97.97,248.39,99.65,248.44,101.25z"/>
		<path class="st2" d="M267.28,106.83c-1.57,0-2.9-0.29-3.99-0.87c-1.09-0.58-1.98-1.44-2.66-2.58s-1.18-2.54-1.5-4.22
			c-0.32-1.67-0.47-3.61-0.47-5.81c0-2.1,0.13-4.02,0.38-5.75c0.25-1.73,0.7-3.23,1.35-4.48c0.65-1.25,1.52-2.23,2.62-2.93
			c1.1-0.7,2.51-1.04,4.24-1.04c1.75,0,3.18,0.32,4.31,0.97c1.13,0.65,2.01,1.58,2.66,2.79s1.09,2.7,1.33,4.44
			c0.24,1.75,0.36,3.74,0.36,5.96c-0.03,2.48-0.22,4.58-0.57,6.31c-0.36,1.72-0.88,3.12-1.58,4.18s-1.58,1.84-2.66,2.32
			S268.75,106.83,267.28,106.83z M267.36,101.63c0.18,0,0.33-0.09,0.47-0.27c0.14-0.18,0.25-0.56,0.34-1.14s0.15-1.44,0.19-2.58
			s0.06-2.68,0.06-4.63c0-1.85-0.02-3.33-0.06-4.44s-0.1-1.96-0.19-2.55c-0.09-0.58-0.21-0.97-0.36-1.16
			c-0.15-0.19-0.33-0.29-0.53-0.29c-0.25,0-0.46,0.11-0.61,0.32c-0.15,0.22-0.27,0.64-0.34,1.27c-0.08,0.63-0.13,1.52-0.15,2.66
			s-0.04,2.62-0.04,4.44c0,1.85,0.03,3.32,0.08,4.43s0.12,1.94,0.21,2.53c0.09,0.58,0.21,0.96,0.36,1.14
			C266.94,101.54,267.13,101.63,267.36,101.63z"/>
	</g>
</g>
<g>
	<circle class="st3" cx="58.84" cy="80.31" r="36.16"/>
	<path class="st2" d="M79.56,71.21l-1.14-1.03c-0.19-0.25-0.44-0.38-0.76-0.38s-0.57,0.12-0.76,0.38l-26.7,26.25l-9.41-9.28
		c-0.19-0.25-0.44-0.38-0.76-0.38s-0.57,0.12-0.76,0.38l-1.14,1.03c-0.19,0.25-0.29,0.53-0.29,0.84c0,0.31,0.09,0.56,0.29,0.75
		l11.31,11.16c0.25,0.25,0.52,0.38,0.81,0.38s0.56-0.12,0.81-0.38l28.51-28.13c0.19-0.19,0.29-0.44,0.29-0.75
		C79.85,71.74,79.75,71.46,79.56,71.21L79.56,71.21z M49.76,82.93c0.25,0.25,0.51,0.37,0.79,0.37c0.28,0,0.55-0.12,0.79-0.37
		l20.71-20.65c0.19-0.19,0.28-0.44,0.28-0.75c0-0.31-0.09-0.59-0.28-0.84l-1.12-1.02c-0.19-0.25-0.44-0.37-0.75-0.37
		c-0.31,0-0.56,0.12-0.75,0.37L50.51,78.46l-6.77-6.75c-0.19-0.25-0.44-0.37-0.75-0.37s-0.56,0.12-0.75,0.37l-1.12,1.02
		c-0.19,0.25-0.28,0.53-0.28,0.84c0,0.31,0.09,0.56,0.28,0.75L49.76,82.93z"/>
</g>
</svg>
