<?xml version="1.0" encoding="utf-8"?>
<!-- Generator: Adobe Illustrator 24.1.3, SVG Export Plug-In . SVG Version: 6.00 Build 0)  -->
<svg version="1.1" id="Capa_1" xmlns="http://www.w3.org/2000/svg" xmlns:xlink="http://www.w3.org/1999/xlink" x="0px" y="0px"
	 viewBox="0 0 600 300" style="enable-background:new 0 0 600 300;" xml:space="preserve">
<style type="text/css">
	.st0{fill:#53585E;}
	.st1{fill:#515960;}
	.st2{opacity:0.2;fill:#83CAC7;enable-background:new    ;}
	.st3{fill:#FBE0D1;}
	.st4{fill:#CE6029;}
	.st5{fill:#28282F;}
	.st6{fill:url(#SVGID_1_);}
	.st7{fill:#DDDFDE;}
	.st8{fill:#2A2E2E;}
	.st9{fill:#35393B;}
	.st10{fill:#278ACB;}
	.st11{fill:#1E1B1F;}
	.st12{fill:url(#SVGID_2_);}
	.st13{fill:url(#SVGID_3_);}
	.st14{fill:url(#SVGID_4_);}
	.st15{fill:url(#SVGID_5_);}
	.st16{fill:url(#SVGID_6_);}
	.st17{fill:url(#SVGID_7_);}
	.st18{fill:url(#SVGID_8_);}
	.st19{fill:url(#SVGID_9_);}
	.st20{fill:url(#SVGID_10_);}
	.st21{fill:url(#SVGID_11_);}
	.st22{fill:url(#SVGID_12_);}
	.st23{fill:#BFC0C1;}
</style>
<g>
	<g>
		<g>
			<g>
				<g>
					<g>
						<path class="st0" d="M117.5,80.2c-1.6-1.5-4.5-4.2-10.8-4.2c-5.9,0-10.7,4-12.2,9.3c0.3,0.1,0.6,0.3,0.6,0.6
							c0.1,0.3,1.3,6.2,6.6,6.8c0.4,0.1,0.7,0.4,0.7,0.8c-0.1,0.4-0.4,0.7-0.7,0.7h-0.1c-6.4-0.8-7.9-7.9-7.9-8c0-0.2,0-0.3,0.1-0.5
							c-1.9-1.2-4.2-1.9-6.6-1.9c-7,0-12.6,5.6-12.6,12.6c0,1.8,0.4,3.5,1.1,5.1c0.3-0.2,0.7-0.1,0.9,0.2c0.1,0.1,4.9,6.2,17.8,4.2
							c0.4-0.1,0.8,0.2,0.8,0.6c0.1,0.4-0.2,0.8-0.6,0.8c-1.9,0.3-3.6,0.4-5.2,0.4c-10,0-13.8-5-14-5.2s-0.2-0.4-0.1-0.7
							c-1.3-0.4-2.6-0.7-4-0.7c-7,0-12.6,5.6-12.6,12.6c0,3.1,1.1,5.9,3,8.1c0.1-0.1,0.2-0.2,0.3-0.2c1.2-0.3,29.7-7.4,35.3,7.1
							c2.4,6.2-0.1,9.6-1.8,11c-2,1.7-4.7,2.5-7.1,2.5c-1.5,0-2.9-0.3-4-0.9c-1.5-0.8-2.2-2.2-2-3.8c0.1-0.4,0.4-0.7,0.9-0.6
							c0.4,0.1,0.7,0.4,0.6,0.9c-0.2,0.9,0.3,1.7,1.2,2.3c2.2,1.2,6.7,0.9,9.4-1.4c1.7-1.5,3.3-4.3,1.4-9.4
							c-5.2-13.3-33.3-6.3-33.6-6.2c-0.4,0.1-0.8-0.1-0.9-0.5c-5.1,1.7-10.7,5.7-11.4,14.3c-0.5,6.1,2.7,11.9,8.4,13.1
							c0.7,0.4,8.1-0.2,9.2-0.4c9.7-1.4,39.5-2,39.5-2s13.3,0.4,13.3-14.1s0-38.9,0-43.8C120.4,86.1,120.4,82.9,117.5,80.2z"/>
						<path class="st1" d="M194.2,137.8c-0.7-8.6-6.2-12.6-11.4-14.3c-0.1,0.4-0.5,0.6-0.9,0.5c-0.3-0.1-28.4-7.1-33.6,6.2
							c-2,5.1-0.4,7.9,1.3,9.4c2.7,2.3,7.2,2.7,9.4,1.4c1-0.6,1.4-1.3,1.2-2.3c-0.1-0.4,0.2-0.8,0.6-0.9s0.8,0.2,0.8,0.6
							c0.3,1.6-0.5,2.9-2,3.8c-1.1,0.6-2.5,0.9-4,0.9c-2.4,0-5.1-0.8-7.1-2.5c-1.7-1.5-4.2-4.9-1.8-11c5.7-14.4,34.2-7.3,35.4-7
							c0.1,0,0.2,0.1,0.3,0.2c1.9-2.2,3-5,3-8.1c0-7-5.6-12.6-12.6-12.6c-1.4,0-2.8,0.2-4,0.7c0.1,0.2,0.1,0.5-0.1,0.7
							s-4,5.2-14,5.2c-1.6,0-3.3-0.1-5.2-0.4c-0.4-0.1-0.7-0.4-0.6-0.8s0.4-0.7,0.8-0.6c12.9,2,17.8-4.1,17.8-4.2
							c0.2-0.3,0.6-0.4,0.9-0.2c0.7-1.5,1.1-3.3,1.1-5.1c0-7-5.6-12.6-12.6-12.6c-2.4,0-4.7,0.7-6.7,1.9c0.1,0.2,0.1,0.3,0.1,0.5
							c0,0.1-1.5,7.2-7.9,8h-0.1c-0.4,0-0.7-0.3-0.7-0.7c-0.1-0.4,0.2-0.8,0.7-0.8c5.3-0.6,6.6-6.7,6.6-6.8c0.1-0.3,0.3-0.5,0.6-0.6
							c-1.4-5.4-6.3-9.4-12.2-9.4c-6.3,0-9.2,2.7-10.8,4.2c-2.9,2.8-2.9,5.9-2.9,9.6c0,4.9,0,29.3,0,43.8s13.3,14.1,13.3,14.1
							s29.9,0.8,39.5,2.1c1,0.1,8.4,0.8,9.2,0.4C191.5,149.7,194.7,143.9,194.2,137.8z"/>
						<path class="st2" d="M198.7,170.4v-50.8c0-27.4-22.6-49.7-50.5-49.7l-51.7-0.1c-27.9,0-50.5,22.2-50.6,49.6v50.8L198.7,170.4z
							"/>
						<path class="st3" d="M185,237.1c-41.6,6.1-80.2,6.1-128-0.1c-6.9,0,0.1-70.1,0.1-70.1l128,0.1
							C185,166.9,196.6,233.7,185,237.1z"/>
						<path class="st4" d="M109.2,231.1c0,0,4.6,4.4,17.7,2.4s15.8-7.5,15.8-7.5S126.9,233.4,109.2,231.1z"/>
						<path class="st5" d="M100.8,196.2c0,6.3-5.1,11.3-11.3,11.3l0,0c-6.2,0-11.3-5.1-11.3-11.3l0,0c0-6.2,5.1-11.3,11.3-11.3l0,0
							C95.7,184.9,100.8,189.9,100.8,196.2L100.8,196.2z"/>
						<path class="st5" d="M166,196.2c0,6.3-5.1,11.3-11.3,11.3l0,0c-6.3,0-11.3-5.1-11.3-11.3l0,0c0-6.2,5.1-11.3,11.3-11.3l0,0
							C161,184.9,166,189.9,166,196.2L166,196.2z"/>
						
							<linearGradient id="SVGID_1_" gradientUnits="userSpaceOnUse" x1="122.4" y1="-187.1382" x2="122.4" y2="-275.9622" gradientTransform="matrix(1 0 0 -1 0 -35.6122)">
							<stop  offset="0" style="stop-color:#EFB958"/>
							<stop  offset="1" style="stop-color:#E2822A"/>
						</linearGradient>
						<path class="st6" d="M154.7,240.4c13.4-0.5,25.9-1.3,32.8-2.1c12.7-1.4,12.2-14.1,12.2-14.1l0.7-18.9c3,2.4,6.9,3.9,11.1,3.9
							c9.7,0,17.7-7.9,17.7-17.6c0-9.7-7.9-17.7-17.6-17.7c-3.9,0-7.5,1.3-10.4,3.4v-9c0,0,0.6-12.7-12.1-14.1
							c-12.7-1.4-45.8-3.1-66.8-2.5c-21-0.6-54.1,1.1-66.8,2.4c-12.7,1.4-12.2,14-12.2,14v8.7c-2.8-2-6.3-3.2-10-3.2
							c-9.7,0-17.6,7.9-17.7,17.6c0,9.7,7.9,17.7,17.6,17.7c4,0,7.7-1.4,10.7-3.7l0.7,18.6c0,0-0.6,12.7,12.1,14.1
							c6.7,0.7,18.8,1.5,31.7,2.1l-3.6-17.7c0,0-27,1.4-27-29.8c0.1-31.1,53-34.2,53,3.5h22.1c0,0,0.8-29.9,30.1-26.3
							c29.3,3.6,31.7,50.2-3.2,52.4L154.7,240.4z"/>
						<g>
							<path class="st7" d="M147.4,197.7c-0.1,0-0.3,0-0.4-0.1c-0.9-0.2-1.4-1.2-1.2-2c1.9-6.9,8.4-8,8.7-8.1
								c0.9-0.1,1.7,0.5,1.9,1.4c0.1,0.9-0.5,1.8-1.4,1.9c-0.2,0-4.7,0.8-6,5.7C148.8,197.2,148.1,197.7,147.4,197.7z"/>
						</g>
						<g>
							<path class="st7" d="M81.4,197.6c-0.1,0-0.3,0-0.4-0.1c-0.9-0.2-1.4-1.2-1.2-2c1.9-7,8.4-8,8.7-8.1c0.9-0.1,1.8,0.5,1.9,1.4
								s-0.5,1.7-1.4,1.9c-0.2,0-4.7,0.8-6,5.7C82.8,197.1,82.1,197.6,81.4,197.6z"/>
						</g>
						<g>
							<path class="st5" d="M118.9,218.9c-1-0.5-2.1-0.4-2.4,0.3s-0.1,1.2,1,1c0.7-0.2,1-0.7,2.7,0.8
								C120.7,221.4,119.9,219.4,118.9,218.9z"/>
							<path class="st5" d="M125.8,218.9c-1,0.5-1.8,2.6-1.3,2.1c1.7-1.5,2-0.9,2.7-0.8c1.1,0.2,1.3-0.3,1-1
								C127.9,218.6,126.8,218.4,125.8,218.9z"/>
						</g>
						<path class="st4" d="M42.4,192.4c0,5.1-4.1,9.1-9.2,9.1l0,0c-5.1,0-9.2-4.1-9.1-9.2l0,0c0-5.1,4.1-9.1,9.2-9.1l0,0
							C38.3,183.2,42.4,187.4,42.4,192.4L42.4,192.4z"/>
						<path class="st4" d="M221.8,192.6c0,5.1-4.1,9.1-9.2,9.1l0,0c-5.1,0-9.1-4.1-9.1-9.2l0,0c0-5.1,4.1-9.2,9.2-9.1l0,0
							C217.7,183.4,221.8,187.6,221.8,192.6L221.8,192.6z"/>
					</g>
					<g>
						<path class="st8" d="M108.8,70.3c-1.8-0.8-57-16.3-55.4-17.9c1.5-1.6,69.8-29.1,69.8-29.1s75,23.3,74.9,25.2
							c-0.1,1.8-50.8,21.1-51.7,21.3C145.5,69.9,108.8,70.3,108.8,70.3z"/>
						<path class="st9" d="M154.1,66.7c-0.1-1.6-1.1-17.3-1.1-17.3s-3.6-5.1-20.2-6.9s-35.2,5.3-36,6.6c-0.8,1.2,0.3,17.8,0.3,17.8
							s7.1-4.4,24.6-5.3C139.2,60.8,154.1,66.7,154.1,66.7z"/>
						<path class="st8" d="M187.1,44.1c0,0,1.9-1.1,2.9-0.4c0.9,0.6,0.7,37.8,0.7,48.8c0.3,0.5,0.8,1.4,1.2,2.6
							c0.4,1.6,0.3,2.9,0.2,3.4l4.4,18.7l-1.6-1.7c0,0-0.8,1.1-0.9,1.5s-1.9-1.5-1.9-1.5s-1.4,1.5-1.5,1.8s-2.1-1.9-2.1-1.9
							s-0.9,1.7-1.1,2s-1.2-1.6-1.2-1.6l-1.9,1.1c0,0,3.1-15.8,3.8-19.8c0-0.2,0.1-0.5,0.1-0.8c0.3-1.5,0.7-2.9,1.1-3.7
							c0-10.9,0.1-47.7-0.2-47.8C188.7,44.6,187.1,44.1,187.1,44.1z"/>
					</g>
					<polygon class="st10" points="132.2,245.6 120.2,249.2 111.4,240.4 98.3,227.4 93.7,245.7 89.2,263.9 106.8,258.6 118.8,255.1 
						127.6,263.8 140.7,276.8 145.2,258.6 149.8,240.4 					"/>
				</g>
				<g>
					<g>
						<path class="st11" d="M91,225.6c-13,0-23.6-10.6-23.6-23.6S78,178.4,91,178.4s23.6,10.6,23.6,23.6
							C114.5,214.9,104,225.6,91,225.6L91,225.6z M91,181.7c-11.2,0-20.3,9.1-20.3,20.3s9.1,20.3,20.3,20.3
							c11.2,0,20.3-9.1,20.3-20.3C111.2,190.7,102.2,181.7,91,181.7L91,181.7z"/>
					</g>
					<g>
						<path class="st11" d="M154.2,225.6c-13,0-23.6-10.6-23.6-23.6s10.6-23.6,23.6-23.6s23.6,10.6,23.6,23.6
							C177.8,214.9,167.2,225.6,154.2,225.6L154.2,225.6z M154.2,181.7c-11.2,0-20.3,9.1-20.3,20.3s9.1,20.3,20.3,20.3
							c11.2,0,20.3-9.1,20.3-20.3S165.3,181.7,154.2,181.7L154.2,181.7z"/>
					</g>
					<g>
						<path class="st11" d="M131.7,203.6c-5.2-4.8-12.9-4.8-18.2,0c-0.7-0.8-1.3-1.7-2-2.5c6.4-5.8,15.8-5.8,22.2,0
							C133,201.9,132.4,202.7,131.7,203.6L131.7,203.6z"/>
					</g>
				</g>
			</g>
			<g>
				<g>
					
						<linearGradient id="SVGID_2_" gradientUnits="userSpaceOnUse" x1="270.1521" y1="-81.2413" x2="270.1521" y2="-276.3376" gradientTransform="matrix(1 0 0 -1 0 -35.6122)">
						<stop  offset="0" style="stop-color:#EFB958"/>
						<stop  offset="1" style="stop-color:#E2822A"/>
					</linearGradient>
					<path class="st12" d="M270.2,141.4c16.8,0.1,29.9-8.2,29.6-41.3c0,0-12.3-0.1-25.9,0.4c0.3,17.6-0.9,20.9-3.4,20.9
						c-2.8,0-3.8-3.7-3.8-28c-0.3-23.1,0.8-29.2,4-29.2c2.8,0,3.6,3.7,3.4,18.4c0,0,10.2,0.5,25.5,0.5c0.8-21-6-38.8-27.8-38.8
						c-22,0-31.3,15.5-31.3,48.9C240.4,127.9,249,141.4,270.2,141.4z"/>
					
						<linearGradient id="SVGID_3_" gradientUnits="userSpaceOnUse" x1="321.4" y1="-81.2413" x2="321.4" y2="-276.3376" gradientTransform="matrix(1 0 0 -1 0 -35.6122)">
						<stop  offset="0" style="stop-color:#EFB958"/>
						<stop  offset="1" style="stop-color:#E2822A"/>
					</linearGradient>
					<path class="st13" d="M309.1,47.3c0.7,51.5,0.5,91.9,0.5,91.9c16.1-0.1,24.1,0,24.1,0c-0.4-47.7-0.7-92.1-0.7-92.1
						C317.3,47.3,309.1,47.3,309.1,47.3z"/>
					
						<linearGradient id="SVGID_4_" gradientUnits="userSpaceOnUse" x1="371.3999" y1="-81.2413" x2="371.3999" y2="-276.3376" gradientTransform="matrix(1 0 0 -1 0 -35.6122)">
						<stop  offset="0" style="stop-color:#EFB958"/>
						<stop  offset="1" style="stop-color:#E2822A"/>
					</linearGradient>
					<path class="st14" d="M375.6,46.4c0,0-0.9,24.2-5,74.5c-0.9-11.4-2.8-35.7-4.4-70.9c0,0-10.4,0.4-23.9,0.4
						c0,0,4.6,34.1,10.6,90.1c18.4,0.7,35,0.5,35,0.5s2-18.8,12.6-94.8C400.5,46.3,391.6,46.7,375.6,46.4z"/>
					
						<linearGradient id="SVGID_5_" gradientUnits="userSpaceOnUse" x1="421.4" y1="-81.2413" x2="421.4" y2="-276.3376" gradientTransform="matrix(1 0 0 -1 0 -35.6122)">
						<stop  offset="0" style="stop-color:#EFB958"/>
						<stop  offset="1" style="stop-color:#E2822A"/>
					</linearGradient>
					<path class="st15" d="M409.6,137.1c16.1-0.1,24.1,0,24.1,0c-0.4-47.7-0.7-86.5-0.7-86.5c-15.7,0.1-23.9,0.1-23.9,0.1
						C409.7,102.2,409.6,137.1,409.6,137.1z"/>
					
						<linearGradient id="SVGID_6_" gradientUnits="userSpaceOnUse" x1="473.5536" y1="-81.2413" x2="473.5536" y2="-276.3376" gradientTransform="matrix(1 0 0 -1 0 -35.6122)">
						<stop  offset="0" style="stop-color:#EFB958"/>
						<stop  offset="1" style="stop-color:#E2822A"/>
					</linearGradient>
					<path class="st16" d="M503.6,101.3c0,0-12.4,0.9-25.9,1.2c0.3,15.2-0.9,17.7-3.8,17.7c-2.8,0-4.1-5-4.1-27
						c-0.3-20.9,0.9-27.9,4.2-27.9c2.4,0,4,2.4,3.8,17.9c0,0,10.2-0.4,25.5-0.4c0.7-22.2-7.9-37.3-28.2-37.3
						c-22.7,0-31.6,16.1-31.6,47.6c0,37.6,12.7,47.5,30.3,47.5C494.8,140.7,503.9,128.4,503.6,101.3z"/>
					
						<linearGradient id="SVGID_7_" gradientUnits="userSpaceOnUse" x1="539.9499" y1="-81.2413" x2="539.9499" y2="-276.3376" gradientTransform="matrix(1 0 0 -1 0 -35.6122)">
						<stop  offset="0" style="stop-color:#EFB958"/>
						<stop  offset="1" style="stop-color:#E2822A"/>
					</linearGradient>
					<path class="st17" d="M533.4,126.3c4.6,0,8.7,0,11.1,0.1c0.8,10.4,1.1,14.8,1.1,14.8c15.5-0.4,25.3-0.1,25.3-0.1
						c-8.7-50.4-14.8-94.8-14.8-94.8s-14.7-0.3-33.9,0.5C514.8,102,509,137,509,137c16.4-0.1,23.7,0.3,23.7,0.3L533.4,126.3z
						 M538.8,66.4c0,0,2,18.3,4.1,40.6c0,0-3.8,0.1-8.1,0C536.4,87.9,538,73.4,538.8,66.4z"/>
					
						<linearGradient id="SVGID_8_" gradientUnits="userSpaceOnUse" x1="288.05" y1="-81.2413" x2="288.05" y2="-276.3376" gradientTransform="matrix(1 0 0 -1 0 -35.6122)">
						<stop  offset="0" style="stop-color:#EFB958"/>
						<stop  offset="1" style="stop-color:#E2822A"/>
					</linearGradient>
					<path class="st18" d="M293,147.9c-1.6,18.4-3.8,36.6-5.8,50.5c-3.4-24.6-5.8-46.3-5.8-46.3c-18.1,0.7-33.3,0.4-33.3,0.4
						c-1.2,50.4-3.4,88-3.4,88c10.1,0.1,25.1,0.5,25.1,0.5c-0.5-23.3-0.5-45.1-0.5-61c4.8,30.8,6.5,48.7,6.5,48.7
						c11.2,0.5,23.5,0.7,23.5,0.7c1.5-18.3,4.4-39.3,6.7-54.2c1.5,40.5,0.8,69.6,0.8,69.6c11.9-0.4,24.6-1.1,24.6-1.1
						c-3.7-57.7-3.8-94.6-3.8-94.6C310.9,148.4,293,147.9,293,147.9z"/>
					
						<linearGradient id="SVGID_9_" gradientUnits="userSpaceOnUse" x1="362.3" y1="-81.2413" x2="362.3" y2="-276.3376" gradientTransform="matrix(1 0 0 -1 0 -35.6122)">
						<stop  offset="0" style="stop-color:#EFB958"/>
						<stop  offset="1" style="stop-color:#E2822A"/>
					</linearGradient>
					<path class="st19" d="M384,173.1c-0.4-13.8-0.3-23.4-0.3-23.4c-31.9,0.3-43.1,0.4-43.1,0.4c0.8,53.3,1.1,91.5,1.1,91.5
						c22.4,0.3,41.8,0.9,41.8,0.9c0-14.7,0.3-22.1,0.3-22.1c-11.1-0.4-18.5-0.9-18.5-0.9c-0.4-7.1-0.4-11.6-0.4-11.6
						c8.9,0,16,0.1,16,0.1c-0.3-13-0.1-22.4-0.1-22.4c-10.4,0.3-15.3,0.1-16.4,0.1c0,0-0.1-5.4,0-12.3
						C371.3,173.2,384,173.1,384,173.1z"/>
					
						<linearGradient id="SVGID_10_" gradientUnits="userSpaceOnUse" x1="422.55" y1="-81.2413" x2="422.55" y2="-276.3376" gradientTransform="matrix(1 0 0 -1 0 -35.6122)">
						<stop  offset="0" style="stop-color:#EFB958"/>
						<stop  offset="1" style="stop-color:#E2822A"/>
					</linearGradient>
					<path class="st20" d="M428,147.6c1.9,23,2.9,39.4,3.4,50.1c-10.2-28.2-15.7-45-15.7-45c-13,0.4-22.5,1.1-22.5,1.1
						c0.9,53.4,0.4,85.8,0.4,85.8c13.6,0,22.4,0.4,22.4,0.4c-1.2-18.8-1.7-31.7-2-40.9c9.9,26.6,16.5,45.4,16.5,45.4
						c14.8-1.2,21.4-2.2,21.4-2.2c-1.7-59-2.4-94.3-2.4-94.3C436.2,148.1,428,147.6,428,147.6z"/>
					
						<linearGradient id="SVGID_11_" gradientUnits="userSpaceOnUse" x1="486.65" y1="-81.2413" x2="486.65" y2="-276.3376" gradientTransform="matrix(1 0 0 -1 0 -35.6122)">
						<stop  offset="0" style="stop-color:#EFB958"/>
						<stop  offset="1" style="stop-color:#E2822A"/>
					</linearGradient>
					<path class="st21" d="M460.6,150.2c0.4,17.1,0.1,22.9,0.1,22.9l14.2-0.1c0.4,42.7,0.1,69.8,0.1,69.8c16-0.4,23.8-0.1,23.8-0.1
						c-0.4-33.7-0.5-54.8-0.5-69.7c8.7,0,14,0.1,14,0.1c-0.1-14.8,0.4-23.4,0.4-23.4C478.4,150.4,460.6,150.2,460.6,150.2z"/>
					
						<linearGradient id="SVGID_12_" gradientUnits="userSpaceOnUse" x1="542.6" y1="-81.2413" x2="542.6" y2="-276.3376" gradientTransform="matrix(1 0 0 -1 0 -35.6122)">
						<stop  offset="0" style="stop-color:#EFB958"/>
						<stop  offset="1" style="stop-color:#E2822A"/>
					</linearGradient>
					<path class="st22" d="M564,173.9c-0.4-13.8-0.3-23.4-0.3-23.4c-31.3,0.8-42.5,0.8-42.5,0.8c0.8,53.3,1.1,88.9,1.1,88.9
						c22.4,0.3,41.1,0.5,41.1,0.5c0-14.7,0.3-22.1,0.3-22.1c-11,0.3-17.9,0.3-17.9,0.3c-0.4-5.8-0.4-10.2-0.4-10.2
						c8.9-0.1,15.3,0.1,15.3,0.1c-0.3-13-0.1-21.7-0.1-21.7c-10.4,0.3-14.8,0.1-15.7,0.1c-0.1-7.8,0-12.6,0-12.6
						C553.4,174.2,564,173.9,564,173.9z"/>
				</g>
				<g>
					<path class="st23" d="M584.4,231.9c0,4.6-3.6,8.2-8.2,8.2c-4.6,0-8.3-3.6-8.3-8.2c0-4.5,3.7-8.1,8.3-8.1
						C580.9,223.9,584.4,227.6,584.4,231.9z M570,231.9c0,3.6,2.7,6.4,6.3,6.4c3.5,0,6.1-2.8,6.1-6.4c0-3.6-2.6-6.5-6.2-6.5
						C572.6,225.6,570,228.4,570,231.9z M574.9,236.2H573v-8c0.7-0.1,1.8-0.2,3.1-0.2c1.5,0,2.2,0.2,2.8,0.6c0.4,0.3,0.8,1,0.8,1.8
						c0,0.9-0.7,1.6-1.7,1.9v0.1c0.8,0.3,1.2,0.9,1.5,2c0.2,1.2,0.4,1.7,0.6,2h-2c-0.2-0.3-0.4-1-0.6-2c-0.1-0.9-0.6-1.3-1.7-1.3
						h-0.9L574.9,236.2L574.9,236.2z M575,231.7h0.9c1,0,1.9-0.3,1.9-1.2c0-0.7-0.5-1.2-1.7-1.2c-0.5,0-0.8,0-1,0.1v2.3H575z"/>
				</g>
			</g>
		</g>
	</g>
</g>
</svg>
