<svg xmlns="http://www.w3.org/2000/svg" xmlns:xlink="http://www.w3.org/1999/xlink" viewBox="0 0 410.67 487.27">
<defs>
<style>
    .brain{fill:#54585e;}
    .cls-3{fill:#84ccc9;opacity:0.2;isolation:isolate;}
    .solid-face{fill:#fce1d2; }
    .ears{
        fill:#ce602a;
        }
    .mouth{fill:#ce602a;}
    .eye{ fill:#29282f;}
    .noise{fill:#29282f;}
    .gradient-face{fill:url(#Color_Civicamente_Original);}
    .eye_brightness{
        fill:#dee0df;
        }
    .hat_bg{fill:#2b2e2e;}
    .base_hat{fill:#363a3b;}
    .corbatin{
        fill:#298ccd;
        }
    .cls-12{fill:#1f1c1f;}

   .bowtie {
        -webkit-animation: bowspin 1s infinite;
        transform-origin: top center;
        animation: bowspin .5s infinite;
        -webkit-animation-timing-function: linear;
    }
    @-webkit-keyframes bowspin {
        0% {
        transform: rotate(0deg);
        transform-origin: center;
        transform-box: fill-box;
        }
        100% {
        transform: rotate(360deg);
        transform-origin: center;
        transform-box: fill-box;
        }
    }
</style>
<linearGradient id="Color_Civicamente_Original" x1="205.34" y1="246.49" x2="205.34" y2="417.19" gradientUnits="userSpaceOnUse"><stop offset="0" stop-color="#f0ba58"/><stop offset="1" stop-color="#e3832a"/></linearGradient></defs>
<g>
    <path class="brain" d="M196,109.27c-3-2.88-8.64-8-20.7-8a24.24,24.24,0,0,0-23.43,18,1.39,1.39,0,0,1,1.16,1.11c.1.5,2.42,11.92,12.67,13.13a1.44,1.44,0,0,1,1.26,1.56,1.42,1.42,0,0,1-1.41,1.27h-.15c-12.32-1.47-15.1-15.25-15.15-15.41a1.54,1.54,0,0,1,.15-.95,24.15,24.15,0,0,0-37.06,20.5,23.74,23.74,0,0,0,2.12,9.79,1.43,1.43,0,0,1,1.82.41c.15.2,9.49,11.91,34.18,8.13a1.39,1.39,0,0,1,1.62,1.21,1.43,1.43,0,0,1-1.21,1.61,65.87,65.87,0,0,1-10,.81c-19.14,0-26.51-9.59-26.86-10a1.28,1.28,0,0,1-.21-1.26,24.16,24.16,0,0,0-32,23,24.15,24.15,0,0,0,5.76,15.65,1.23,1.23,0,0,1,.65-.36c2.33-.6,57.11-14.18,67.92,13.69,4.59,11.87-.15,18.38-3.44,21.21A21.16,21.16,0,0,1,140,229.09a15.67,15.67,0,0,1-7.67-1.76,6.82,6.82,0,0,1-3.79-7.33,1.44,1.44,0,0,1,1.67-1.16,1.42,1.42,0,0,1,1.16,1.67c-.31,1.82.5,3.28,2.37,4.34,4.29,2.38,12.93,1.72,18.08-2.77,3.28-2.88,6.41-8.34,2.62-18-9.94-25.5-64-12.07-64.58-11.92a1.4,1.4,0,0,1-1.72-1c-9.84,3.18-20.5,11-21.91,27.42-1,11.67,5.15,22.93,16.16,25.25,1.36.86,15.65-.46,17.62-.71,18.58-2.62,76-3.94,76-3.94s25.55.71,25.55-27.11.05-74.74.05-84.13C201.52,120.63,201.52,114.57,196,109.27Z"/>
    <path class="brain" d="M343.46,220c-1.36-16.46-12-24.28-21.86-27.46a1.41,1.41,0,0,1-1.72.95c-.55-.15-54.63-13.63-64.58,11.87-3.79,9.75-.71,15.2,2.58,18,5.15,4.49,13.78,5.2,18.07,2.77,1.87-1.06,2.68-2.47,2.38-4.34a1.45,1.45,0,0,1,1.16-1.66,1.38,1.38,0,0,1,1.61,1.16c.51,3-.91,5.65-3.83,7.27a16.35,16.35,0,0,1-7.73,1.77,20.86,20.86,0,0,1-13.63-4.9c-3.24-2.83-8-9.39-3.39-21.21,11-27.72,65.75-14.09,68.07-13.48a1.28,1.28,0,0,1,.61.35,24.22,24.22,0,0,0-18.43-39.94,23.19,23.19,0,0,0-7.73,1.31,1.3,1.3,0,0,1-.2,1.27c-.36.45-7.78,10-26.92,10a66.85,66.85,0,0,1-10-.8,1.43,1.43,0,1,1,.4-2.83c24.79,3.79,34.13-8,34.18-8.08a1.41,1.41,0,0,1,1.77-.4,24.19,24.19,0,0,0-35-30.35,1.28,1.28,0,0,1,.15,1c-.05.15-2.88,13.93-15.2,15.35h-.15a1.46,1.46,0,0,1-1.41-1.26,1.36,1.36,0,0,1,1.26-1.57c10.25-1.21,12.67-13,12.67-13.08a1.4,1.4,0,0,1,1.16-1.11,24.27,24.27,0,0,0-23.42-18c-12.07,0-17.68,5.15-20.71,8-5.55,5.31-5.55,11.36-5.55,18.48,0,9.4-.05,56.31-.05,84.13s25.55,27.16,25.55,27.16,57.41,1.47,76,4.09c1.92.26,16.21,1.62,17.62.71C338.31,242.88,344.42,231.62,343.46,220Z"/>
    <path class="cls-3" d="M352.2,282.92l.05-97.71c.05-52.71-43.43-95.53-97.05-95.58l-99.37-.1c-53.63,0-97.16,42.66-97.21,95.43l0,97.71Z"/>
    <path class="solid-face" d="M325.74,411c-80,11.81-154.16,11.76-246.11-.16-13.18,0,.1-134.82.1-134.82l246.11.21C325.84,276.15,348,404.56,325.74,411Z"/>
    <path class="mouth" d="M180,399.39s8.87,8.49,34.12,4.6,30.42-14.5,30.42-14.5S214.09,404,180,399.39Z"/>
    <g><!-- EYES -->
        <g><!-- LEFT EYE -->
            <path class="eye" d="M163.91,332.3a21.77,21.77,0,0,1-21.77,21.77h0a21.69,21.69,0,0,1-21.71-21.77h0a21.69,21.69,0,0,1,21.76-21.71h0a21.69,21.69,0,0,1,21.72,21.71Z"/>
            <path class="eye_brightness" d="M126.59,335a4.48,4.48,0,0,1-.81-.1,3.15,3.15,0,0,1-2.22-3.89,21.19,21.19,0,0,1,16.66-15.5,3.17,3.17,0,0,1,3.64,2.68,3.22,3.22,0,0,1-2.63,3.63,15,15,0,0,0-11.51,10.91A3.32,3.32,0,0,1,126.59,335Z"/>
        </g>
        <g><!-- RIGHT EYE -->
            <path class="eye" d="M289.28,332.41a21.76,21.76,0,0,1-21.76,21.76h0a21.76,21.76,0,0,1-21.76-21.76h0a21.69,21.69,0,0,1,21.76-21.72h0a21.66,21.66,0,0,1,21.76,21.72Z"/>
            <path class="eye_brightness" d="M253.48,335.08a4.6,4.6,0,0,1-.81-.1,3.16,3.16,0,0,1-2.22-3.89,21.3,21.3,0,0,1,16.67-15.5,3.2,3.2,0,0,1,1,6.31,15,15,0,0,0-11.52,10.91A3.36,3.36,0,0,1,253.48,335.08Z"/>
        </g>
    </g>
    <path class="gradient-face" d="M267.57,417.19c25.7-1,49.84-2.58,63.12-4,24.39-2.63,23.38-27.07,23.38-27.07l1.36-36.25A34,34,0,1,0,356.79,296V278.63s1.07-24.39-23.32-27.07-88.07-5.9-128.41-4.84c-40.3-1.11-104,2-128.41,4.69s-23.38,27-23.38,27v16.81a34,34,0,1,0,1.26,54.84l1.32,35.8S54.74,410.27,79.18,413c12.92,1.41,36.05,3,61,4l-6.86-34s-52,2.63-52-57.36c.1-59.84,102-65.79,101.89,6.71l42.47.06s1.62-57.47,57.87-50.55,60.94,96.6-6.16,100.79Z"/>

    <g>
        <path class="noise" d="M198.65,375.93c-2-1-4.09-.7-4.7.61s-.2,2.37,1.92,1.92c1.31-.31,1.92-1.37,5.2,1.51C202.13,380.88,200.61,376.89,198.65,375.93Z"/>
        <path class="noise" d="M212,376c-2,1-3.49,5-2.43,4,3.28-2.93,3.89-1.81,5.2-1.56,2.17.45,2.58-.66,1.92-1.92S214,375.07,212,376Z"/>
    </g>
    <path class="ears" d="M51.61,325.14A17.57,17.57,0,0,1,34,342.71h0a17.54,17.54,0,0,1-17.57-17.63h0A17.57,17.57,0,0,1,34,307.51h0a17.6,17.6,0,0,1,17.58,17.63Z"/>
    <path class="ears" d="M396.48,325.39A17.56,17.56,0,0,1,378.86,343h0a17.56,17.56,0,0,1-17.57-17.62h0a17.54,17.54,0,0,1,17.62-17.58h0a17.59,17.59,0,0,1,17.57,17.63Z"/>
    <path class="hat_bg" d="M179.26,90.29C175.82,88.72,69.73,58.93,72.66,55.9S206.93,0,206.93,0s144.16,44.89,144,48.37S253.23,89,251.46,89.28,179.26,90.29,179.26,90.29Z"/>
    <path class="base_hat" d="M266.41,83.32c-.2-3.13-2-33.23-2-33.23s-6.92-9.74-38.83-13.23S157.8,47.11,156.28,49.48s.51,34.29.51,34.29,13.68-8.53,47.21-10.2S266.41,83.32,266.41,83.32Z"/>
    <path class="hat_bg" d="M329.73,39.79s3.64-2.12,5.65-.86c1.72,1.06,1.42,72.61,1.27,93.87a16.89,16.89,0,0,1,2.27,5,13.8,13.8,0,0,1,.3,6.62l8.38,35.9-3.08-3.28a23.67,23.67,0,0,0-1.71,2.82c-.26.71-3.74-3-3.74-3a31.42,31.42,0,0,0-2.88,3.44c-.1.5-4-3.64-4-3.64s-1.71,3.18-2.07,3.79-2.37-3-2.37-3L324,179.61s6-30.35,7.22-38.07a9.15,9.15,0,0,1,.26-1.57,29.89,29.89,0,0,1,2.12-7c.05-20.95.1-91.8-.31-91.9S329.73,39.79,329.73,39.79Z"/>
    <g class="bowtie">
    <polygon class="corbatin" points="224.19 427.34 201.27 434.15 184.25 417.34 159.06 392.39 150.27 427.39 141.49 462.38 175.47 452.33 198.39 445.51 215.36 462.33 240.56 487.27 249.34 452.28 258.18 417.29 224.19 427.34"/>
    </g>
    <path class="cls-12" d="M145,388.73a45.4,45.4,0,1,1,45.39-45.4A45.47,45.47,0,0,1,145,388.73Zm0-84.38a39,39,0,1,0,39,39,39,39,0,0,0-39-39Z"/>
    <path class="cls-12" d="M266.46,388.73a45.4,45.4,0,1,1,45.39-45.4,45.42,45.42,0,0,1-45.39,45.4Zm0-84.38a39,39,0,1,0,39,39,39.09,39.09,0,0,0-39-39Z"/>
    <path class="cls-12" d="M223.29,346.56a25.7,25.7,0,0,0-34.95,0c-1.31-1.61-2.57-3.23-3.88-4.84a31.43,31.43,0,0,1,42.71,0c-1.31,1.56-2.57,3.23-3.88,4.84Z"/>
    </g>
    </svg>