<svg xmlns="http://www.w3.org/2000/svg" xmlns:xlink="http://www.w3.org/1999/xlink" viewBox="0 0 234.6 372.43"><defs><style>.cls-1,.cls-27{fill:none;}.cls-2{fill:#cd8b7a;}.cls-3{isolation:isolate;}.cls-11,.cls-17,.cls-4{fill:#f18823;}.cls-5{fill:#de9e60;opacity:0.5;}.cls-6{fill:#ec742c;}.cls-22,.cls-7{fill:#fce0d2;}.cls-8{fill:#6d6f73;}.cls-9{fill:#6c6e72;}.cls-10{fill:#88cbc6;opacity:0.2;}.cls-11{opacity:0.4;}.cls-11,.cls-17,.cls-18,.cls-22,.cls-31{mix-blend-mode:multiply;}.cls-12{fill:#ca5b2b;}.cls-13{fill:#231f20;}.cls-14{fill:#eff1f0;}.cls-15{fill:#413f41;}.cls-16{clip-path:url(#clip-path);}.cls-17,.cls-31{opacity:0.3;}.cls-19{fill:#fff;}.cls-20{clip-path:url(#clip-path-2);}.cls-21{fill:#ec9bad;}.cls-23{fill:#ec1c24;}.cls-24{fill:#f1f1f2;}.cls-25{fill:#1a428a;}.cls-26{fill:#385cad;}.cls-27{stroke:#af6e58;stroke-linecap:round;stroke-linejoin:round;stroke-width:0.62px;}.cls-28{fill:#00bed6;}.cls-29{fill:silver;}.cls-30{fill:#f8bc5d;}.cls-32{fill:#1d1d1b;}</style><clipPath id="clip-path"><path class="cls-1" d="M182.71,73.39a12.74,12.74,0,0,0-7.45,2.38V69.42s.4-8.94-8.72-9.92-32.89-2.16-48-1.79c-15.06-.39-38.84.75-48,1.72s-8.73,9.91-8.73,9.91v6.17a12.81,12.81,0,0,0-7.21-2.22,12.45,12.45,0,1,0,0,24.89,12.75,12.75,0,0,0,7.71-2.56l.49,13.12s-.41,9,8.71,9.93c4.67.5,12.92,1,21.88,1.42a312.83,312.83,0,0,0,51.23,0c8.55-.36,16.34-.88,20.83-1.35,9.12-1,8.72-9.92,8.72-9.92l.52-13.29a12.79,12.79,0,0,0,7.93,2.75,12.45,12.45,0,1,0,0-24.89Z"/></clipPath><clipPath id="clip-path-2"><path class="cls-2" d="M110.66,110.18a21.88,21.88,0,0,0,8.72.27c5.29-.78,9.52-4.93,10.84-2.86s-.79,8.57-9.78,9.08C120.44,116.67,108.55,118,110.66,110.18Z"/></clipPath></defs><g class="cls-3"><g id="Capa_2" data-name="Capa 2"><g id="Capa_1-2" data-name="Capa 1"><path class="cls-4" d="M220.37,75.79c-1.82,2-3.34,2.45-4.66,4.77-.4.75-3.44,4.48-4,5.46-3.72-.37-4.41.85-7.8-3.43,1.26-1,2.87-4.21,4-5.93,1-.94,1.54-2.5,2.39-3.59a6.67,6.67,0,0,0,.9-2.9,21.46,21.46,0,0,0,.42-3.49c.09-3.74-.77-7.46-.58-11.19.59-.33,1.27.26,1.64.82a17.06,17.06,0,0,1,3,8.79q1.38-2.5,3-4.9c1.69-2.55,4-5.24,7.07-5.38.39.36.12,1-.17,1.44l-6.36,9.66q4-4.26,8.21-8.26c.8-.75,1.81-1.55,2.88-1.29.63,1.66-.59,3.38-1.73,4.74q-2.83,3.38-5.68,6.74L227,64.54c2.2-1.76,4.86-3.65,7.62-3,0,1.16-5.77,6.78-9.88,8.7a21.54,21.54,0,0,1,6.26-.13c1.1.14,2.42.61,2.54,1.68-1.71.89-3.75.79-5.68,1C225.21,73,222.17,73.81,220.37,75.79Z"/><ellipse class="cls-5" cx="96.47" cy="353.52" rx="96.47" ry="18.91"/><path class="cls-4" d="M147.86,212a202.7,202.7,0,0,1,4.45,60.36c-2.54,33.72-9.54,67.44-9.54,67.44l-11-1.25,4-67.44L123,216.11Z"/><polygon class="cls-6" points="139.29 312.59 136.74 332.72 144.17 331.26 147.99 312.32 139.29 312.59"/><path class="cls-6" d="M230,122.72c-2.78-7.1-10.2-11.22-17.85-10.74-8.32.51-15.12,5.57-19.53,12.28-4.29,6.53-6,14.32-7.1,21.89s-2.21,15-4.55,22.31c-4.45,13.88-12.9,26.82-25.69,34.6a45.48,45.48,0,0,1-23.79,7H131l-1.44,9.36a48.42,48.42,0,0,0,10.88-.51c14.48-2.38,27.75-11.09,36.64-22.38s14.34-25.1,16.67-39.28c1.13-6.86,1.73-13.86,3.84-20.53,1.83-5.79,5.41-12.12,11.52-14.39,5-1.88,11.71,0,12.13,5.64a4.89,4.89,0,0,1-.75,3.17,2.59,2.59,0,0,1-1.94,1.28,3.65,3.65,0,0,1-4.48-2c-1.11-2.37-4.63-2.89-6.73-1.66-2.48,1.44-2.81,4.23-1.7,6.6,3.08,6.55,11.89,8.31,18.11,5.36C230.38,137.56,232.54,129.15,230,122.72Z"/><path class="cls-4" d="M143.45,130.21l-13.65-.4,0-.29h-22.6v.27l-14.32.42s-8.28,84.11-4.46,85.88c3.09,1.44,22.48.55,29.73.16,7.24.39,26.63,1.28,29.72-.16C151.72,214.32,143.45,130.21,143.45,130.21Z"/><path class="cls-7" d="M142.51,175.66c0,13.62-11.16,19.25-24.61,19.27s-24.06-5.54-24.09-19.16a24.35,24.35,0,1,1,48.7-.11Z"/><rect class="cls-4" x="108.63" y="118.29" width="19.09" height="12.49"/><path class="cls-8" d="M114.79,7.21a10.2,10.2,0,0,0-7.73-2.95,9,9,0,0,0-8.76,6.59.56.56,0,0,1,.44.42c0,.17.91,4.36,4.73,4.8a.53.53,0,0,1,.47.58.52.52,0,0,1-.53.46h-.07c-4.59-.53-5.64-5.59-5.65-5.64a.47.47,0,0,1,.06-.35A9,9,0,0,0,83.9,18.63a8.64,8.64,0,0,0,.78,3.59.53.53,0,0,1,.67.14c.06.06,3.54,4.36,12.77,3a.53.53,0,1,1,.16,1,25.8,25.8,0,0,1-3.74.29c-7.14,0-9.91-3.51-10-3.69a.47.47,0,0,1-.07-.47A9.22,9.22,0,0,0,81.54,22a9,9,0,0,0-9.08,8.9,8.77,8.77,0,0,0,2.15,5.73.51.51,0,0,1,.24-.13c.87-.22,21.32-5.2,25.37,5,1.72,4.34-.06,6.73-1.27,7.77a8,8,0,0,1-5.1,1.78A6.07,6.07,0,0,1,91,50.45a2.48,2.48,0,0,1-1.42-2.67.53.53,0,0,1,1,.17,1.46,1.46,0,0,0,.89,1.59,6.8,6.8,0,0,0,6.76-1c1.22-1.05,2.39-3.05,1-6.62-3.71-9.35-23.92-4.42-24.12-4.37a.54.54,0,0,1-.64-.36,11.09,11.09,0,0,0-8.18,10c-.37,4.28,1.92,8.41,6,9.25.51.32,5.85-.16,6.57-.26,6.94-.95,28.39-1.45,28.39-1.45s9.54.26,9.55-10,0-27.39,0-30.83C116.87,11.38,116.87,9.15,114.79,7.21Z"/><path class="cls-9" d="M169.89,47.79a11.08,11.08,0,0,0-8.17-10.06.53.53,0,0,1-.64.36c-.2-.05-20.4-5-24.12,4.34-1.42,3.56-.26,5.56,1,6.61a6.8,6.8,0,0,0,6.76,1,1.45,1.45,0,0,0,.89-1.59.52.52,0,0,1,.44-.6.54.54,0,0,1,.61.44A2.51,2.51,0,0,1,145.2,51a6.17,6.17,0,0,1-2.87.64,8,8,0,0,1-5.1-1.79c-1.22-1-3-3.44-1.26-7.78,4.06-10.21,24.51-5.2,25.38-5a.59.59,0,0,1,.23.14,8.72,8.72,0,0,0,2.16-5.73,9,9,0,0,0-9.06-8.91,9.22,9.22,0,0,0-2.89.48.5.5,0,0,1-.07.47c-.13.17-2.91,3.67-10.05,3.67a25.9,25.9,0,0,1-3.74-.3.53.53,0,0,1-.45-.6.54.54,0,0,1,.61-.43c9.27,1.39,12.74-2.93,12.78-3a.52.52,0,0,1,.66-.14,8.61,8.61,0,0,0,.8-3.58,9,9,0,0,0-9.06-8.91,9.17,9.17,0,0,0-4.79,1.37.52.52,0,0,1,.07.35s-1.07,5.11-5.67,5.63h-.06a.53.53,0,0,1-.06-1.05c3.83-.43,4.73-4.75,4.74-4.79a.51.51,0,0,1,.43-.41,9,9,0,0,0-8.75-6.61,10.31,10.31,0,0,0-7.74,2.94c-2.07,1.94-2.08,4.17-2.08,6.78,0,3.44,0,20.63,0,30.83s9.54,10,9.54,10,21.45.53,28.38,1.5c.72.1,6.06.58,6.58.26C168,56.19,170.25,52.07,169.89,47.79Z"/><path class="cls-10" d="M173.15,70.87l0-35.82c0-19.33-16.22-35-36.26-35L99.8,0c-20,0-36.3,15.64-36.32,35l0,35.81Z"/><path class="cls-7" d="M163.26,117.79c-29.88,4.33-57.59,4.31-91.94-.06-4.92,0,0-49.42,0-49.42l91.94.07S171.58,115.44,163.26,117.79Z"/><path class="cls-4" d="M141.94,120.31c9.61-.36,18.62-.94,23.58-1.46,9.12-1,8.72-9.92,8.72-9.92l.52-13.29a12.73,12.73,0,0,0,7.93,2.75,12.45,12.45,0,1,0,0-24.89,12.81,12.81,0,0,0-7.45,2.38V69.54s.4-9-8.72-9.93-32.89-2.16-48-1.78c-15.06-.4-38.84.75-48,1.71s-8.73,9.91-8.73,9.91v6.17a12.8,12.8,0,0,0-7.21-2.21,12.44,12.44,0,1,0,0,24.88,12.75,12.75,0,0,0,7.71-2.56l.49,13.12s-.41,9,8.71,9.93c4.82.52,13.47,1.09,22.78,1.46L91.8,107.78s-19.42,1-19.4-21,38.07-24.15,38.05,2.43H126.3s.61-21.06,21.62-18.52,22.76,35.41-2.29,36.95Z"/><path class="cls-11" d="M62.5,88.77s-.68.2-1.69.4-2.85-.46-3-3c-.11-2.25,3.93-3.89,5-4.29a9.3,9.3,0,0,0-8.23-4.92,9.11,9.11,0,1,0,0,18.21c3.45,0,7.37-1.63,8.06-4.59A4.6,4.6,0,0,0,62.5,88.77Z"/><path class="cls-12" d="M57.84,91.09a2.11,2.11,0,0,0,.44.61,4.52,4.52,0,0,0,1.46,1.2,2,2,0,0,0,2.48-.51A4.24,4.24,0,0,0,63,90.71a6.3,6.3,0,0,0,.14-1c0-.17,0-.31,0-.52a1.13,1.13,0,0,0-.18-.69c-.23-.42-.81-.28-1-.18a4.68,4.68,0,0,1-.62.27,2.48,2.48,0,0,1-1.2-.08c-.79-.24-1.67-.53-1.93-1a1.8,1.8,0,0,1,.07-1.49c.17-.42.29-.65.29-.65a5.14,5.14,0,0,1,.81-1.16,6.37,6.37,0,0,1,1.29-1,5.72,5.72,0,0,1,.93-.44,6,6,0,0,1,.59-.19l1.16-.24a7.58,7.58,0,0,0-.55-1.22,4.37,4.37,0,0,0-.7-.84c-.43-.41-.86-.76-1.32-1.14a14.44,14.44,0,0,0-2.88-1.92,5.1,5.1,0,0,0-2.57-.56,1.87,1.87,0,0,0-1,.28,6.33,6.33,0,0,1,3.43.84,15.19,15.19,0,0,1,2.7,2.07c.42.39.87.8,1.24,1.18.46.53.35.44.36.53h-.09a4.14,4.14,0,0,0-.54.16,7.22,7.22,0,0,0-1,.46,6.34,6.34,0,0,0-1.51,1.15,5.29,5.29,0,0,0-1,1.38,6.06,6.06,0,0,0-.36.82,4.74,4.74,0,0,0-.25,1.1,2.45,2.45,0,0,0,.35,1.62,2.62,2.62,0,0,0,1.16.87,10.75,10.75,0,0,0,1.28.37,2.86,2.86,0,0,0,1.48,0,4.65,4.65,0,0,0,.7-.32c.23-.11.2-.11.29,0a.19.19,0,0,1,0,.12v.4a5.54,5.54,0,0,1-.1.83,3.41,3.41,0,0,1-.55,1.39,1.63,1.63,0,0,1-2,.55A12.13,12.13,0,0,1,57.84,91.09Z"/><path class="cls-11" d="M174.89,88.77s.68.2,1.69.4,2.85-.46,3-3c.12-2.25-3.93-3.89-5-4.29a9.29,9.29,0,0,1,8.23-4.92,9.11,9.11,0,1,1,0,18.21c-3.46,0-7.37-1.63-8.07-4.59A4.73,4.73,0,0,1,174.89,88.77Z"/><path class="cls-12" d="M179.55,91.09a2.11,2.11,0,0,1-.44.61,4.57,4.57,0,0,1-1.47,1.2,1.94,1.94,0,0,1-2.47-.51,4,4,0,0,1-.76-1.68,6.31,6.31,0,0,1-.15-1c0-.17,0-.31,0-.52a1.2,1.2,0,0,1,.17-.69c.23-.42.81-.28,1-.18a4.12,4.12,0,0,0,.61.27,2.46,2.46,0,0,0,1.2-.08,3.71,3.71,0,0,0,1.94-1,1.77,1.77,0,0,0-.08-1.49,5.25,5.25,0,0,0-.29-.65,4.83,4.83,0,0,0-.8-1.16,6.46,6.46,0,0,0-1.3-1,5.72,5.72,0,0,0-.93-.44,5.21,5.21,0,0,0-.59-.19L174,82.37a7.58,7.58,0,0,1,.55-1.22,4,4,0,0,1,.7-.84c.42-.41.86-.76,1.31-1.14a14.5,14.5,0,0,1,2.89-1.92,5.07,5.07,0,0,1,2.56-.56,1.93,1.93,0,0,1,1.05.28,6.37,6.37,0,0,0-3.44.84,15.56,15.56,0,0,0-2.7,2.07c-.41.39-.86.8-1.23,1.18-.47.53-.35.44-.37.53h.09a3.73,3.73,0,0,1,.54.16,6.77,6.77,0,0,1,1.05.46,6.42,6.42,0,0,1,1.52,1.15,5.62,5.62,0,0,1,1,1.38,5.48,5.48,0,0,1,.35.82,4.24,4.24,0,0,1,.26,1.1,2.57,2.57,0,0,1-.35,1.62,2.68,2.68,0,0,1-1.16.87,12,12,0,0,1-1.28.37,2.86,2.86,0,0,1-1.48,0,4.37,4.37,0,0,1-.71-.32c-.23-.11-.2-.11-.28,0a.28.28,0,0,0,0,.12v.4a5.54,5.54,0,0,0,.1.83,3.55,3.55,0,0,0,.54,1.39,1.65,1.65,0,0,0,2,.55A12.13,12.13,0,0,0,179.55,91.09Z"/><path class="cls-13" d="M102.81,89a8.05,8.05,0,0,1-8.13,8h0a8.06,8.06,0,0,1-8.12-8h0a8,8,0,0,1,8.13-8h0a8.05,8.05,0,0,1,8.12,8Z"/><path class="cls-13" d="M149.65,89a8,8,0,0,1-8.13,8h0a8.05,8.05,0,0,1-8.12-8h0a8.07,8.07,0,0,1,8.14-8h0a8,8,0,0,1,8.11,8Z"/><path class="cls-14" d="M136.28,90a1.55,1.55,0,0,1-.31,0,1.16,1.16,0,0,1-.84-1.43,8,8,0,0,1,6.22-5.69,1.19,1.19,0,0,1,1.36,1,1.16,1.16,0,0,1-1,1.33,5.59,5.59,0,0,0-4.29,4A1.21,1.21,0,0,1,136.28,90Z"/><path class="cls-14" d="M88.89,89.94a1.06,1.06,0,0,1-.31,0,1.16,1.16,0,0,1-.84-1.43A8,8,0,0,1,94,82.78a1.2,1.2,0,0,1,1.36,1,1.17,1.17,0,0,1-1,1.33,5.59,5.59,0,0,0-4.3,4A1.18,1.18,0,0,1,88.89,89.94Z"/><path class="cls-15" d="M115.78,105c-.73-.35-1.51-.26-1.75.21s-.07.88.73.71c.5-.11.71-.51,1.95.56C117.1,106.77,116.53,105.3,115.78,105Z"/><path class="cls-15" d="M120.76,105c-.73.35-1.3,1.82-.91,1.48,1.23-1.07,1.45-.67,2-.57.8.17,1-.25.72-.71S121.5,104.64,120.76,105Z"/><g class="cls-16"><path class="cls-17" d="M140.38,53.4s11.79,42.84,1.2,66.8l7.84,8.36L187,121.82s12.28-26.23,12.28-27.29,7.95-28,5.79-28.36-24.93-9.93-24.93-9.93Z"/></g><g class="cls-18"><path class="cls-19" d="M110.66,110.18a21.88,21.88,0,0,0,8.72.27c5.29-.78,9.52-4.93,10.84-2.86s-.79,8.57-9.78,9.08C120.44,116.67,108.54,118,110.66,110.18Z"/><path class="cls-2" d="M110.66,110.18a21.88,21.88,0,0,0,8.72.27c5.29-.78,9.52-4.93,10.84-2.86s-.79,8.57-9.78,9.08C120.44,116.67,108.55,118,110.66,110.18Z"/><g class="cls-20"><path class="cls-21" d="M118.72,110.18s-6.87,1.82-6.87,5.32l2.24,2h10.45l5.28-2.46,2.26-6.49-1.2-2.47-2.38-.25Z"/></g></g><path class="cls-22" d="M123.48,104.16c-.45-.83-.88-1.58-1.24-2.21a7.86,7.86,0,0,0-7.94,0c-.36.63-.78,1.38-1.23,2.19-1.27,2.31.72,3.19.72,3.19h9S124.75,106.47,123.48,104.16Z"/><path class="cls-4" d="M89.32,210.21a204.52,204.52,0,0,0-23.3,56c-8.22,32.84-12.21,67-12.21,67l10.88,2.16,17.46-65.34,29.45-48.38Z"/><path class="cls-23" d="M50.39,325.09s2.12,7.1-8.23,5.07-30.35-8.24-32.28,3.44c0,0,52.26,18.4,55.7,17.81,0,0,5.28-10.9,3-23C68.55,328.38,51,323.32,50.39,325.09Z"/><path class="cls-24" d="M20.09,324.59s8,1.62,6.21,12.64c0,0,39.14,10.53,41.41,9.4a20,20,0,0,1-2.6,6.26c-1.69,2.24-54.88-15.69-54.88-15.69S4.46,326.08,20.09,324.59Z"/><path class="cls-24" d="M33.06,328.27s3.87,4,3.76,7.23,3,.95,3,.95-1.05-6.82-3.47-8.06Z"/><path class="cls-24" d="M40.46,328.78s3.88,4,3.76,7.23,3,.95,3,.95-1.05-6.82-3.47-8.06Z"/><path class="cls-25" d="M149.89,214.45l-1.16-14.06a94,94,0,0,1-31.08,5.55v12.67h0l4.67.42,11.45,50.79-3.39,42.87,18.24.84s5.09-30.39,5.94-48.29S149.89,214.45,149.89,214.45Z"/><path class="cls-26" d="M131.44,296.87l-1.06,15.82,18.24.84,2.23-15.41S143.85,293.44,131.44,296.87Z"/><path class="cls-25" d="M86.29,211.87,91.81,199a92.41,92.41,0,0,0,27.82,14.57l-.62,4.68-1.15,3.27-6.79,3.07L84.14,269.41l-10.31,41.8-17.61-4.75S61,276,65.82,258.74,86.29,211.87,86.29,211.87Z"/><path class="cls-26" d="M77.82,295.85l-4,15.36-17.61-4.75L59,291.13S67.1,288.81,77.82,295.85Z"/><path class="cls-23" d="M148.6,333s-4.26,6.12,6.23,7.33,31.45,1.39,29.6,13.08c0,0-55.5,1.61-58.59,0,0,0-1.57-12,4.46-22.8C130.3,330.62,148.54,331.13,148.6,333Z"/><path class="cls-24" d="M177.57,341.74s-8.1-.88-9.9,10.14c0,0-40.54-1.89-42.34-3.65a19.89,19.89,0,0,0,.5,6.74c.9,2.65,57.13,1.76,57.13,1.76S192,347.92,177.57,341.74Z"/><path class="cls-24" d="M164.07,341.3s-4.95,2.65-5.85,5.74-3.15,0-3.15,0,3.15-6.18,5.85-6.62Z"/><path class="cls-24" d="M156.87,339.54s-5,2.65-5.85,5.73-3.15,0-3.15,0,3.15-6.17,5.85-6.61Z"/><path class="cls-4" d="M50,200.94l-2,5.92s10.25,2.69,8.72,9.52c0,0-1.92,5.9-3.4,4.78s1.41-6.94-2.38-7.43-4.23,5-2.21,7.06c0,0,3.57,5.7,6.83,7,0,0,.38,1.31-1.6,1.27s-5.71-1.24-7.36-3.47c0,0,2.65,5.48,6.25,6,0,0,0,1.18-2.14.86s-6.59-2.37-7.43-4.68a9.17,9.17,0,0,0,.5,3.08s-.72.55-1.57-.68S40,222.77,40.47,219a45.36,45.36,0,0,0,.32-7.19s-.92-1.12-.3-4,3-10.64,3-10.64Z"/><path class="cls-27" d="M47.14,226.14a14.18,14.18,0,0,1-3.75-6.73"/><path class="cls-27" d="M43.18,227.71a8.12,8.12,0,0,1-1.2-4.29"/><path class="cls-4" d="M92.89,131s-38.57,16.71-49.41,66.24l6.5,3.75s19.58-46.64,44.4-59.13Z"/><path class="cls-4" d="M151.1,134.44s41.43-7.7,63.42-53.53l-5.46-5.1s-29.84,41.08-56.9,47.73Z"/><path class="cls-4" d="M146.64,136.08c-3.12-6.57-14.68-11.44-28.46-11.44s-25.35,4.87-28.47,11.44Z"/><path class="cls-28" d="M128.85,123.4a15.13,15.13,0,0,1-21.35,0c-6.06,1.53-23.74,7.1-35.57,22.42,0,0,7.89,10.4,8.33,15L89,156.22l-6.58,62s22.68,5.38,35.73,4.69c13,.69,35.72-4.69,35.72-4.69l-6.54-61.68C142.76,128.75,128.85,123.4,128.85,123.4Z"/><path class="cls-28" d="M129,123.49a164.37,164.37,0,0,1,29.27-3.43l4.78,15.71-21.22,11.66Z"/><path class="cls-29" d="M144.19,169.48a1.16,1.16,0,1,1-1.15-1.1A1.13,1.13,0,0,1,144.19,169.48Zm-2,0a.86.86,0,0,0,.88.88.88.88,0,0,0,0-1.76A.86.86,0,0,0,142.16,169.48Zm.7.58h-.26V169a2.31,2.31,0,0,1,.43,0,.68.68,0,0,1,.39.08.32.32,0,0,1,.11.24.29.29,0,0,1-.23.26h0a.31.31,0,0,1,.2.27,1.53,1.53,0,0,0,.08.28h-.28a1.35,1.35,0,0,1-.09-.27.2.2,0,0,0-.23-.18h-.12Zm0-.63H143c.14,0,.26-.05.26-.16s-.08-.17-.24-.17l-.15,0Z"/><path class="cls-30" d="M95.17,150.14c0-4.58,1.31-6.7,4.38-6.7s4,2.43,3.88,5.31c-2.14,0-3.57-.08-3.57-.08,0-2-.09-2.51-.48-2.51s-.59.83-.55,4c0,3.33.15,3.84.54,3.84s.51-.45.48-2.86c1.9-.07,3.61-.06,3.61-.06,0,4.53-1.79,5.67-4.13,5.66C96.37,156.74,95.17,154.89,95.17,150.14Z"/><path class="cls-30" d="M104.76,143.85h3.34s0,6.07.09,12.61c0,0-1.11,0-3.36,0C104.83,156.45,104.85,150.9,104.76,143.85Z"/><path class="cls-30" d="M109.39,144.29c1.89,0,3.34-.06,3.34-.06.23,4.82.48,8.16.61,9.72.58-6.89.71-10.2.71-10.2,2.23,0,3.47,0,3.47,0-1.48,10.42-1.76,13-1.76,13s-2.32,0-4.89-.07C110,149,109.39,144.29,109.39,144.29Z"/><path class="cls-30" d="M118.72,144.32h3.34s0,5.31.09,11.85c0,0-1.11,0-3.36,0C118.79,156.16,118.81,151.37,118.72,144.32Z"/><path class="cls-30" d="M123.54,150.12c0-4.31,1.23-6.52,4.41-6.52,2.83,0,4,2.07,3.93,5.11-2.14,0-3.56,0-3.56,0,0-2.12-.2-2.44-.54-2.44s-.62,1-.59,3.82c0,3,.19,3.7.58,3.7s.57-.35.53-2.43c1.88,0,3.62-.16,3.62-.16,0,3.71-1.24,5.4-4.15,5.38C125.31,156.63,123.54,155.27,123.54,150.12Z"/><path class="cls-30" d="M134.51,143.78c2.67-.11,4.72-.07,4.72-.07s.85,6.09,2.07,13c0,0-1.37,0-3.53,0,0,0,0-.6-.14-2-.34,0-.91,0-1.55,0l-.12,1.52s-1-.05-3.3,0C132.66,156.16,133.47,151.36,134.51,143.78Zm1.77,8.25h1.12c-.29-3.07-.57-5.57-.57-5.57C136.72,147.44,136.5,149.42,136.28,152Z"/><path class="cls-19" d="M96.24,158.26s2.12,0,4.65,0c0,0,.33,3,.81,6.34.28-1.91.59-4.41.81-6.92l4.82.16s0,5.05.54,13c0,0-1.77.09-3.44.15,0,0,.1-4-.11-9.53-.33,2-.74,4.93-.94,7.43,0,0-1.72,0-3.29-.09,0,0-.24-2.45-.9-6.67,0,2.17,0,5.16.07,8.35l-3.5-.07S96.07,165.16,96.24,158.26Z"/><path class="cls-19" d="M109.16,157.93l6-.05s0,1.32,0,3.21c0,0-1.77,0-2.75,0,0,.94,0,1.69,0,1.69s.83,0,2.29,0c0,0,0,1.28,0,3.06,0,0-1,0-2.23,0,0,0,0,.62.06,1.6,0,0,1,.07,2.58.12,0,0,0,1,0,3,0,0-2.71-.09-5.83-.13C109.31,170.47,109.27,165.24,109.16,157.93Z"/><path class="cls-19" d="M116.51,158.44s1.33-.09,3.14-.14c0,0,.78,2.3,2.2,6.16-.08-1.47-.22-3.72-.48-6.87,0,0,1.14.07,3,0,0,0,.09,4.84.33,12.92,0,0-.92.15-3,.31,0,0-.93-2.57-2.31-6.21,0,1.25.11,3,.28,5.59,0,0-1.22-.05-3.12-.05C116.57,170.2,116.64,165.76,116.51,158.44Z"/><path class="cls-19" d="M125.91,158s2.49,0,7.28-.07c0,0-.08,1.18-.06,3.21,0,0-.74,0-2,0,0,2.05,0,4.93.08,9.55,0,0-1.09,0-3.33,0,0,0,0-3.71,0-9.56l-2,0S126,160.29,125.91,158Z"/><path class="cls-19" d="M134.39,158.11s1.55,0,5.92-.1c0,0,0,1.32,0,3.2,0,0-1.48,0-2.66.11,0,0,0,.65,0,1.72.13,0,.74,0,2.2,0,0,0,0,1.2,0,3,0,0-.91,0-2.15,0,0,0,0,.6.06,1.39,0,0,1,0,2.49,0,0,0,0,1,0,3l-5.75-.07S134.5,165.42,134.39,158.11Z"/><g class="cls-31"><path class="cls-4" d="M90.52,110.08A20.48,20.48,0,1,1,111,89.6a20.51,20.51,0,0,1-20.48,20.48Zm0-38.09a17.61,17.61,0,1,0,17.6,17.61A17.62,17.62,0,0,0,90.52,72Z"/><path class="cls-4" d="M145.36,110.08A20.48,20.48,0,1,1,165.84,89.6a20.51,20.51,0,0,1-20.48,20.48Zm0-38.09A17.61,17.61,0,1,0,163,89.6,17.63,17.63,0,0,0,145.36,72Z"/><path class="cls-4" d="M125.87,91a11.59,11.59,0,0,0-15.76,0l-1.76-2.19a14.18,14.18,0,0,1,19.28,0L125.87,91Z"/></g><path class="cls-32" d="M90.57,108.38A20.48,20.48,0,1,1,111.05,87.9a20.51,20.51,0,0,1-20.48,20.48Zm0-38.09a17.61,17.61,0,1,0,17.6,17.61,17.62,17.62,0,0,0-17.6-17.61Z"/><path class="cls-32" d="M145.41,108.38A20.48,20.48,0,1,1,165.89,87.9a20.51,20.51,0,0,1-20.48,20.48Zm0-38.09A17.61,17.61,0,1,0,163,87.9a17.63,17.63,0,0,0-17.61-17.61Z"/><path class="cls-32" d="M125.92,89.34a11.59,11.59,0,0,0-15.76,0l-1.76-2.19a14.18,14.18,0,0,1,19.28,0l-1.76,2.19Z"/></g></g></g></svg>