<?xml version="1.0" encoding="UTF-8"?>
<svg width="66px" height="66px" viewBox="0 0 66 66" version="1.1" xmlns="http://www.w3.org/2000/svg" xmlns:xlink="http://www.w3.org/1999/xlink">
    <title>TOF ICON</title>
    <defs>
        <linearGradient x1="50%" y1="-41.6664563%" x2="50%" y2="96.7727858%" id="linearGradient-1">
            <stop stop-color="#FC6E51" offset="0%"></stop>
            <stop stop-color="#DB391F" offset="100%"></stop>
        </linearGradient>
        <linearGradient x1="59.1939665%" y1="9.94174615%" x2="43.732762%" y2="66.5358411%" id="linearGradient-2">
            <stop stop-color="#A0D468" offset="0%"></stop>
            <stop stop-color="#6EAF27" offset="100%"></stop>
        </linearGradient>
        <path d="M52.8600992,50.2701016 L53.3600867,50.2694012 C53.4447537,50.2693404 53.5300504,50.2693089 53.6159196,50.2693089 L53.5014274,44.0693961 C54.5422658,44.0608172 55.4543136,44.0574377 56.2200482,44.0568941 L56.8692318,44.0571068 C58.0190603,44.0587139 58.7308519,44.0664679 58.9185182,44.068758 L58.9684311,44.0693961 L58.9684311,44.0693961 C58.9418526,42.8995821 58.9337841,41.9311526 58.932767,41.2292743 L58.9330487,40.7867445 C58.9341752,40.3884015 58.9374141,40.1250216 58.9389631,40.0182281 L58.9397038,39.9704677 C58.9397716,39.966453 58.9398081,39.9644309 58.9398081,39.9644309 C57.2224247,40.0083604 56.0104544,40.0219937 55.1375386,40.0249188 L54.3714795,40.0250001 C54.1053341,40.0241852 53.8845648,40.0227017 53.698525,40.0218033 L53.5236672,40.0211463 C53.4963222,40.0210848 53.4698433,40.0210511 53.4441812,40.0210511 C53.4181603,38.4382589 53.4098809,37.2298152 53.4085906,36.3824263 L53.4088455,35.7812882 C53.410072,35.300389 53.4135152,35.0117507 53.4149345,34.9101307 L53.4154825,34.8732174 C53.4155319,34.8701459 53.4155582,34.8686121 53.4155582,34.8686121 C56.1525413,34.8020451 58.6257699,34.7876522 59.5673217,34.7845402 L59.9635786,34.7836834 C59.9680009,34.7836818 59.9702381,34.7836818 59.9702381,34.7836818 C59.9504981,32.9679302 59.9443718,31.6503827 59.9424706,31.0074767 L59.9416162,30.5711094 C59.941615,30.5673613 59.941615,30.5654762 59.941615,30.5654762 C54.5085349,30.6441154 49.5417082,30.6984832 48.8356932,30.7061062 L48.75,30.7070267 L48.75,30.7070267 C48.9343771,39.916267 48.9702947,46.9963811 48.9772916,49.405385 L48.9778825,49.6238471 C48.9779673,49.6577986 48.9780455,49.6905137 48.9781177,49.7219816 L48.9789845,50.297619 L48.9789845,50.297619 L49.0392646,50.2968264 C49.3566371,50.2927497 50.8940387,50.2741783 52.8600992,50.2701016 Z" id="path-3"></path>
        <filter x="-17.8%" y="-5.1%" width="135.6%" height="120.3%" filterUnits="objectBoundingBox" id="filter-4">
            <feOffset dx="0" dy="1" in="SourceAlpha" result="shadowOffsetOuter1"></feOffset>
            <feGaussianBlur stdDeviation="0.5" in="shadowOffsetOuter1" result="shadowBlurOuter1"></feGaussianBlur>
            <feColorMatrix values="0 0 0 0 0   0 0 0 0 0   0 0 0 0 0  0 0 0 0.3 0" type="matrix" in="shadowBlurOuter1"></feColorMatrix>
        </filter>
        <path d="M15.6559569,37.1428571 C15.6559569,37.1428571 17.1177615,29.8987516 19.7321429,16.6654249 L19.7262065,16.6655101 L19.6792761,16.6661228 C19.5510738,16.6677024 19.1934859,16.6714829 18.6479594,16.6723675 L18.1605235,16.6723416 C17.3396708,16.6709746 16.2326987,16.6626649 14.9250546,16.6369048 C14.9250546,16.6369048 14.0551222,22.1845059 12.5489705,31.3591241 L12.3295032,32.6942501 C12.3046427,32.8452928 12.2796247,32.9972264 12.2544501,33.150043 C12.217425,32.9476199 12.1776908,32.7284003 12.1354787,32.4932221 L12.0478191,32.001836 C11.5028612,28.9288306 10.62329,23.6382417 9.8087385,17.5780681 C9.8087385,17.5780681 8.08664539,17.6279857 5.56302506,17.6344267 L5.0297619,17.6351083 L5.0297619,17.6351083 C5.0297619,17.6351083 6.6883479,25.3355355 8.88105481,37.0572968 L9.41536861,37.0697965 C11.9863501,37.1270602 14.360844,37.1394416 15.2674602,37.1421186 L15.6559569,37.1428571 L15.6559569,37.1428571 Z" id="path-5"></path>
        <filter x="-13.6%" y="-4.9%" width="127.2%" height="119.5%" filterUnits="objectBoundingBox" id="filter-6">
            <feOffset dx="0" dy="1" in="SourceAlpha" result="shadowOffsetOuter1"></feOffset>
            <feGaussianBlur stdDeviation="0.5" in="shadowOffsetOuter1" result="shadowBlurOuter1"></feGaussianBlur>
            <feColorMatrix values="0 0 0 0 0   0 0 0 0 0   0 0 0 0 0  0 0 0 0.3 0" type="matrix" in="shadowBlurOuter1"></feColorMatrix>
        </filter>
        <circle id="path-7" cx="32.5" cy="32.5" r="14.3154762"></circle>
        <filter x="-10.5%" y="-10.5%" width="121.0%" height="121.0%" filterUnits="objectBoundingBox" id="filter-8">
            <feOffset dx="0" dy="0" in="SourceAlpha" result="shadowOffsetOuter1"></feOffset>
            <feGaussianBlur stdDeviation="1" in="shadowOffsetOuter1" result="shadowBlurOuter1"></feGaussianBlur>
            <feColorMatrix values="0 0 0 0 0   0 0 0 0 0   0 0 0 0 0  0 0 0 0.2 0" type="matrix" in="shadowBlurOuter1"></feColorMatrix>
        </filter>
        <linearGradient x1="50.0033154%" y1="0.000512507679%" x2="50.0033154%" y2="100%" id="linearGradient-9">
            <stop stop-color="#F0BA58" offset="0%"></stop>
            <stop stop-color="#E3832A" offset="100%"></stop>
        </linearGradient>
    </defs>
    <g id="Dashboard" stroke="none" stroke-width="1" fill="none" fill-rule="evenodd">
        <g id="Dashboard-2021" transform="translate(-620.000000, -91.000000)">
            <g id="TOF-ICON" transform="translate(621.000000, 92.000000)">
                <g id="Group-3" transform="translate(-13.541667, -13.541667)">
                    <path d="M55.7426888,74.1437964 C73.6919432,74.1437964 88.2426888,59.5930507 88.2426888,41.6437964 C88.2426888,23.694542 75.4092936,48.8863698 57.4600392,48.8863698 C39.5107848,48.8863698 23.2426888,23.694542 23.2426888,41.6437964 C23.2426888,59.5930507 37.7934345,74.1437964 55.7426888,74.1437964 Z" id="Oval" fill="url(#linearGradient-1)" transform="translate(55.742689, 54.667312) rotate(-48.000000) translate(-55.742689, -54.667312) "></path>
                    <path d="M36.7529242,56.2294081 C54.7021786,56.2294081 69.2529242,41.6786624 69.2529242,23.7294081 C69.2529242,5.78015369 56.4195289,30.9719815 38.4702746,30.9719815 C20.5210202,30.9719815 4.2529242,5.78015369 4.2529242,23.7294081 C4.2529242,41.6786624 18.8036698,56.2294081 36.7529242,56.2294081 Z" id="Oval-Copy" fill="url(#linearGradient-2)" transform="translate(36.752924, 36.752924) rotate(-225.000000) translate(-36.752924, -36.752924) "></path>
                </g>
                <g id="F" fill-rule="nonzero">
                    <use fill="black" fill-opacity="1" filter="url(#filter-4)" xlink:href="#path-3"></use>
                    <use fill="#FFFFFF" xlink:href="#path-3"></use>
                </g>
                <g id="V" fill-rule="nonzero">
                    <use fill="black" fill-opacity="1" filter="url(#filter-6)" xlink:href="#path-5"></use>
                    <use fill="#FFFFFF" xlink:href="#path-5"></use>
                </g>
                <g id="Oval">
                    <use fill="black" fill-opacity="1" filter="url(#filter-8)" xlink:href="#path-7"></use>
                    <use fill="#FFFFFF" fill-rule="evenodd" xlink:href="#path-7"></use>
                </g>
                <g id="Group" transform="translate(21.582448, 19.732143)" fill-rule="nonzero">
                    <g id="isotipo-smarty">
                        <path d="M10.281375,5.72636834 C10.1241579,5.57543999 9.82858991,5.30712287 9.19657744,5.30712287 C8.62081004,5.30695821 8.11692976,5.69406215 7.96871243,6.25042511 C7.99925778,6.25496915 8.02361842,6.27827976 8.02950301,6.30859541 C8.03474358,6.33479825 8.15632475,6.93327108 8.69348294,6.99668195 C8.73396886,7.00161209 8.76321192,7.03781779 8.75951409,7.07843481 C8.75549849,7.11623687 8.7236368,7.14493499 8.68562209,7.14499002 L8.67776124,7.14499002 C8.03212329,7.06795367 7.88643551,6.34580344 7.88381523,6.33741853 C7.88105339,6.32040976 7.88380806,6.30296352 7.89167608,6.28763314 C7.50110328,6.04057432 7.00691773,6.02605346 6.60251244,6.2497531 C6.19810714,6.47345274 5.94779091,6.8998 5.94952169,7.36194952 C5.94964317,7.5389221 5.98751954,7.71383231 6.06062172,7.8750011 C6.09335221,7.85758281 6.13389995,7.86671719 6.15600005,7.89648743 C6.16386091,7.90696856 6.65332993,8.52063904 7.9472261,8.32254558 C7.96698053,8.3190953 7.9872836,8.3239414 8.00335015,8.33594173 C8.01941671,8.34794206 8.02982549,8.36603505 8.03212329,8.38595645 C8.03773465,8.4267201 8.00942859,8.46438353 7.96871243,8.47032959 C7.79535999,8.4977812 7.62016636,8.51197188 7.44465565,8.51277819 C6.44161099,8.51277819 6.05538115,8.01020775 6.03703917,7.98872142 C6.02186544,7.9702451 6.01767277,7.94508908 6.02603397,7.92269027 C5.63793369,7.78953668 5.20937136,7.85270691 4.87619589,8.09217677 C4.54302043,8.33164664 4.34654591,8.71772165 4.34905231,9.12802084 C4.34909521,9.4285736 4.45609796,9.71930156 4.65090901,9.94816969 C4.66004717,9.93851976 4.67194475,9.93193034 4.6849727,9.92930364 C4.80707793,9.89786024 7.67786092,9.18619114 8.24436629,10.6467374 C8.48490834,11.2687927 8.23650544,11.6099537 8.06409076,11.7582618 C7.86147949,11.9225232 7.60745003,12.0101068 7.34665704,12.0056166 C7.20700887,12.0095629 7.0686626,11.9778172 6.94470549,11.9133826 C6.799759,11.8444588 6.7185332,11.6873651 6.74608798,11.529249 C6.75352639,11.4883321 6.79266601,11.4611453 6.83360546,11.4684584 C6.85339247,11.4717672 6.87100532,11.482925 6.88245031,11.4994019 C6.8938953,11.5158787 6.89820279,11.5362786 6.89439604,11.5559759 C6.87815028,11.6513542 6.92059888,11.7278665 7.0185975,11.7834165 C7.24341785,11.908142 7.6962029,11.8735543 7.96609214,11.6382528 C8.13798276,11.4873244 8.30201253,11.2011894 8.10339502,10.6949506 C7.58248259,9.35860582 4.74943168,10.0624141 4.71903639,10.0702749 C4.70013022,10.0753787 4.67996827,10.0727124 4.66303868,10.0628697 C4.64610908,10.0530269 4.63381697,10.0368245 4.62889862,10.0178692 C4.11322676,10.1845193 3.55458224,10.5943317 3.48069024,11.4548329 C3.42828456,12.0664072 3.75057947,12.6564951 4.32756598,12.7780762 C4.3988377,12.8231451 5.14771483,12.7539696 5.25095401,12.7408682 C6.22465149,12.6035653 9.23378547,12.5343899 9.23378547,12.5343899 C9.23378547,12.5343899 10.5727505,12.5715979 10.5727505,11.1136719 C10.5727505,9.65574601 10.5753708,7.19687164 10.5753708,6.70478233 C10.5706543,6.32169683 10.5706543,6.00411843 10.281375,5.72636834 Z" id="Path" fill="#54585E"></path>
                        <path d="M18.0091161,11.529249 C17.9378444,10.6666515 17.380248,10.2568391 16.863528,10.0901891 C16.8518953,10.1284341 16.8119565,10.1504933 16.7733902,10.1399745 C16.7445671,10.1321136 13.9104681,9.42568509 13.3890316,10.7620299 C13.1904141,11.2729852 13.3518236,11.5585961 13.5242383,11.705332 C13.7941275,11.9406335 14.2463885,11.9778416 14.4712088,11.8504958 C14.5692075,11.7949457 14.6116561,11.7210537 14.5959344,11.6230551 C14.5892369,11.5823662 14.6162138,11.5437615 14.6567249,11.5360617 C14.6760202,11.532591 14.6958978,11.5371026 14.7118041,11.548563 C14.7277104,11.5600235 14.7382823,11.5774506 14.7410981,11.5968523 C14.767825,11.7540693 14.6934089,11.8929444 14.5403843,11.9778416 C14.4150102,12.0415351 14.2758863,12.0733914 14.1352885,12.0705996 C13.8741639,12.0730647 13.6207829,11.981974 13.4209991,11.8138118 C13.2512047,11.6655037 13.0017537,11.3217225 13.2433438,10.7022874 C13.8198063,9.24960201 16.6890171,9.96389139 16.8105983,9.99585885 C16.8227576,9.99886816 16.8338315,10.005222 16.8425657,10.0142008 C17.1639785,9.63747615 17.2369454,9.10822119 17.0294616,8.65857898 C16.8219777,8.20893677 16.3719338,7.92102106 15.8767291,7.9211181 C15.7387794,7.92084439 15.6017901,7.94405992 15.4716332,7.98976953 C15.4801218,8.0122505 15.4761391,8.03754073 15.4611521,8.05632474 C15.442286,8.0799073 15.0534359,8.58038151 14.0503913,8.58038151 C13.8749022,8.57955212 13.6997235,8.56553783 13.5263345,8.53845697 C13.499063,8.53560395 13.4755272,8.51808436 13.4649694,8.49277811 C13.4544117,8.46747187 13.458518,8.43842001 13.4756757,8.41703115 C13.4928335,8.39564229 13.5203029,8.38533192 13.5472968,8.39014891 C14.8464335,8.58876642 15.3359025,7.97090349 15.3385228,7.96671103 C15.3602408,7.93811244 15.3993755,7.92926844 15.4312808,7.94574876 C15.6603643,7.43543573 15.5278961,6.83529226 15.1052833,6.4688266 C14.6826705,6.10236095 14.0698169,6.05620389 13.5970821,6.35523646 C13.6067838,6.37088581 13.6096262,6.38983506 13.604943,6.40764214 C13.6023227,6.41550299 13.4540146,7.13765322 12.8083767,7.21206928 L12.8005159,7.21206928 C12.7630333,7.2111371 12.7317484,7.18318044 12.7266239,7.14603813 C12.7234846,7.12619848 12.7288628,7.1059552 12.741435,7.09028977 C12.7540073,7.07462435 12.7726062,7.06499133 12.792655,7.06376122 C13.3298132,7.00035035 13.4566349,6.38248742 13.4566349,6.37829496 C13.4626627,6.3480577 13.4869522,6.32481522 13.5174255,6.32012466 C13.3687783,5.76427017 12.8654712,5.37744153 12.2900846,5.37682247 C11.657548,5.37682247 11.3635522,5.64671171 11.204763,5.79606789 C10.9139115,6.07434203 10.9139115,6.39139638 10.9139115,6.7645248 C10.9139115,7.25713817 10.9112912,9.71548848 10.9112912,11.1734144 C10.9112912,12.6313404 12.2502562,12.5967526 12.2502562,12.5967526 C12.2502562,12.5967526 15.2588662,12.673789 16.2330877,12.8110918 C16.3337066,12.8247173 17.0825837,12.895989 17.1564757,12.8482999 C17.7392269,12.7282909 18.0594256,12.1382029 18.0091161,11.529249 Z" id="Path" fill="#515960"></path>
                        <path d="M18.4671417,14.8266142 L18.4697643,9.70605546 C18.4723823,6.94375222 16.1937834,4.69974112 13.383791,4.69712084 L8.17623891,4.69188027 C5.36572244,4.69188027 3.08450332,6.92750646 3.08188303,9.69295404 L3.08188303,14.8135127 L18.4671417,14.8266142 Z" id="Path" fill="#84CCC9" opacity="0.2"></path>
                        <path d="M17.0804875,21.5387333 C12.8880333,22.1576443 9.00162832,22.1550241 4.18292631,21.5303484 C3.49221949,21.5303484 4.18816688,14.465015 4.18816688,14.465015 L17.0857281,14.4760202 C17.0857281,14.4718277 18.2470379,21.2012407 17.0804875,21.5387333 Z" id="Path" fill="#FCE1D2"></path>
                        <path d="M9.44288412,20.9303034 C9.44288412,20.9303034 9.90772248,21.3752276 11.2309658,21.1713695 C12.5542092,20.9675114 12.8251465,20.4114872 12.8251465,20.4114872 C12.8251465,20.4114872 11.2293937,21.1718936 9.44288412,20.9303034 Z" id="Path" fill="#CE602A"></path>
                        <path d="M8.59967726,17.4144065 C8.59967726,18.0444925 8.08889117,18.5552786 7.45880519,18.5552786 L7.45880519,18.5552786 C7.15642975,18.555559 6.86640401,18.4353497 6.65288745,18.2212431 C6.43937088,18.0071364 6.31996254,17.71678 6.32107019,17.4144065 L6.32107019,17.4144065 C6.32079763,17.1121222 6.44093499,16.8221764 6.65492808,16.608675 C6.86892117,16.3951736 7.15914261,16.2757036 7.46142547,16.2766733 L7.46142547,16.2766733 C7.76334552,16.2762615 8.05302749,16.395978 8.26656656,16.6094187 C8.48010563,16.8228595 8.59995546,17.1124863 8.59967726,17.4144065 L8.59967726,17.4144065 Z" id="Path" fill="#29282F"></path>
                        <path d="M15.1697809,17.4201711 C15.1697809,17.7226101 15.0496331,18.012662 14.8357765,18.2265186 C14.6219198,18.4403752 14.331868,18.5605187 14.029429,18.5605187 L14.029429,18.5605187 C13.3996324,18.5605187 12.8890804,18.0499677 12.8890804,17.4201711 L12.8890804,17.4201711 C12.8886617,17.1177961 13.0087375,16.8277153 13.2227457,16.6141004 C13.436754,16.4004855 13.7270552,16.2809437 14.029429,16.2819077 L14.029429,16.2819077 C14.3319307,16.280522 14.622477,16.3999283 14.836577,16.6136348 C15.0506771,16.8273412 15.1706177,17.1176673 15.1697809,17.4201711 L15.1697809,17.4201711 Z" id="Path" fill="#29282F"></path>
                        <path d="M14.0320493,21.8631244 C15.3788752,21.8107188 16.6439482,21.7279178 17.3398956,21.6535017 C18.6180701,21.5156748 18.5651403,20.23488 18.5651403,20.23488 L18.6364121,18.3351743 C19.354605,18.9173853 20.3987959,18.8535617 21.040735,18.1882159 C21.682674,17.52287 21.7090764,16.4770635 21.1015283,15.7801732 C20.4939803,15.0832828 19.45434,14.9668509 18.7076838,15.5120804 L18.7076838,14.6017938 C18.7076838,14.6017938 18.7637579,13.3236193 17.4855834,13.1831721 C16.2074089,13.0427249 12.8702154,12.8739786 10.7561704,12.9295287 C8.6442216,12.8713584 5.30597997,13.03434 4.02675739,13.1753113 C2.74753481,13.3162826 2.80151266,14.5902646 2.80151266,14.5902646 L2.80151266,15.471204 C2.05219274,14.9482639 1.02873842,15.0769203 0.432162604,15.7690504 C-0.164413217,16.4611804 -0.140719587,17.4924175 0.487014592,18.1564178 C1.11474877,18.8204182 2.14303199,18.9019341 2.86754382,18.3451313 L2.93671931,20.2212546 C2.93671931,20.2212546 2.87854901,21.5004771 4.15934376,21.6435446 C4.8364251,21.7174367 6.04856842,21.8007617 7.35609006,21.8531674 L6.99658711,20.0713743 C6.99658711,20.0713743 4.27149191,20.2092013 4.27149191,17.0653847 C4.27673247,13.929429 9.61687097,13.6176152 9.61110635,17.4170268 L11.8367755,17.4201711 C11.8367755,17.4201711 11.9216726,14.4084169 14.869492,14.7710642 C17.8173113,15.1337114 18.063094,19.8334526 14.546673,20.0530323 L14.0320493,21.8631244 Z" id="Path" fill="url(#linearGradient-9)"></path>
                        <path d="M13.2936533,17.5600943 C13.2793764,17.5596086 13.265171,17.5578548 13.2512047,17.5548537 C13.2086887,17.5433352 13.1725135,17.5153529 13.1506804,17.4770958 C13.1288474,17.4388388 13.1231556,17.3934597 13.1348641,17.3509956 C13.2448384,16.9342907 13.5848739,16.6181209 14.0084667,16.5387076 C14.0967986,16.5300354 14.1765907,16.5916919 14.1904834,16.6793544 C14.204376,16.7670169 14.1475574,16.8503233 14.0608724,16.8693875 C13.7670609,16.9292317 13.5328838,17.1510088 13.457159,17.4411334 C13.4331259,17.511247 13.3677603,17.5588047 13.2936533,17.5600943 Z" id="Path" fill="#DEE0DF"></path>
                        <path d="M6.64389691,17.5559018 C6.6296174,17.5554502 6.61540892,17.553696 6.60144831,17.5506613 C6.55885383,17.5392674 6.52258763,17.5113071 6.50073305,17.4730124 C6.47887847,17.4347176 6.473252,17.3892714 6.48510771,17.3468032 C6.59373536,16.9294901 6.9341315,16.612795 7.35818629,16.5345152 C7.40216226,16.5274607 7.44712917,16.5383599 7.48299482,16.5647664 C7.51886046,16.591173 7.54262073,16.6308752 7.54894295,16.6749624 C7.56192523,16.765192 7.5008997,16.8494212 7.41111602,16.865195 C7.11750596,16.925218 6.88356763,17.1469615 6.80792668,17.4369409 C6.78436311,17.5076267 6.71840549,17.5554618 6.64389691,17.5559018 Z" id="Path" fill="#DEE0DF"></path>
                        <path d="M10.42025,19.7008662 C10.3154386,19.6484605 10.2059108,19.6641822 10.1739433,19.7328337 C10.1419759,19.8014851 10.1634622,19.8570351 10.2745622,19.8334526 C10.3432137,19.8172068 10.3751811,19.7616568 10.5470717,19.9125851 C10.6026218,19.9602743 10.5229651,19.7511756 10.42025,19.7008662 Z" id="Path" fill="#29282F"></path>
                        <path d="M11.1198658,19.7045346 C11.0150544,19.7569403 10.93697,19.966563 10.99252,19.9141573 C11.1644106,19.7606087 11.1963781,19.819303 11.2650295,19.8324044 C11.3787498,19.855987 11.4002362,19.7978167 11.3656484,19.7317855 C11.3310607,19.6657544 11.2246771,19.6557973 11.1198658,19.7045346 Z" id="Path" fill="#29282F"></path>
                        <path d="M2.71451924,17.0391819 C2.71451924,17.2837483 2.61722299,17.5182674 2.4440919,17.6910052 C2.27096081,17.8637431 2.03622105,17.9605064 1.79165526,17.959952 L1.79165526,17.959952 C1.5467777,17.9603717 1.31185405,17.8630657 1.1389946,17.689616 C0.96613516,17.5161662 0.869630654,17.2809122 0.870875393,17.0360375 L0.870875393,17.0360375 C0.870875393,16.5275115 1.28312928,16.1152698 1.79165526,16.1152698 L1.79165526,16.1152698 C2.036366,16.1155475 2.27093596,16.2130608 2.44372679,16.3863431 C2.61651763,16.5596254 2.71336435,16.7944713 2.71294707,17.0391819 L2.71451924,17.0391819 Z" id="Path" fill="#CE602A"></path>
                        <path d="M20.7876689,17.0522833 C20.7883643,17.2973466 20.6912868,17.5325667 20.517951,17.7058042 C20.3446152,17.8790416 20.10934,17.9759856 19.8642771,17.9751526 L19.8642771,17.9751526 C19.6195767,17.975288 19.3848965,17.877964 19.2121132,17.704689 C19.0393299,17.531414 18.9426732,17.2964582 18.9435039,17.0517592 L18.9435039,17.0517592 C18.9429483,16.8068822 19.0401208,16.5719036 19.2134721,16.3989458 C19.3868234,16.225988 19.6220222,16.1293499 19.8668974,16.1304578 L19.8668974,16.1304578 C20.1115601,16.130745 20.3460763,16.228275 20.518784,16.4015724 C20.6914916,16.5748699 20.7882216,16.8097172 20.7876689,17.0543795 L20.7876689,17.0522833 Z" id="Path" fill="#CE602A"></path>
                        <path d="M9.40410392,4.73170859 C9.22382839,4.64943167 3.66411011,3.08826655 3.81765874,2.92947735 C3.97120738,2.77068815 10.854169,0 10.854169,0 C10.854169,0 18.4089714,2.35249085 18.4005935,2.5348626 C18.3922016,2.71723436 13.2805519,4.66410526 13.1877938,4.67877885 C13.0950358,4.69345244 9.40410392,4.73170859 9.40410392,4.73170859 Z" id="Path" fill="#2B2E2E"></path>
                        <path d="M13.9712587,4.36644102 C13.9607775,4.20241125 13.8664473,2.62500037 13.8664473,2.62500037 C13.8664473,2.62500037 13.5038,2.11456907 11.8315349,1.93167326 C10.1592697,1.74877745 8.27947809,2.46883145 8.19982146,2.5930329 C8.12016483,2.71723436 8.22654836,4.39002357 8.22654836,4.39002357 C8.22654836,4.39002357 8.94345802,3.94300315 10.7006204,3.85548567 C12.4577827,3.76796818 13.9712587,4.36644102 13.9712587,4.36644102 Z" id="Path" fill="#363A3B"></path>
                        <path d="M17.2895862,2.08522189 C17.2895862,2.08522189 17.4803428,1.97412186 17.5856782,2.04015301 C17.675816,2.09570303 17.6600943,5.84532922 17.6522334,6.95947392 C17.7059148,7.03974284 17.7460994,7.12825515 17.7711943,7.22150231 C17.804535,7.33415073 17.8099311,7.45322558 17.786916,7.56842789 L18.2260756,9.4497917 L18.0646661,9.27790108 C18.0313952,9.32501898 18.0014513,9.37440014 17.9750524,9.42568509 C17.9614269,9.46289312 17.7790552,9.26846805 17.7790552,9.26846805 C17.7245143,9.32488673 17.6740763,9.38513211 17.6281268,9.44874358 C17.6228863,9.47494642 17.4185041,9.25798692 17.4185041,9.25798692 C17.4185041,9.25798692 17.3288904,9.42463697 17.3100244,9.45660443 C17.2911583,9.4885719 17.1858229,9.2993874 17.1858229,9.2993874 L16.9893016,9.41258367 C16.9893016,9.41258367 17.3037357,7.82207137 17.3676706,7.41749954 C17.3698143,7.38973024 17.3743734,7.36220051 17.3812961,7.33522263 C17.4031726,7.20885572 17.4404853,7.08565368 17.4923961,6.96838289 C17.4950164,5.87048395 17.4976367,2.15754173 17.4761504,2.15230116 C17.454664,2.14706059 17.2895862,2.08522189 17.2895862,2.08522189 Z" id="Path" fill="#2B2E2E"></path>
                        <polygon id="Path" fill="#298CCD" points="11.758691 22.3950421 10.5575529 22.7519247 9.66560825 21.8709853 8.34550924 20.5634636 7.88486334 22.3976623 7.4247415 24.231337 9.20548641 23.7046599 10.4066245 23.3472532 11.2959489 24.2287167 12.6165719 25.5357143 13.0766938 23.7020396 13.53996 21.868365"></polygon>
                        <path d="M7.60868542,20.3716589 C6.64633401,20.3718708 5.77862407,19.7923275 5.41020124,18.9032915 C5.04177841,18.0142556 5.24520481,16.9908257 5.92561508,16.3102655 C6.60602534,15.6297053 7.62941042,15.4260535 8.5185275,15.7942805 C9.40764457,16.1625074 9.98737911,17.0300897 9.98737911,17.9924411 C9.98535986,19.305405 8.9216488,20.3693504 7.60868542,20.3716589 Z M7.60868542,15.9496678 C6.47991403,15.9496678 5.56486402,16.8647178 5.56486402,17.9934892 C5.56486402,19.1222606 6.47991403,20.0373106 7.60868542,20.0373106 C8.73745682,20.0373106 9.65250683,19.1222606 9.65250683,17.9934892 C9.65250683,17.4514341 9.43717627,16.9315801 9.0538854,16.5482893 C8.67059454,16.1649984 8.15074056,15.9496678 7.60868542,15.9496678 L7.60868542,15.9496678 Z" id="Shape" fill="#1F1C1F"></path>
                        <path d="M13.973879,20.3716589 C13.0115276,20.3718708 12.1438176,19.7923275 11.7753948,18.9032915 C11.406972,18.0142556 11.6103983,16.9908257 12.2908086,16.3102655 C12.9712189,15.6297053 13.994604,15.4260535 14.883721,15.7942805 C15.7728381,16.1625074 16.3525726,17.0300897 16.3525726,17.9924411 C16.3519945,19.3060027 15.2874403,20.3707914 13.973879,20.3716589 L13.973879,20.3716589 Z M13.973879,15.9496678 C12.8451076,15.9496678 11.9300576,16.8647178 11.9300576,17.9934892 C11.9300576,19.1222606 12.8451076,20.0373106 13.973879,20.0373106 C15.1026504,20.0373106 16.0177004,19.1222606 16.0177004,17.9934892 C16.015107,16.8657938 15.1015744,15.9522612 13.973879,15.9496678 L13.973879,15.9496678 Z" id="Shape" fill="#1F1C1F"></path>
                        <path d="M11.7115259,18.1617115 C11.1949614,17.6826871 10.3965119,17.6826871 9.87994747,18.1617115 C9.81129603,18.0773383 9.74526488,17.9924411 9.67661344,17.908068 C10.3081083,17.3232892 11.2833651,17.3232892 11.9148599,17.908068 C11.8462085,17.9898208 11.7801773,18.0773383 11.7115259,18.1617115 L11.7115259,18.1617115 Z" id="Path" fill="#1F1C1F"></path>
                    </g>
                </g>
            </g>
        </g>
    </g>
</svg>