<?xml version="1.0" encoding="utf-8"?>
<!-- Generator: Adobe Illustrator 25.2.3, SVG Export Plug-In . SVG Version: 6.00 Build 0)  -->
<svg version="1.1" id="Capa_1" xmlns="http://www.w3.org/2000/svg" xmlns:xlink="http://www.w3.org/1999/xlink" x="0px" y="0px"
	 viewBox="0 0 128 128" style="enable-background:new 0 0 128 128;" xml:space="preserve">
<style type="text/css">
	.st0{fill:#FDAD00;}
	.st1{fill:#32323F;}
	.st2{fill:#FEFEFE;}
	.st3{fill:#EAE6F1;}
	.st4{opacity:0.4;}
	.st5{fill-rule:evenodd;clip-rule:evenodd;fill:#4D4F7F;}
	.st6{opacity:0.4;fill-rule:evenodd;clip-rule:evenodd;fill:#4D4F7F;enable-background:new    ;}
</style>
<g>
	<g>
		<path class="st0" d="M30.1,69.5c2.2-0.3,3.6-0.5,3.6-0.5c0.3,1.9,1,2.6,2.1,2.5c0.9-0.1,1.6-0.9,1.3-2.9c-0.2-1.7-0.9-2.6-2-2.4
			c-0.9,0.1-1.3,0.9-1.4,2c0,0-1.6,0.1-3.5,0.2c0,0-0.4-3.8-1-8.5c0,0,3.6-0.5,9.6-1.5c0,0,0.1,0.8,0.4,2.9c0,0-2.5,0.3-6.3,1
			c0.1,0.7,0.2,1.7,0.4,3c0.6-0.9,1.5-1.5,2.9-1.7c2.9-0.4,4.3,1.6,4.7,4.4c0.5,3.7-1.3,5.6-4.6,6.1C32.5,74.7,30.5,73,30.1,69.5z"
			/>
		<path class="st0" d="M41.1,65.6c-0.7-5,1-7.8,4.5-8.3c3.7-0.5,6,1.7,6.7,6.6c0.7,5-0.8,8.1-4.5,8.6C44.4,73.1,41.8,70.7,41.1,65.6
			z M48.7,64.4c-0.4-3-1.4-4.5-2.6-4.3c-1.3,0.2-1.8,1.7-1.3,4.9c0.5,3.4,1.4,4.8,2.7,4.7C48.6,69.5,49.2,68.2,48.7,64.4z"/>
		<path class="st0" d="M55.6,55.2c1.9-0.2,3-0.4,3-0.4c-1.9,13.4-2.5,18.7-2.5,18.7c-1.8,0.2-3,0.4-3,0.4
			C54.5,64.1,55.6,55.2,55.6,55.2z"/>
		<path class="st0" d="M60.5,65.1c2.2-0.3,3.6-0.5,3.6-0.5c0.3,1.9,1,2.6,2.1,2.5c0.9-0.1,1.6-0.9,1.3-2.9c-0.2-1.7-0.9-2.6-2-2.4
			c-0.9,0.1-1.3,0.9-1.4,2c0,0-1.6,0.1-3.5,0.2c0,0-0.4-3.8-1-8.5c0,0,3.6-0.5,9.6-1.5c0,0,0.1,0.8,0.4,2.9c0,0-2.5,0.3-6.3,1
			c0.1,0.7,0.2,1.7,0.4,3c0.6-0.9,1.5-1.5,2.9-1.7c2.9-0.4,4.3,1.6,4.7,4.4c0.5,3.7-1.3,5.6-4.6,6.1C62.9,70.2,61,68.5,60.5,65.1z"
			/>
		<path class="st0" d="M71.6,61.2c-0.7-5,1-7.8,4.5-8.3c3.7-0.5,6,1.7,6.7,6.6c0.7,5-0.8,8.1-4.5,8.6C74.9,68.6,72.3,66.2,71.6,61.2
			z M79.1,60c-0.4-3-1.4-4.5-2.6-4.3c-1.3,0.2-1.8,1.7-1.3,4.9c0.5,3.4,1.4,4.8,2.7,4.7C79.1,65.1,79.7,63.8,79.1,60z"/>
	</g>
	<path class="st1" d="M37.5,56.8c0-14.2,0.1-28.4-0.1-42.7C37.3,8.1,41.8,4,47.6,4c17,0.2,33.9,0.1,50.9,0.1c6.2,0,9.9,3.7,9.9,9.9
		c0,28.6,0,57.2,0,85.8c0,6.2-3.7,9.9-10,9.9c-17,0-34-0.1-51,0c-6.2,0-10-4.5-10-9.9C37.6,85.4,37.5,71.1,37.5,56.8z"/>
	<path class="st0" d="M39.2,124.5c-4.7,0-8.5-3.4-9.1-7.8c-1.4-10.9-2.8-21.9-4.2-32.8c-1.6-12.6-3.2-25.2-4.8-37.7
		c-0.7-5.4-1.5-10.7-2.1-16.1c-0.7-5.7,3-9.8,9.3-10.6c1-0.1,1.9-0.2,2.9-0.3c1-0.1,1.8,0.2,2,1.4c0.1,1.2-0.6,1.7-1.6,1.8
		c-1.4,0.2-2.9,0.4-4.3,0.6c-3.6,0.6-5.5,3.4-5.1,7c1.5,11.7,3,23.3,4.5,35c1.6,12.5,3.2,25,4.8,37.6c0.6,4.6,1.2,9.1,1.9,13.7
		c0.5,3.5,3.2,5.4,6.7,5c7.9-1,15.8-2.1,23.7-3.1c8-1,15.9-2,23.9-3c1.4-0.2,2.9-0.4,4.3-0.6c1.1-0.1,2,0.2,2.1,1.4
		c0.1,1.3-0.7,1.6-1.8,1.8c-10.1,1.3-20.3,2.6-30.4,3.9c-7.1,0.9-14.2,1.9-21.3,2.8C39.9,124.5,39.4,124.5,39.2,124.5z"/>
	<path class="st2" d="M40.7,56.8c0-14.2,0-28.4,0-42.7c0-4.6,2.2-6.8,6.8-6.8c17,0,33.9,0,50.9,0c4.6,0,6.8,2.2,6.8,6.8
		c0,28.5,0,57,0,85.5c0,4.5-2.3,6.8-6.8,6.8c-17,0-33.9,0-50.9,0c-4.5,0-6.8-2.2-6.8-6.7C40.7,85.4,40.7,71.1,40.7,56.8z"/>
	<path class="st3" d="M59.1,18.3c-0.1,1-0.4,1.5-1,2c-1.5,1.5-2.9,3-4.4,4.4c-1.3,1.2-2.2,1.2-3.4,0c-1.5-1.5-3-2.9-4.4-4.4
		c-1.3-1.3-1.2-2.2,0.1-3.5c1.5-1.6,3.1-3.1,4.7-4.7c0.9-0.9,1.8-1.1,2.7-0.1c1.7,1.8,3.5,3.5,5.2,5.2C58.9,17.6,59.2,18,59.1,18.3z
		"/>
	<path class="st3" d="M93.9,88.2c0.6-0.1,1,0.2,1.4,0.6c1.6,1.6,3.2,3.2,4.8,4.8c1.2,1.2,1.2,2.1,0,3.3c-1.5,1.6-3.1,3.1-4.7,4.7
		c-1.2,1.1-2.1,1-3.2-0.1c-1.6-1.6-3.3-3.3-4.9-4.9c-0.9-0.9-1-1.7-0.1-2.6c1.8-1.8,3.6-3.6,5.3-5.3C93,88.3,93.4,88.1,93.9,88.2z"
		/>
	<path class="st2" d="M52,14.7c0.9,1.2,1.5,2,2.2,2.7c0.8,0.7,0.8,1.2,0,2c-2.5,2.4-2.4,2.4-4.9-0.3c-0.5-0.5-0.5-0.8,0-1.3
		C50.2,17,50.9,16,52,14.7z"/>
	<path class="st2" d="M96.9,95.1c-0.1,0.5-0.5,0.7-0.9,1.1c-2.6,2.6-2.6,2.6-4.9-0.2c-0.3-0.3-0.6-0.6-0.2-1.1
		c0.8-0.8,1.6-1.7,2.5-2.5c0.1-0.1,0.3-0.2,0.4-0.2C94.1,92.1,96.9,94.7,96.9,95.1z"/>
	<g id="Elements_x2F_Icons_x2F_icon-trivia-saltar">
		<g id="Group-2" transform="translate(2.476515, 2.000000)">
			
				<g id="Group-3" transform="translate(3.756089, 15.788166) rotate(-30.000000) translate(-3.756089, -15.788166) translate(0.256089, 14.338166)" class="st4">
				<path id="Rectangle" class="st5" d="M16.4,71.7h8.3c0.8,0,1.4,0.6,1.4,1.4l0,0c0,0.8-0.6,1.4-1.4,1.4h-8.3
					c-0.8,0-1.4-0.6-1.4-1.4l0,0C15,72.3,15.6,71.7,16.4,71.7z"/>
				<path id="Rectangle-Copy-3" class="st5" d="M8,75l13.9,0c0.8,0,1.4,0.6,1.4,1.4l0,0c0,0.8-0.6,1.4-1.4,1.4H8
					c-0.8,0-1.4-0.6-1.4-1.4l0,0C6.6,75.6,7.3,75,8,75z"/>
				<path id="Rectangle-Copy-4" class="st5" d="M13.6,78.3h5.6c0.8,0,1.4,0.6,1.4,1.4l0,0c0,0.8-0.6,1.4-1.4,1.4h-5.6
					c-0.8,0-1.4-0.6-1.4-1.4l0,0C12.2,78.9,12.8,78.3,13.6,78.3z"/>
			</g>
			
				<g id="trivia" transform="translate(11.792428, 8.372653) rotate(-22.000000) translate(-11.792428, -8.372653) translate(4.292428, 2.372653)">
				<path id="Fill-1" class="st5" d="M67.1,70.3l-36.6,0c-1.4,0-2.5-1.2-2.5-2.7l0-10.8c0-1.5,1.1-2.7,2.5-2.7l36.6,0
					c1.4,0,2.5,1.2,2.5,2.7v10.8C69.6,69.1,68.4,70.3,67.1,70.3"/>
				<g id="Group" transform="translate(1.363636, 7.272727)">
					<path id="Fill-4" class="st6" d="M32.5,73.2c-1.2,0-2.1-1.4-2.1-3c0-1.7,1-3,2.1-3l12.8,0c1.2,0,2.1,1.4,2.1,3
						c0.1,1.7-0.9,3-2.1,3L32.5,73.2z"/>
					<path id="Fill-6" class="st5" d="M63.2,73.2l-12.8,0c-1.2,0-2.1-1.4-2.1-3c0-1.7,1-3,2.1-3l12.8,0c1.2,0,2.1,1.4,2.1,3
						C65.4,71.8,64.5,73.2,63.2,73.2"/>
					<path id="Fill-8" class="st5" d="M45.3,80.2H32.5c-1.2,0-2.1-1.4-2.1-3c0-1.7,1-3,2.1-3h12.8c1.2,0,2.1,1.4,2.1,3
						C47.4,78.9,46.5,80.2,45.3,80.2"/>
					<path id="Fill-10" class="st6" d="M63.2,80.2H50.5c-1.2,0-2.1-1.4-2.1-3c0-1.7,1-3,2.1-3h12.8c1.2,0,2.1,1.4,2.1,3
						C65.4,78.9,64.5,80.2,63.2,80.2"/>
				</g>
			</g>
		</g>
	</g>
</g>
</svg>
