<svg xmlns="http://www.w3.org/2000/svg" xmlns:xlink="http://www.w3.org/1999/xlink" viewBox="0 0 846.93 877.68"><defs><style>.cls-1,.cls-16{isolation:isolate;}.cls-2,.cls-8{fill:#fab217;}.cls-10,.cls-12,.cls-3{fill:#d03893;}.cls-3,.cls-4,.cls-5,.cls-6,.cls-7,.cls-8{mix-blend-mode:multiply;}.cls-11,.cls-4{fill:#26a9e0;}.cls-5{fill:#5f2d8c;}.cls-6,.cls-9{fill:#ee4623;}.cls-7{fill:#d32e2e;}.cls-10{mix-blend-mode:darken;}.cls-13{fill:#fff;}.cls-14{fill:#53585e;}.cls-15{fill:#515960;}.cls-16{fill:#83cac7;opacity:0.2;}.cls-17{fill:#fbe0d1;}.cls-18{fill:#ce6029;}.cls-19{fill:#28282f;}.cls-20{fill:url(#Color_Civicamente_Original);}.cls-21{fill:#dddfde;}.cls-22{fill:#2a2e2e;}.cls-23{fill:#35393b;}.cls-24{fill:#278acb;}.cls-25{fill:#1e1b1f;}</style><linearGradient id="Color_Civicamente_Original" x1="417.47" y1="462.19" x2="417.47" y2="603.22" gradientUnits="userSpaceOnUse"><stop offset="0" stop-color="#efb958"/><stop offset="1" stop-color="#e2822a"/></linearGradient></defs><g class="cls-1"><g id="Capa_2" data-name="Capa 2"><g id="Capa_1-2" data-name="Capa 1"><g id="Logo"><g id="Colores"><path class="cls-2" d="M586.83,235.23s45.7-64,59.22-62.07-38.91,56.25-30.15,62.07,84.62-58.67,120.2-81.44C761.8,137.34,668,226.64,625.64,258.5,606.27,273.08,586.83,235.23,586.83,235.23Z"/><path class="cls-2" d="M660.1,304.16s13.07-51.63-19.19-68.73S527,275,554.5,163.66,615.87-16.53,586.24,7.57c-20.19,16.44-30.7,179-47.07,182S553.48,32.13,516.62,43.51,487.93,233.86,450,233.43,385.21,146.85,399.38,260,620.7,420.39,660.1,304.16Z"/><path class="cls-3" d="M165.67,540.91s-7.79,26.41,10.58,58,87,37.08,4.94,117.12S34,836.63,71.84,831.8c25.82-3.3,120.54-135.8,136-129.72S117.7,820.5,155,830.28,274.79,691.5,306.75,711.87,316.1,819.63,363.8,716,260.49,463,165.67,540.91Z"/><path class="cls-4" d="M432,586s39.49,59.5,71.3,31.88,56.1-45.33,164.49,30.47,168.47,140.89,154.83,99c-9.3-28.56-179.89-107.38-176.34-126.25s69.5,30.64,72.55-13.77S557.45,532.61,573.65,492,644.7,448.63,517,416.88,323.26,495.27,432,586Z"/><path class="cls-2" d="M471.37,258.3S466,213,435,209.22s-79,66.46-91.06-30.95S337.86,15.41,321.55,43.75c-11.13,19.32,30.22,152.5,18.05,159.93S302.86,73.41,276.87,93.79s35.31,161,4.88,172.24-78.33-49.39-32.37,36.76S475.43,363.3,471.37,258.3Z"/><path class="cls-5" d="M297.83,717.09S343.49,655,370.18,664.3s-.48,101.12,30.45,85.41c11.76-6-9.06-39,25.57-29.28,36.67,10.28-12.84,113.92,26,109.12,35.45-4.37-13.89-132.82,25.56-159.13,61.62-41.11,32.86,92.76,74.55,67.44,39.58-24.05-37.68-50.68-37.68-146.34,0-56.43,76.44,67.56,86.63,38,4.3-12.47-87.72-81.55-47.64-128.13,36.47-42.39-11.93-4.13,1.19-40.16s-11.25,15.72,0,0,176,38.88,173.34,5.19c-4.29-53.51-122.56,5.66-153.08-41.59S630,361.58,620.24,336.7,549.83,409.8,537,399.37s2.94-140.12-82.81-123.47,1.26,113.56-31.7,137.43-21.77-114.42-44-97.14,32.9,71.34,13,87.05S299.46,329.16,260,374.61c-33.73,38.84,65.81,213.25,72.65,216.91C370.61,611.85,285.94,704.07,297.83,717.09Z"/><path class="cls-4" d="M720.71,675.25c27.14-28.71-66.82-49.34-52.61-73.79s84.63,37.88,75,4.53c-3.65-12.67-37.8-42.13-20.63-49.74,35-15.54,142.81,30.31,121,7.41,0,0-124.55-33.78-122.43-43.28s72.55-29.56,55.55-75.28c-16.15-43.41-135.05,13.63-130-24.77s44-50.56,30.9-52.39-28.25,39-36,28.77,129.25-74.2,96.34-93.88-140.24,78.29-151.67,46.29,13.32-74.92-1.33-74.42-11.75,98.52-25.06,84.51S575.6,233.26,542,229.55c-53.36-5.87-18.24,104.43-70.4,125.5s-51.78-65.8-78.05-61S452.06,377,439.4,387.66s-137-29.32-136.88,58,111.76,20.19,129,57.05-116.47-.2-103.71,24.93,76.28-18.85,87.94,3.7S388.35,567.66,392,610.22c4.42,51.25,84.61,7.61,92.1,30.25s-45.46,66.68-36.73,79.83c16.71,25.16,46.45-89.21,59.27-78.85s-1.72,70.19,13,57.69-1.95-11.76,8.17-27.2c38.14-58.21,98.89,102.11,98.89,102.11,23.78,6.59-20.66-54.66-30.2-89.59s-20.2-45.16-5.81-46,65.76,96.08,81.89,82-54.89-68.27-50-74.3C649.72,612.67,693.57,704,720.71,675.25Z"/><path class="cls-6" d="M522.08,320.8c-13.47-49.64-119.29-10.18-117.35-33.94s67.89-43.64,65-59.16c-5.57-29.69-77.59,64-85.34,49.46s29-64,10.54-58.19-.39,26.93-18.14,21.85c-13.57-3.88,0-203.9-21.56-173.74,0,0-1.27,107.26-6.12,143.14S319.39,252,305.81,247.1s23.28-110.38,2.91-103.68-8.67,59.3-15.52,62.94c-38,20.22-40.44-60.73-76.63-44.9S242.73,234,220.12,251s-83.72-56.72-87.9-22.28c-1.59,13.09,52.8,27.59,20.15,42.67-4.18,1.92-119.65-83.66-108.49-54,7.28,19.31,101.48,79.72,95.83,87.63s-52.63-4.73-54.82,44c-.38,8.39,2.8,15.17,8.14,20.85a1.9,1.9,0,0,0,.13,1c4.2,11.37,59.91,31.78,56.61,40.66-4.88,13.17-89.61-34.91-101.41-23C30,407.1,125,405.28,133.12,424.81s-166.55,19.76-111.8,28.87c18.15,3,97.3-15.08,104.15.82a6,6,0,0,1,.45,2c-6.74,2.13-10,3.15-5.67,5.74a7.22,7.22,0,0,0,3.6,1C113,482.38,63.34,513.87,76.41,515.48c15.36,1.89,49.46-55.39,66.32-56.11,3.88-.17,4,3.46,2.19,9.09-23.94,16.36-59.27,38.93-44.09,59.7,22.62,31,98.13-46.86,96.15-12.92s-41.5,63.77-27.82,69,49.28-86.12,56.06-68S155.54,642,185,658.49c46.83,26.24,63.57-104.94,119.82-104s22,80.79,48.05,86.59-21.48-99.19-5.67-104,114.73,80.49,148.67,0-95-62.22-96.48-102.88,107.15,45.66,105.21,17.53S427,439.31,425.1,414,537.84,378.9,522.08,320.8Z"/><path class="cls-7" d="M206.1,272c-5.7,16.88,32.13,13.29,30.92,26s-44.32,10.7-34.1,22.55c3.88,4.5,25.22-9.24,20.34,6.22-.62,2-64.2,14.52-50.94,19.78,8.65,3.43,57.37-9.65,58.3-5.36s-17.55,16.11-2,31.62c14.8,14.74,46.15-21.36,51.31-4.68s-8.47,29-2.78,27.29,4.22-21.31,9.32-18.58,1.92,51.55,19.11,53.4,1.8-55.29,12.52-44.34,8.67,33.2,14.58,30.23S318.94,373.5,327,376.72s20.78,61.39,35.24,56.57c23-7.65-15.7-53,1.69-71.5S397.57,379,407.42,372s-39.6-22.93-36.42-29.68,61.65-13.83,45.11-49.58-49.57,12.81-63.58,1S400.27,271.86,390.3,264s-27.68,22.1-36.71,15.07,22.51-48.25-1.65-60.62c-20.64-10.57-39.59,36.69-46.92,28.83s6-35.88,0-39.62c-11.58-7.15-2.19,45.29-9.4,43.47S283.07,222,279.4,229.94s8.86,8.3,1.78,12.67c-5.41,3.35-29.61-45.76-43.91-33.94s2.93,29.26,13.42,41.77,16.79,14.68,11.05,17.74S232,226.93,228.05,235.75,245.2,256.63,244.33,260C239.53,278.84,211.8,255.08,206.1,272Z"/><path class="cls-3" d="M301.3,652.61c17.56,3,8.19-33.78,20.92-34.54s17.39,42.14,27.52,30.23c3.86-4.54-13-23.51,3-21.06,2.05.31,24.21,61.21,27.37,47.29,2.06-9.07-18.36-55.21-14.26-56.78s18.62,14.87,31.55-2.92c12.29-16.88-28.21-42.31-12.52-50s30,3.92,27.39-1.45-21.7-.89-19.78-6.35,50.64-9.83,49.82-27.1-54.91,6.73-45.73-5.55,31.46-13.67,27.62-19-39.94,20.15-38,11.66,57.47-30,50.48-43.52c-11.09-21.51-50,23.67-70.91,9.33s11.81-35.86,3.45-44.52S352.67,481,345.52,478.85s-23.15-58.8-55.93-37,20.28,47,10.73,62.67-29-43.8-35.22-32.74,26.1,23.95,20.54,34S234.5,491,226,516.74c-7.27,22,42.34,33.47,35.71,41.93s-36.38-.45-39.15,6.11c-5.29,12.55,45.09-4.8,44.4,2.6s-26.8,16.86-18.43,19.27,6.84-10,12.25-3.71c4.14,4.83-40.66,36.29-26.79,48.61s28.47-7.4,39.21-19.69S285.12,593,289,598.22,252.83,634,262.16,636.49s18-20.15,21.48-19.82C303,618.52,283.75,649.57,301.3,652.61Z"/><path class="cls-8" d="M673.13,421.54c-15,4.44-49.81-27.87-68.62,2s-20,61.22-34.86,59.38-56.74-26.11-62.45-15.81-11.15,49.69-20.26,49.26,20.14-36.66,7.21-43.28-58.74,98.41-98.44,58.61,36.78-89.72,6.47-107.79S328.05,466,316.84,456.2s45.34-23.6,53.62-45.36S259.83,404.06,253.89,386s156,2.77,95.2-67c-18.07-20.74-113.28-14.59-72.4-110.11,33.81-79,143,34.05,155.36,1.31s-25.23-81.49,8.12-66.75c11.48,5.07-13.92,65.79,24.35,59.23C530.87,191.33,488.1,61,516.65,79.43s-29.09,88.31,21,114.46c31.56,16.48,83.89-83.68,92.42-81.24C666.36,123,557.53,225.27,602.9,245s101.73-43.36,118.51-33.17S655.49,238.3,658.07,253s97.69-22.73,103.56,21.63-140.78,42.75-134.18,52.81,120.28,6.49,114,21.73-96.06-11.2-96.69-2S717,408.55,673.13,421.54Z"/><path class="cls-3" d="M105.76,504c13.7-9.2,127.14,9.61,136.63-26.33s-67.48-65.14-51.92-68,65.28,8.36,67.77-3.79-4.44-53.48,4.85-55.91-8.69,43.2,6.39,45.78,28-117.46,80.51-89.95-8.7,101.8,27.47,110.42,61.26-65.74,75.63-59.39-38.15,38-39.62,62.51,113.37-28,125-11.73S441,429.79,427.44,455.4s124.21-17,125,92.48c.86,121.62-80.59,24.16-91.09,59.49C441,675.84,528.23,761.2,490,757.08c-44.09-4.75,17.38-67.73-61.93-84.23-69.45-14.46-23.69,153.17-46.4,152.2-31-1.33,12.39-128.16-40.28-130.51-13.31-.59-22.49,107.64-82.22,91.31-76.52-20.93-1-90.5-52.84-96s-63,45.23-83.05,40.27S181.25,682.7,174,668.73s-71.79,18.59-73.81-28.52c-2.36-54.76,90.94-48,81.14-56S66.47,614.38,59.87,598.31c-19.61-47.74,146.49,22.44,144.24-73.43C203.89,515.19,65.72,530.9,105.76,504Z"/><path class="cls-8" d="M593.53,284.28c-13-17.75-36.26,23.1-48.25,12.87s20.62-52.47,1.37-50.54c-7.31.74-8.55,32.1-20.74,16.18-1.56-2,30.87-75.31,16.13-65.62-9.62,6.32-30.95,65-35.95,62.84s-9-42.75-35.76-38c-25.42,4.53-6,75.44-26.55,68.82s-23.35-29.17-25.65-22.18,18.58,19.39,12.19,22.61-53.57-34.63-67.64-18.55,54.71,41.08,36,44.15-39.77-14.78-40.95-6.69,52.87,16.27,43.85,22.18-76.91-22.53-82.29-4.47c-8.54,28.68,64.86,21.74,71.21,52.46s-41.26,21.84-41.23,36.73,51.34-23.82,55.91-15.81-29.76,72.25,18.18,80.87,22.22-59.29,44.16-65.06S455.8,481,470.86,476.46s-2.74-43.72,10.79-47.87,32.88,57,62.56,41.36c25.36-13.4-9.05-66.13,4.12-68s32,31.59,40.12,28.11c15.47-6.65-44.3-34.37-37.34-40.37s38.33,7.94,32.94-1.38-14.69,3.08-14.1-7.19c.45-7.86,67.36,2.49,65.54-20.37S603.78,343,583.67,344.69s-26.79,6.58-25.81-1.4,62.89-.83,56.75-11.09-33.32,2.54-36.14-.74C562.82,313.23,606.57,302,593.53,284.28Z"/><path class="cls-4" d="M665.64,612.86c14-17-31.28-29.49-24.3-43.62s55.92,7.12,49.33-11.06c-2.51-6.91-33.22-.43-20.77-16.15,1.59-2,80.58,11.48,67.58-.44-8.49-7.77-70.56-14.09-69.74-19.45S707,503,695.8,478.17c-10.62-23.54-74.61,12.67-73.23-8.88S645.12,439.5,637.78,439s-14.24,22.76-18.93,17.36,20.45-60.42,1.4-70.12-26.41,63.11-34,45.73,4.58-42.18-3.55-41.34-2.82,55.25-10.75,47.95,3-80.09-15.83-80.88c-29.91-1.25-5.19,68.21-33.41,81.9s-31.29-34.65-45.72-31,35.68,43.93,29,50.32-77.34-11.14-73.95,37.45,62.93,7,73.9,26.87-64.8,4.28-56.75,17.78,41.72-13.37,49.06-1.27-47.24,45.85-24.76,70.79c19.2,21.3,61.89-25,66.91-12.67s-22.77,38.8-17.42,45.78c10.25,13.37,22.47-51.37,30-46.1s1.69,39.12,9.41,31.61-6.59-13.49,3.51-15.44c7.73-1.49,14.09,65.92,35.82,58.55s9.49-35.11,2.87-54.18-12.95-24.36-5-25.36S615.9,653.5,624.35,645s-10.63-31.68-8.14-35.22C630,590.19,651.63,629.85,665.64,612.86Z"/><path class="cls-4" d="M600.7,754.36c20.08-16.14-28.83-41.19-17.49-55.72s62.36,21.43,59.13-1c-1.23-8.52-37.94-8.37-20-23.42,2.3-1.93,89.56,32.25,77.49,15.52C692,678.87,622.41,656.91,624.62,651s49.49-12.66,42.57-43.7c-6.58-29.48-88.45-3.18-81.76-27.53s32.89-28.77,24.62-31.11S588.33,571.31,584.24,564s37.76-64.34,18.24-80-45.21,66-49.75,44.32,15.25-47.22,5.74-48.19-16.33,62.6-23.69,52.36,22.43-91,1.05-96.38C501.89,427.62,513.71,513,478.14,522s-27.6-47.1-45-46.3,30.43,58.77,21.31,64.52-85.93-31.11-93.57,25.34,70.4,23,78.26,48.3-75.23-10.47-69.21,6.9,50.94-5.41,56.48,10.19-65,41.31-45.15,75.19c16.93,29,76.81-13.93,79.64,1.36s-35.29,39-30.81,48.3c8.56,17.74,37.92-53.5,45.28-45.67s-7.33,45.19,3.28,38.42-4.34-17,7.69-16.85c9.21.13.5,78.83,27.12,75.55s19.21-38,16.15-61.36-9.05-31,.33-30.23,4.16,73.44,15.84,65.75-4.66-38.8-1-42.26C565.31,720,580.62,770.49,600.7,754.36Z"/><path class="cls-3" d="M187.79,446.32c-18.52,19.22,35,38.56,25.26,55s-66.88-13.85-60.62,8.73c2.38,8.58,40.08,3.63,23.57,21.45-2.11,2.28-96.25-21.41-81.66-5.8,9.52,10.18,83.9,23.64,82.41,30s-49.2,19.5-38,50.48c10.61,29.43,91.3-8.31,87.61,17.59s-30,33.86-21.22,35.18,19.34-26.16,24.5-19.19-30.37,71.06-8.28,84.56,37.83-73.74,45.33-52.05-9.49,50.52.41,50.27,8.59-66.46,17.48-56.91-11.12,96.45,11.54,99.17c36,4.33,12.67-81.9,48-95.78s34.54,44.79,52.3,41.7-39-56.42-30.34-63.51,92.37,20.71,92.83-38.3-75.35-14.37-86.74-39.38,78.67.91,70.21-16.16S390.77,565.61,383,550.3s61.36-50.95,36.55-83.17c-21.19-27.53-77.1,24.37-82,9s31.15-44.73,25.33-53.67c-11.12-17.11-32,59.94-40.55,52.87S324,428,314,436.3s6.69,16.92-5.69,18.32c-9.48,1.07-10.84-80.94-37.77-74.08s-14.76,41.52-8.55,65.17,13.35,30.63,3.62,31.1-13.9-74.91-24.89-65.48,9.86,39.26,6.53,43.3C228.66,477.05,206.31,427.12,187.79,446.32Z"/><path class="cls-8" d="M649,413.09s-4.74,27.54,0,28S657.58,394.43,649,413.09Z"/><path class="cls-9" d="M150.78,170.54s-2.91-37.64-25.21-24.16S145,198.66,150.78,170.54Z"/><path class="cls-4" d="M724.46,777s3.64,37.58,25.68,23.65S729.74,748.79,724.46,777Z"/><path class="cls-8" d="M385,158.09s17.66-33.38-8.4-33.89S365.1,178.76,385,158.09Z"/><path class="cls-7" d="M110.47,316.68s-26.23-27.16-34.82-2.55S123.91,342.06,110.47,316.68Z"/><path class="cls-8" d="M629.23,170.88S658,146.4,634,136.29,603.06,182.71,629.23,170.88Z"/><path class="cls-3" d="M220.11,739.54s-28.54,24.72-4.44,34.64S246.19,727.5,220.11,739.54Z"/><path class="cls-3" d="M542.4,786.69s-12.33,35.68,13.5,32.2S558.94,763.21,542.4,786.69Z"/><path class="cls-4" d="M721.87,410.63s35.57,12.66,32.33-13.2S698.55,393.87,721.87,410.63Z"/><path class="cls-3" d="M71.47,538.19S34,533.45,42.72,558,97.84,549.57,71.47,538.19Z"/><path class="cls-3" d="M630.44,493s33.69,17.06,33.74-9S609.43,473.41,630.44,493Z"/><path class="cls-5" d="M760,493.55s12.18,6.16,12.2-3.26S752.43,486.47,760,493.55Z"/><path class="cls-5" d="M646.44,440.88s12.18,6.17,12.2-3.26S638.84,433.8,646.44,440.88Z"/><path class="cls-5" d="M630.49,719.62s-.23,13.65,8.26,9.55S633.54,709.7,630.49,719.62Z"/><path class="cls-5" d="M667.1,796.55s-.23,13.64,8.25,9.55S670.15,786.62,667.1,796.55Z"/><path class="cls-5" d="M590.38,863s-.23,13.65,8.26,9.55S593.44,853,590.38,863Z"/><path class="cls-8" d="M763,218.4s13.28-3.17,7.2-10.37S752.66,217.92,763,218.4Z"/><path class="cls-8" d="M794,114.47s13.28-3.17,7.2-10.37S783.61,114,794,114.47Z"/><path class="cls-8" d="M106.4,202.33s-.13-13.65-8.51-9.33S103.61,212.33,106.4,202.33Z"/><path class="cls-6" d="M94,117.87s-5.24-12.61-11.39-5.47S95.13,128.18,94,117.87Z"/><path class="cls-6" d="M45.55,450s-12.84-4.64-11.71,4.72S54,456.11,45.55,450Z"/><path class="cls-6" d="M22.46,481.38s-12.85-4.64-11.72,4.72S30.86,487.48,22.46,481.38Z"/><path class="cls-6" d="M42.41,486.25s-8-2.91-7.34,3S47.68,490.07,42.41,486.25Z"/><path class="cls-6" d="M158,444.29s-8-2.91-7.34,3S163.31,448.11,158,444.29Z"/><path class="cls-6" d="M20.66,560.92s-8.06-2.9-7.35,3S25.93,564.75,20.66,560.92Z"/><path class="cls-8" d="M256.43,107s.78-13.63-7.86-9.88S253,116.77,256.43,107Z"/><path class="cls-8" d="M165.79,47.45s.78-13.63-7.87-9.88S162.34,57.24,165.79,47.45Z"/><path class="cls-8" d="M625.71,265.89s13.28-3.17,7.2-10.37S615.34,265.41,625.71,265.89Z"/><path class="cls-3" d="M487.78,780s-6.84,19.82,7.5,17.88S497,767,487.78,780Z"/><path class="cls-5" d="M421.71,793s-.3,30,9.59,19.74S425.28,770.76,421.71,793Z"/><path class="cls-4" d="M569.88,743.53s.72,18.84,12.11,12.54S573.33,729.62,569.88,743.53Z"/><path class="cls-3" d="M154.54,644.23s-16.76,1.43-10.67,11.31S167.08,646.72,154.54,644.23Z"/><path class="cls-3" d="M78.29,637.14s-16.75,1.43-10.67,11.31S90.84,639.64,78.29,637.14Z"/><path class="cls-3" d="M55.32,744.25s-16.75,1.43-10.67,11.31S67.87,746.74,55.32,744.25Z"/><path class="cls-3" d="M326.32,748.61s-14.84,7.9-5.36,14.6S338.83,746,326.32,748.61Z"/><path class="cls-3" d="M220.36,810.72s-9.9,7.18-2.39,11.06S229.11,807.55,220.36,810.72Z"/><path class="cls-4" d="M831.67,597s5.11,16,13.4,7.89S831.31,584.21,831.67,597Z"/><path class="cls-4" d="M824.18,720.3s4.09,16.31,12.88,8.72S824.63,707.52,824.18,720.3Z"/><path class="cls-4" d="M733,819.55s4.08,16.31,12.87,8.72S733.44,806.77,733,819.55Z"/><path class="cls-4" d="M687.08,697.58s2.32,9.25,7.3,4.95S687.33,690.33,687.08,697.58Z"/><path class="cls-4" d="M798.52,864.91s2.32,9.25,7.3,5S798.77,857.66,798.52,864.91Z"/><path class="cls-3" d="M150.46,868.63s-7.57,5.8-1.64,8.66S157.22,866,150.46,868.63Z"/><path class="cls-4" d="M739.44,622.89s1.82,7.26,5.73,3.88S739.64,617.2,739.44,622.89Z"/><path class="cls-4" d="M736.1,699.29s1.82,7.26,5.73,3.88S736.3,693.6,736.1,699.29Z"/><path class="cls-8" d="M697.15,140.68s7.17-2.12,3.63-5.89S691.45,140.73,697.15,140.68Z"/><path class="cls-6" d="M15.75,76.93s1.38-7.36-3.58-5.93S13.19,82,15.75,76.93Z"/><path class="cls-10" d="M562.25,634.78s5.11,16,13.4,7.9S561.89,622,562.25,634.78Z"/><path class="cls-4" d="M642.86,589.16s5.11,16,13.4,7.89S642.51,576.38,642.86,589.16Z"/><path class="cls-8" d="M523.61,246s30.3-22.54,7-34.21S496.72,256.12,523.61,246Z"/><path class="cls-8" d="M507,80.26s7.12-12.75-3-13.18S499.15,88.08,507,80.26Z"/><path class="cls-8" d="M685.7,378.51s14,4.27,12.25-5.67S676.39,372.44,685.7,378.51Z"/><path class="cls-8" d="M425.93,135.63s7.12-12.76-3-13.18S418,143.45,425.93,135.63Z"/><path class="cls-8" d="M486.88,206.57s7.12-12.75-3-13.18S479,214.39,486.88,206.57Z"/><path class="cls-8" d="M445.39,13.18S452.5.43,442.43,0,437.5,21,445.39,13.18Z"/><path class="cls-8" d="M403.43,178.25s7.11-12.75-3-13.18S395.53,186.07,403.43,178.25Z"/><path class="cls-7" d="M63.19,357.81S48.7,356,52.07,365.48,73.39,362.2,63.19,357.81Z"/><path class="cls-7" d="M187.88,329.27s-14.49-1.83-11.12,7.67S198.08,333.67,187.88,329.27Z"/><path class="cls-7" d="M154.18,371.25c-11.72-13.12,77.45,5.23,82.28-12.94s-93.15-22.85-101.79-54.8c-16.36-60.47,121.9,58.35,128.12,36.27s-75.36-92.21-47.38-93.59c18-.88,57.45,102.3,70.39,95.21,8.73-4.79-24.73-63.46-20.67-75.93,4.54-14,62.1,99.38,37.78,116.35s-107,43.34-119.61,33.3,67.78-8.59,77.65-24.91C278.22,361.65,165.91,384.37,154.18,371.25Z"/><path class="cls-11" d="M709.93,375s67.8-32.05,78.22-9.54S758.92,361.41,709.93,375Z"/><path class="cls-9" d="M81,274S5.53,224.66.3,256.24C-4.2,283.4,43.32,263,81,274Z"/><path class="cls-12" d="M332.63,787.32s1.3,77.27-4.79,79.16S315.57,847.41,332.63,787.32Z"/><path class="cls-2" d="M461.15,129.89s-12.92-101.34,0-105.53S467.85,58.8,461.15,129.89Z"/></g><path id="bg" class="cls-13" d="M646.42,464.08c0,126.68-102.69,229.37-229.37,229.37S187.67,590.76,187.67,464.08,290.37,234.7,417.05,234.7,646.42,337.4,646.42,464.08Z"/><g id="icon"><path class="cls-14" d="M409.73,348.83c-2.51-2.38-7.14-6.63-17.11-6.63a20,20,0,0,0-19.35,14.85,1.16,1.16,0,0,1,1,.92c.08.41,2,9.84,10.47,10.84a1.21,1.21,0,0,1,1,1.3,1.17,1.17,0,0,1-1.17,1h-.12c-10.18-1.21-12.48-12.6-12.52-12.72a1.29,1.29,0,0,1,.13-.8,20,20,0,0,0-30.62,16.94,19.49,19.49,0,0,0,1.75,8.09,1.18,1.18,0,0,1,1.5.34c.13.16,7.84,9.84,28.24,6.71a1.18,1.18,0,0,1,.34,2.34,54.81,54.81,0,0,1-8.26.67c-15.81,0-21.9-7.93-22.2-8.3a1.07,1.07,0,0,1-.16-1.05,20.59,20.59,0,0,0-6.39-1.08,20,20,0,0,0-15.31,33,1,1,0,0,1,.55-.3c1.91-.5,47.18-11.72,56.11,11.31,3.79,9.8-.13,15.19-2.84,17.52a17.54,17.54,0,0,1-11.27,4,13,13,0,0,1-6.34-1.46,5.64,5.64,0,0,1-3.13-6.05,1.19,1.19,0,0,1,1.38-1,1.16,1.16,0,0,1,1,1.37,3.31,3.31,0,0,0,2,3.59c3.55,2,10.68,1.42,14.94-2.29,2.71-2.38,5.29-6.89,2.17-14.9-8.22-21.06-52.9-10-53.36-9.84a1.16,1.16,0,0,1-1.42-.84c-8.13,2.63-16.94,9.1-18.1,22.66-.8,9.63,4.25,18.94,13.35,20.86,1.12.7,12.93-.38,14.55-.59,15.36-2.17,62.79-3.25,62.79-3.25s21.11.58,21.11-22.4,0-61.75,0-69.5C414.32,358.22,414.32,353.21,409.73,348.83Z"/><path class="cls-15" d="M531.58,440.27c-1.12-13.59-9.93-20.06-18.06-22.69a1.17,1.17,0,0,1-1.42.79c-.46-.12-45.14-11.26-53.36,9.81-3.12,8.05-.58,12.55,2.13,14.89,4.26,3.71,11.39,4.3,14.94,2.29a3.28,3.28,0,0,0,2-3.58,1.21,1.21,0,0,1,1-1.38,1.14,1.14,0,0,1,1.33,1,5.61,5.61,0,0,1-3.17,6,13.57,13.57,0,0,1-6.38,1.46,17.25,17.25,0,0,1-11.27-4.05c-2.66-2.34-6.63-7.76-2.79-17.52,9.09-22.9,54.32-11.64,56.23-11.14a1.07,1.07,0,0,1,.51.29,20,20,0,0,0-15.23-33,19,19,0,0,0-6.38,1.09,1.07,1.07,0,0,1-.17,1c-.29.38-6.43,8.26-22.24,8.26a54.81,54.81,0,0,1-8.26-.67,1.18,1.18,0,1,1,.34-2.33c20.48,3.13,28.2-6.59,28.24-6.68a1.19,1.19,0,0,1,1.46-.33A20,20,0,0,0,462,358.72a1,1,0,0,1,.13.79c-.05.13-2.38,11.51-12.56,12.68h-.13a1.2,1.2,0,0,1-1.16-1,1.11,1.11,0,0,1,1-1.29c8.47-1,10.47-10.72,10.47-10.81a1.14,1.14,0,0,1,1-.91,20.06,20.06,0,0,0-19.36-14.9c-10,0-14.6,4.26-17.1,6.63-4.59,4.38-4.59,9.39-4.59,15.27,0,7.76,0,46.52,0,69.5s21.11,22.45,21.11,22.45,47.43,1.21,62.78,3.38c1.59.2,13.39,1.33,14.56.58C527.33,459.21,532.37,449.91,531.58,440.27Z"/><path class="cls-16" d="M538.8,492.3l0-80.73c0-43.55-35.88-78.92-80.18-79l-82.1-.08c-44.3,0-80.26,35.25-80.3,78.84l0,80.73Z"/><path class="cls-17" d="M516.94,598.09c-66.12,9.76-127.36,9.72-203.33-.13-10.89,0,.09-111.38.09-111.38l203.32.17S535.34,592.79,516.94,598.09Z"/><path class="cls-18" d="M396.51,588.52s7.33,7,28.19,3.8,25.13-12,25.13-12S424.7,592.32,396.51,588.52Z"/><path class="cls-19" d="M383.24,533.09a18,18,0,0,1-18,18h0a17.92,17.92,0,0,1-17.94-18h0a17.92,17.92,0,0,1,18-17.93h0a17.91,17.91,0,0,1,17.94,17.93Z"/><path class="cls-19" d="M486.82,533.18a18,18,0,0,1-18,18h0a18,18,0,0,1-18-18h0a17.92,17.92,0,0,1,18-17.94h0a17.9,17.9,0,0,1,18,17.94Z"/><path class="cls-20" d="M468.88,603.22c21.24-.79,41.18-2.13,52.15-3.29,20.15-2.17,19.31-22.37,19.31-22.37l1.13-29.95A27.78,27.78,0,0,0,559,553.79a28.06,28.06,0,1,0,0-56.11,27.79,27.79,0,0,0-16.47,5.38V488.75s.87-20.15-19.28-22.36-72.75-4.88-106.08-4c-33.29-.92-85.9,1.66-106.09,3.88s-19.31,22.31-19.31,22.31v13.9a28.07,28.07,0,1,0,1,45.3L294,577.36s-.91,20.15,19.28,22.36c10.68,1.17,29.78,2.46,50.39,3.29L358,574.94s-43,2.17-42.93-47.39,84.27-54.36,84.18,5.54l35.09,0s1.33-47.48,47.81-41.76,50.35,79.8-5.09,83.27Z"/><path class="cls-21" d="M457.24,535.39a3.61,3.61,0,0,1-.66-.08,2.61,2.61,0,0,1-1.84-3.22,17.58,17.58,0,0,1,13.77-12.8,2.64,2.64,0,0,1,.83,5.21,12.43,12.43,0,0,0-9.51,9A2.79,2.79,0,0,1,457.24,535.39Z"/><path class="cls-21" d="M352.41,535.31a3.85,3.85,0,0,1-.67-.09,2.59,2.59,0,0,1-1.83-3.21,17.53,17.53,0,0,1,13.76-12.81,2.62,2.62,0,0,1,3,2.21,2.68,2.68,0,0,1-2.17,3,12.4,12.4,0,0,0-9.52,9A2.74,2.74,0,0,1,352.41,535.31Z"/><path class="cls-19" d="M411.94,569.14c-1.63-.79-3.38-.59-3.88.5s-.17,2,1.58,1.58c1.09-.25,1.59-1.12,4.3,1.26C414.82,573.23,413.57,569.93,411.94,569.14Z"/><path class="cls-19" d="M423,569.22c-1.63.79-2.88,4.13-2,3.34,2.71-2.42,3.21-1.5,4.3-1.29,1.79.37,2.12-.55,1.58-1.59S424.58,568.43,423,569.22Z"/><path class="cls-18" d="M290.46,527.17a14.51,14.51,0,0,1-14.56,14.52h0a14.49,14.49,0,0,1-14.52-14.56h0a14.51,14.51,0,0,1,14.56-14.52h0a14.54,14.54,0,0,1,14.52,14.56Z"/><path class="cls-18" d="M575.38,527.38a14.51,14.51,0,0,1-14.55,14.52h0a14.51,14.51,0,0,1-14.52-14.56h0a14.49,14.49,0,0,1,14.56-14.52h0a14.53,14.53,0,0,1,14.51,14.56Z"/><path class="cls-22" d="M395.92,333.15c-2.84-1.3-90.48-25.91-88.07-28.41s110.93-46.18,110.93-46.18,119.1,37.08,119,40S457,332.1,455.57,332.31,395.92,333.15,395.92,333.15Z"/><path class="cls-23" d="M467.92,327.39c-.16-2.59-1.67-27.45-1.67-27.45s-5.71-8.05-32.08-10.93-56,8.47-57.23,10.43.41,28.32.41,28.32,11.31-7.05,39-8.42S467.92,327.39,467.92,327.39Z"/><path class="cls-22" d="M520.24,291.43s3-1.75,4.67-.71c1.42.88,1.17,60,1,77.55a13.67,13.67,0,0,1,1.88,4.17,11.38,11.38,0,0,1,.25,5.47L535,407.57l-2.54-2.71a19.72,19.72,0,0,0-1.42,2.33c-.21.59-3.09-2.46-3.09-2.46a25.64,25.64,0,0,0-2.37,2.84c-.09.42-3.34-3-3.34-3s-1.42,2.62-1.71,3.12-2-2.5-2-2.5l-3.09,1.75s4.92-25.07,6-31.45a8.31,8.31,0,0,1,.2-1.29,24.55,24.55,0,0,1,1.76-5.8c0-17.32.08-75.85-.25-75.93S520.24,291.43,520.24,291.43Z"/><polygon class="cls-24" points="433.05 611.61 414.11 617.24 400.05 603.35 379.23 582.74 371.97 611.65 364.71 640.56 392.79 632.26 411.73 626.63 425.75 640.52 446.56 661.12 453.82 632.21 461.12 603.3 433.05 611.61"/><path class="cls-25" d="M367.59,579.71a37.51,37.51,0,1,1,37.51-37.5,37.55,37.55,0,0,1-37.51,37.5Zm0-69.71a32.23,32.23,0,1,0,32.21,32.25A32.26,32.26,0,0,0,367.59,510Z"/><path class="cls-25" d="M468,579.71a37.51,37.51,0,1,1,37.51-37.5A37.53,37.53,0,0,1,468,579.71ZM468,510a32.23,32.23,0,1,0,32.21,32.25A32.29,32.29,0,0,0,468,510Z"/><path class="cls-25" d="M432.3,544.88a21.21,21.21,0,0,0-28.87,0c-1.09-1.34-2.13-2.67-3.21-4a26,26,0,0,1,35.29,0c-1.09,1.29-2.13,2.67-3.21,4Z"/></g></g></g></g></g></svg>