<svg id="Layer_1" enable-background="new 0 0 512 512" height="512" viewBox="0 0 512 512" width="512" xmlns="http://www.w3.org/2000/svg"><g><g><path d="m343.407 201.5h-57.7v-38.81c24.91-39.52 48.95-58.14 69.32-63.56 65.67-17.47 93.17 102.37-11.62 102.37z" fill="#f55c80"/><path d="m343.407 201.5h-25c90.17 0 82.39-88.73 36.62-102.37 65.67-17.47 93.17 102.37-11.62 102.37z" fill="#cc5466"/></g><g><path d="m168.298 201.5h57.7v-38.81c-24.91-39.52-48.95-58.14-69.32-63.56-65.67-17.47-93.17 102.37 11.62 102.37z" fill="#f55c80"/><path d="m168.298 201.5h25c-90.17 0-82.39-88.73-36.62-102.37-65.67-17.47-93.17 102.37 11.62 102.37z" fill="#cc5466"/></g><path d="m288.433 201.504h-65.172v-25.787c0-17.961 14.56-32.521 32.521-32.521h.131c17.961 0 32.521 14.56 32.521 32.521v25.787z" fill="#cc5466"/><path d="m425.847 251.5v255.5c0 2.76-2.24 5-5 5h-330c-2.76 0-5-2.24-5-5v-255.5z" fill="#ffc54b"/><path d="m425.847 251.5v255.5c0 2.76-2.24 5-5 5h-330c-2.76 0-5-2.24-5-5v-15h303.23c8.71 0 15.77-7.06 15.77-15.77v-174.53c0-8.71-7.06-15.77-15.77-15.77h-303.23v-34.43z" fill="#feac38"/><path d="m450.947 206.57v54.3c0 2.8-2.27 5.06-5.06 5.06h-380.08c-2.79 0-5.06-2.26-5.06-5.06v-54.3c0-2.8 2.27-5.07 5.06-5.07h165.03l25.01 10 25.01-10h165.03c2.79 0 5.06 2.27 5.06 5.07z" fill="#ffe8a7"/><path d="m450.947 230.87v30c0 2.8-2.27 5.06-5.06 5.06h-380.08c-2.79 0-5.06-2.26-5.06-5.06v-30c0 2.8 2.27 5.06 5.06 5.06h380.08c2.79 0 5.06-2.26 5.06-5.06z" fill="#ffe26f"/><path d="m85.847 363.22h340v50h-340z" fill="#cc5466"/><path d="m230.837 201.5h50.02v310.5h-50.02z" fill="#f55c80"/><path d="m230.837 265.93h50.02v20h-50.02z" fill="#cc5466"/><path d="m230.837 492h50.02v20h-50.02z" fill="#cc5466"/><g fill="#ffe26f"><path d="m303.312 47.44c-22.036 0-39.964-17.917-39.964-39.94 0-4.143-3.358-7.5-7.5-7.5s-7.5 3.357-7.5 7.5c0 22.023-17.928 39.94-39.964 39.94-4.142 0-7.5 3.357-7.5 7.5s3.358 7.5 7.5 7.5c22.037 0 39.964 17.917 39.964 39.939 0 4.143 3.358 7.5 7.5 7.5s7.5-3.357 7.5-7.5c0-22.022 17.928-39.939 39.964-39.939 4.143 0 7.5-3.357 7.5-7.5s-3.358-7.5-7.5-7.5z"/><path d="m102.429 47.44c-22.037 0-39.965-17.917-39.965-39.94 0-4.143-3.358-7.5-7.5-7.5s-7.5 3.357-7.5 7.5c0 22.023-17.928 39.94-39.964 39.94-4.142 0-7.5 3.357-7.5 7.5s3.358 7.5 7.5 7.5c22.037 0 39.964 17.917 39.964 39.939 0 4.143 3.358 7.5 7.5 7.5s7.5-3.357 7.5-7.5c0-22.022 17.928-39.939 39.965-39.939 4.142 0 7.5-3.357 7.5-7.5s-3.358-7.5-7.5-7.5z"/><path d="m504.5 47.44c-22.037 0-39.965-17.917-39.965-39.94 0-4.143-3.357-7.5-7.5-7.5s-7.5 3.357-7.5 7.5c0 22.023-17.928 39.94-39.964 39.94-4.143 0-7.5 3.357-7.5 7.5s3.357 7.5 7.5 7.5c22.036 0 39.964 17.917 39.964 39.939 0 4.143 3.357 7.5 7.5 7.5s7.5-3.357 7.5-7.5c0-22.022 17.928-39.939 39.965-39.939 4.143 0 7.5-3.357 7.5-7.5s-3.357-7.5-7.5-7.5z"/></g><path d="m404.847 363.22h21v50h-21z" fill="#aa3163"/></g></svg>