<?xml version="1.0" encoding="UTF-8"?>
<svg width="215px" height="139px" viewBox="0 0 215 139" version="1.1" xmlns="http://www.w3.org/2000/svg" xmlns:xlink="http://www.w3.org/1999/xlink">
    <title>logo-duelos-civicos</title>
    <defs>
        <polygon id="path-1" points="0 0.32056765 40.4360178 0.32056765 40.4360178 32.4417333 0 32.4417333"></polygon>
        <path d="M69.3902316,0.00407491857 C31.1442211,0.00407491857 0.140315789,31.0182801 0.140315789,69.2763322 L0.140315789,69.2763322 C0.140315789,107.533479 31.1442211,138.546779 69.3902316,138.546779 L69.3902316,138.546779 C107.637147,138.546779 138.641505,107.533479 138.641505,69.2763322 L138.641505,69.2763322 C138.641505,31.0182801 107.637147,0.00407491857 69.3902316,0.00407491857 Z" id="path-3"></path>
        <linearGradient x1="15.7602226%" y1="5.56115353%" x2="82.5235412%" y2="92.2121559%" id="linearGradient-5">
            <stop stop-color="#4B246E" offset="0%"></stop>
            <stop stop-color="#170E28" offset="100%"></stop>
        </linearGradient>
    </defs>
    <g id="Duelos" stroke="none" stroke-width="1" fill="none" fill-rule="evenodd">
        <g id="Trivia" transform="translate(-276.000000, -29.000000)">
            <g id="logo-duelos-civicos" transform="translate(276.000000, 29.000000)">
                <g id="Group-128">
                    <g id="Group-8" transform="translate(0.000000, 34.406349)">
                        <path d="M212.283441,2.74712899 L188.475473,0.318930293 L175.118767,6.15376091 C178.821746,13.9739824 181.16502,22.4403049 181.954409,31.1656111 L201.945788,24.0358619 L214.311683,7.34363713 C215.646041,5.5429759 214.512652,2.97441889 212.283441,2.74712899" id="Fill-1" fill="#B8E986"></path>
                        <path d="M204.019339,7.74085114 L189.851971,6.29606612 L181.90376,9.76789674 C184.107623,14.4214537 185.501728,19.4594114 185.97156,24.6517632 L197.867623,20.4088674 L205.226507,10.476027 C206.020423,9.40432345 205.346002,7.87622899 204.019339,7.74085114" id="Fill-3" fill="#95BC68"></path>
                        <g id="Group-7" transform="translate(0.000000, 36.221498)">
                            <mask id="mask-2" fill="white">
                                <use xlink:href="#path-1"></use>
                            </mask>
                            <g id="Clip-6"></g>
                            <path d="M34.7855516,2.81409349 C33.9622147,1.01750717 31.9715411,-0.0238609121 29.9654779,0.42438013 C27.6579621,0.939178176 26.2054674,3.2279241 26.7210147,5.53523355 L28.0716674,11.5869404 L0.831393684,19.0250251 C0.236635789,19.1866635 -0.119585263,19.802429 0.0365726316,20.3991782 L1.02104632,24.1698362 C1.17675158,24.7661326 1.80047789,25.1989795 2.41379368,25.1360446 L30.4511516,22.251455 L31.9774253,29.091885 C32.4929726,31.4001 34.78012,32.8534876 37.0876358,32.337784 C39.3946989,31.822986 40.8476463,29.5346928 40.3320989,27.2264779 L39.5363726,23.6600186 C36.9581832,16.9789632 35.3558674,9.95153974 34.7855516,2.81409349" id="Fill-5" fill="#333333" mask="url(#mask-2)"></path>
                        </g>
                    </g>
                    <g id="Group-11" transform="translate(38.926316, 0.448694)">
                        <mask id="mask-4" fill="white">
                            <use xlink:href="#path-3"></use>
                        </mask>
                        <g id="Clip-10"></g>
                        <path d="M69.3902316,0.00407491857 C31.1442211,0.00407491857 0.140315789,31.0182801 0.140315789,69.2763322 L0.140315789,69.2763322 C0.140315789,107.533479 31.1442211,138.546779 69.3902316,138.546779 L69.3902316,138.546779 C107.637147,138.546779 138.641505,107.533479 138.641505,69.2763322 L138.641505,69.2763322 C138.641505,31.0182801 107.637147,0.00407491857 69.3902316,0.00407491857 Z" id="Fill-9" fill="url(#linearGradient-5)" mask="url(#mask-4)"></path>
                    </g>
                    <g id="Group-127" transform="translate(31.684211, 3.618075)">
                        <g id="Group-92" transform="translate(10.410526, 0.000000)" fill="#E6E6E6">
                            <path d="M63.2301421,1.42264463 L63.4790895,4.6504329 C62.1619316,4.70748176 60.8551842,4.80437427 59.5606579,4.94246873 L59.7005211,6.28040033 C61.3643947,6.10336775 63.0481842,5.99153388 64.7491737,5.95169023 L64.3621737,0.0389713062 C64.3608158,0.0380778502 60.5827,0.0856185668 55.0990684,1.02058599 C49.6172474,1.96868371 46.0396474,3.18527329 46.0391947,3.18572606 L47.6320053,8.83990195 C49.3406895,8.28933518 51.0824158,7.8112114 52.8540158,7.41232215 C52.8603526,7.41096384 52.8666895,7.41005831 52.8725737,7.4087 L52.5770053,6.09567068 C51.1643421,6.41306156 49.7706895,6.780257 48.3969526,7.19272932 L47.5672789,4.11299642 C47.5672789,4.11299642 51.0362474,3.0200127 55.3136158,2.27022769 C59.5959632,1.54987264 63.2301421,1.42264463 63.2301421,1.42264463" id="Fill-12"></path>
                            <path d="M68.9610011,3.83947883 C70.4750537,3.90558306 71.9741695,4.02692508 73.4588011,4.19852443 L73.4578958,4.19852443 C73.4316432,4.43622801 73.1582537,6.89340391 73.1220432,7.19992834 C73.1012221,7.1976645 73.0813063,7.19540065 73.0604853,7.19313681 C72.6368221,7.14423779 72.2122537,7.09941368 71.7858747,7.05957003 C69.9423063,6.88797068 68.0752011,6.79605863 66.1863695,6.79605863 C66.1750537,6.79605863 66.1632853,6.7965114 66.1519695,6.7965114 C66.0284011,6.79243648 65.9039274,6.78971987 65.7794537,6.78700326 C65.50878,6.79243648 65.2412747,6.80103909 64.9769379,6.811 C62.7690011,6.85491857 60.5904853,7.01746254 58.4477274,7.29546254 C58.4183063,7.04689251 58.1186642,4.53945928 58.0865274,4.29632248 C59.3928221,4.12879805 60.7122432,4.0020228 62.04298,3.91509121 L61.8981379,2.52826059 C60.1256326,2.64507492 58.3721379,2.8320684 56.64218,3.09059935 C56.6847274,3.47137785 57.2799379,8.33547231 57.3405905,8.76062215 C59.6023905,8.41651792 61.9076432,8.20552769 64.2468432,8.12900977 C64.8913905,8.10772964 65.5372958,8.09369381 66.1863695,8.09369381 C66.36018,8.09369381 66.53218,8.0982215 66.7050853,8.10003257 C69.2570221,8.12221824 71.7700326,8.30875896 74.2337063,8.64924104 C74.2916432,8.23178827 74.8488326,3.42383713 74.8972642,2.97423779 C72.9921379,2.7148013 71.0612116,2.5382215 69.1062958,2.45083713 L68.9610011,3.83947883 Z" id="Fill-14"></path>
                            <path d="M43.3913,5.49493713 L44.6251737,8.48819121 C43.3899421,8.94910977 42.1773421,9.44579707 40.9887316,9.97689479 L41.5350579,11.2066147 C43.0626895,10.5233866 44.6292474,9.89675472 46.2351842,9.33305765 L44.0408263,3.82920085 C44.0394684,3.82874821 40.4605105,5.0421684 35.5340684,7.62657231 C30.6139632,10.2222954 27.5867632,12.4847808 27.5863105,12.4856863 L30.8479737,17.3710609 C32.3031842,16.3192792 33.8118053,15.3263573 35.3733842,14.399087 C35.3788158,14.3959176 35.3847,14.3927482 35.3896789,14.3900316 L34.7030368,13.232302 C33.4578474,13.9712205 32.2457,14.7508883 31.0665947,15.5676831 L29.3266789,12.8949893 C29.3266789,12.8949893 32.2877947,10.7832759 36.1238474,8.74808046 C39.9743842,6.73959837 43.3913,5.49493713 43.3913,5.49493713" id="Fill-16"></path>
                            <path d="M49.58846,6.02195993 C51.0491021,5.61673192 52.51246,5.26900554 53.9767232,4.97380033 C53.9762705,4.97380033 53.9762705,4.97380033 53.9758179,4.97380033 C54.0247021,5.20788176 54.5235021,7.62883616 54.5841547,7.93219121 C54.5637863,7.93626612 54.5434179,7.94034104 54.5230495,7.94441596 C54.1052705,8.02908371 53.6879442,8.11782638 53.2701653,8.21154951 C51.46326,8.61813583 49.6590705,9.10757883 47.8625758,9.69119772 C47.8521653,9.69481987 47.8413021,9.69934756 47.8299863,9.70251694 C47.7113968,9.73738013 47.5923547,9.77269609 47.47286,9.80891759 C47.2180284,9.89811303 46.96546,9.98821401 46.7174179,10.0796733 C44.6316916,10.8041033 42.6093337,11.6322173 40.6575863,12.5590349 C40.5525758,12.331745 39.4929653,10.0398296 39.3875021,9.81797296 C40.5783758,9.25472866 41.7936916,8.72634756 43.0320916,8.23237687 L42.4658495,6.95828567 C40.81646,7.61751694 39.2064495,8.33696645 37.6412495,9.11799251 C37.7992179,9.46662443 39.8681968,13.9087384 40.0569442,14.2944974 C42.1019337,13.2676179 44.2293021,12.3548362 46.4299968,11.5588687 C47.0360705,11.3397287 47.6462179,11.1260218 48.2636074,10.9254453 C48.4283653,10.8720186 48.5940284,10.8235723 48.7592389,10.7715039 C51.1930389,10.0036081 53.6408705,9.40414235 56.0891547,8.96631498 C56.0153758,8.55157883 55.0598705,3.80656254 54.9675337,3.36375472 C53.0750811,3.70650065 51.1839863,4.13572541 49.2974179,4.65640945 L49.58846,6.02195993 Z" id="Fill-18"></path>
                            <path d="M25.7815326,15.5007186 L27.8799326,17.9660443 C26.84748,18.7864612 25.8476168,19.632686 24.8812484,20.5056241 L25.7806274,21.506243 C27.0226484,20.3847349 28.3189853,19.3039759 29.6723537,18.2716632 L25.8847326,13.7154515 C25.8833747,13.7159042 22.8543642,15.9752202 18.9671642,19.9559629 C15.0899221,23.9462137 12.9100484,27.0336436 12.9100484,27.035002 L17.5210063,30.6725459 C18.5801642,29.2223277 19.7081221,27.8115003 20.9066905,26.4473081 C20.9107642,26.4423277 20.9152905,26.4378 20.9198168,26.4332723 L19.9086379,25.5449401 C18.95268,26.6320378 18.04108,27.7485655 17.1715747,28.8899954 L14.6911537,26.886041 C14.6911537,26.886041 16.8547326,23.9625134 19.8746905,20.840673 C22.9163747,17.7405655 25.7815326,15.5007186 25.7815326,15.5007186" id="Fill-20"></path>
                            <path d="M31.8381505,14.0860427 C33.1023505,13.2493261 34.3864663,12.4664889 35.6882347,11.7325508 L35.6873295,11.7330036 C35.8063716,11.9408244 37.0284768,14.0887593 37.1796558,14.3586094 C37.1615505,14.3685704 37.1438979,14.3785313 37.1257926,14.388945 C36.7541821,14.5985769 36.3843821,14.8122837 36.0163926,15.0305182 C34.4235821,15.9758993 32.8588347,16.9991567 31.3307505,18.1097984 C31.3212453,18.1161371 31.3126453,18.1233814 31.30314,18.130173 C31.2008453,18.1998993 31.0985505,18.2705313 30.9962558,18.341616 C30.7808032,18.5050655 30.5689716,18.6689678 30.3616663,18.83287 C28.6013821,20.1667267 26.93434,21.5789124 25.3632558,23.0639938 C25.1939716,22.8801697 23.4780453,21.0278928 23.3092137,20.849502 C24.2674347,19.9457756 25.2609611,19.0674042 26.2852663,18.2148407 L25.3532979,17.1780003 C23.9886137,18.3149026 22.6800558,19.4970818 21.4326032,20.7236322 C21.6901505,21.0066127 25.0301189,24.5911827 25.3293084,24.899971 C26.9565189,23.2917365 28.6977926,21.7654531 30.5454347,20.3283651 C31.0541926,19.9321925 31.5679295,19.5410003 32.0929821,19.1593163 C32.2332979,19.0569906 32.3754242,18.960098 32.5166453,18.8595834 C34.5946768,17.3772186 36.7369821,16.0501534 38.9304347,14.8770296 C38.7321821,14.5053065 36.3572242,10.2882186 36.1327189,9.89566808 C34.4389716,10.806186 32.7728347,11.7991078 31.13974,12.8771502 L31.8381505,14.0860427 Z" id="Fill-22"></path>
                            <path d="M12.1247779,30.4597446 L14.8817568,32.1558163 C14.1534726,33.2551388 13.4641147,34.3694026 12.8145884,35.498155 L13.9796621,36.1718749 C14.8138621,34.7207511 15.7132411,33.2927186 16.6809674,31.8927577 L11.6712411,28.7301681 C11.6698832,28.7310736 9.48774632,31.8162397 7.02045158,36.8039401 C4.56537789,41.7970736 3.44602,45.4074515 3.44602,45.408357 L8.95590421,47.4426469 C9.51445158,45.7361616 10.1517568,44.0455231 10.8705358,42.3775231 C10.8727989,42.3716371 10.8755147,42.3657511 10.8777779,42.3603179 L9.64254632,41.8278619 C9.06906211,43.1576436 8.54717789,44.5010085 8.07236737,45.8552397 L5.09450421,44.7160736 C5.09450421,44.7160736 6.24916737,41.2668814 8.15655684,37.3644678 C10.0920095,33.4756371 12.1247779,30.4597446 12.1247779,30.4597446" id="Fill-24"></path>
                            <path d="M17.4480874,27.2424153 C18.3913716,26.0557085 19.3708663,24.9142785 20.3820453,23.8140505 C20.3820453,23.8145033 20.3820453,23.8145033 20.3815926,23.8145033 C20.5590242,23.9756889 22.38494,25.6405195 22.6121611,25.8501515 C22.5981295,25.8655456 22.5840979,25.8809397 22.5700663,25.8958811 C22.28174,26.2105554 21.9956768,26.5274935 21.7136874,26.8494121 C20.4906768,28.2403176 19.3183611,29.6973274 18.2085084,31.2258746 C18.2017189,31.23493 18.1949295,31.2444381 18.1885926,31.2539463 C18.1130032,31.3517443 18.0374137,31.4504479 17.9618242,31.550057 C17.8074768,31.7719137 17.6567505,31.9933176 17.5100979,32.2133632 C16.2481611,34.0257964 15.0989295,35.8844121 14.0633084,37.7819658 C13.8455926,37.6597182 11.6417295,36.4286401 11.4253716,36.311373 C12.0586032,35.1559072 12.7312137,34.0135717 13.4427505,32.885272 L12.2355821,32.1875554 C11.2891295,33.6907476 10.4092137,35.2197476 9.60171895,36.771386 C9.93440316,36.9610961 14.2185611,39.3376792 14.5983189,39.5391612 C15.6488768,37.5062296 16.8334137,35.5167638 18.1464979,33.5789137 C18.5081505,33.0450993 18.8756874,32.5140016 19.2572558,31.9883371 C19.3595505,31.8479788 19.4645611,31.7116954 19.5682137,31.5722427 C21.0858874,29.5202948 22.7140032,27.5960277 24.4371716,25.802158 C24.1339084,25.5101221 20.5726032,22.2334349 20.2376558,21.929627 C18.9087295,23.3191743 17.6300453,24.7784479 16.4102032,26.3088062 L17.4480874,27.2424153 Z" id="Fill-26"></path>
                            <path d="M3.75774737,48.9083046 L6.90308421,49.6694088 C6.55093684,50.9398779 6.23907368,52.2126107 5.97066316,53.4871547 L7.28601053,53.7674186 C7.63182105,52.1297541 8.04552632,50.4929951 8.53346316,48.8625749 L2.79183158,47.4037541 C2.79092632,47.4046596 1.66885263,51.0136792 0.862715789,56.5197997 C0.0706105263,62.0272785 0.121305263,65.8065391 0.121757895,65.8078974 L5.99012632,66.0392622 C5.9942,64.2440342 6.07838947,62.439298 6.24586316,60.630487 C6.24676842,60.6241482 6.24767368,60.6178094 6.24812632,60.6114707 L4.90833684,60.4874121 C4.77435789,61.9290277 4.69243158,63.3683795 4.65938947,64.8027508 L1.47557895,64.6402068 C1.47557895,64.6402068 1.50816842,61.0022101 2.11695789,56.7018127 C2.75607368,52.4050375 3.75774737,48.9083046 3.75774737,48.9083046" id="Fill-28"></path>
                            <path d="M7.82654316,44.2030866 C8.35748,42.7827511 8.93594316,41.3941094 9.55785895,40.0353505 C9.55785895,40.0358033 9.55785895,40.0358033 9.55740632,40.0358033 C9.77602737,40.1345068 12.0265116,41.1536893 12.3075958,41.2822756 C12.2989958,41.3012919 12.2903958,41.3203081 12.2817958,41.3393244 C12.1043642,41.7268945 11.9305537,42.1176339 11.7612695,42.5106371 C11.0280063,44.2116893 10.3630905,45.9593765 9.77964842,47.7564156 C9.77648,47.7672821 9.77331158,47.7781485 9.76969053,47.789015 C9.72804842,47.9058293 9.68685895,48.0226436 9.64612211,48.1412691 C9.56736421,48.3998 9.49268,48.6565199 9.42071158,48.9114287 C8.78023789,51.0254059 8.26197474,53.1484384 7.86365895,55.2728293 C7.61833263,55.2239303 5.14198526,54.7340345 4.90028,54.6896632 C5.14470105,53.3947446 5.43212211,52.1002788 5.76073263,50.8076241 L4.39695368,50.5173993 C3.96061684,52.2397316 3.59670105,53.965686 3.30837474,55.6911876 C3.68315368,55.7681583 8.49145895,56.704484 8.91466947,56.7782853 C9.28628,54.5207805 9.79730105,52.26237 10.4481853,50.013015 C10.6269747,49.3936274 10.8130063,48.7751453 11.0135221,48.1575687 C11.0669326,47.9923081 11.1248695,47.8302169 11.1800905,47.6654091 C11.9898484,45.2449075 12.9435432,42.9117902 14.0285011,40.6728489 C13.6501011,40.488572 9.25052211,38.4732984 8.83817474,38.288116 C8.00352211,40.0204091 7.23857474,41.8034124 6.55102737,43.6357674 L7.82654316,44.2030866 Z" id="Fill-30"></path>
                            <path d="M1.49898,69.0401681 L4.72624316,68.791598 C4.78327474,70.109155 4.88013789,71.4158456 5.01773789,72.7107642 L6.35616947,72.5708586 C6.17873789,70.9069336 6.06648526,69.2221811 6.02710632,67.5206762 L0.115285263,67.9082463 C0.115285263,67.908699 0.162811579,71.6879596 1.09704316,77.1737055 C2.04485368,82.6571876 3.26107474,86.2358717 3.26198,86.2367772 L8.91444316,84.6425785 C8.36404316,82.9338293 7.88606421,81.1915752 7.48684316,79.4194384 C7.48593789,79.4135524 7.48503263,79.4067609 7.48322211,79.4008749 L6.17059053,79.6969857 C6.48833789,81.1096241 6.85542211,82.503699 7.26731684,83.8783049 L4.18851684,84.7073244 C4.18851684,84.7073244 3.09586421,81.2377577 2.34630632,76.9595459 C1.62662211,72.6754482 1.49898,69.0401681 1.49898,69.0401681" id="Fill-32"></path>
                            <path d="M3.91508211,63.3073915 C3.98116632,61.7928801 4.10292421,60.2933101 4.27447158,58.8082287 L4.27447158,58.8091342 C4.51210316,58.8353948 6.96808211,59.1088671 7.27496632,59.1446358 C7.27225053,59.165916 7.26998737,59.1858378 7.26772421,59.2066651 C7.21929263,59.6304567 7.17402947,60.0551537 7.13465053,60.4816619 C6.96265053,62.3262417 6.87031368,64.1939127 6.87076632,66.0833166 C6.87076632,66.0941831 6.87121895,66.105955 6.87121895,66.1172743 C6.86759789,66.2408801 6.86488211,66.3653915 6.86216632,66.4903557 C6.86714526,66.7606586 6.87574526,67.028245 6.88615579,67.2926619 C6.93006105,69.5012678 7.09300842,71.6804436 7.37047158,73.8247564 C7.12197684,73.8532808 4.61530316,74.1530137 4.37224,74.1851603 C4.20476632,72.8784697 4.07757684,71.5586489 3.99067158,70.2275088 L2.60426105,70.3728476 C2.72104,72.1458899 2.90797684,73.899916 3.16733474,75.6299453 C3.54754526,75.587385 8.40971368,74.9919941 8.83518737,74.9313231 C8.49073474,72.6692906 8.27980842,70.3628866 8.20331368,68.0229779 C8.18204,67.3786879 8.16800842,66.732587 8.16800842,66.0833166 C8.16800842,65.9099062 8.17253474,65.7378541 8.17434526,65.5639909 C8.19652421,63.0112808 8.38300842,60.4975088 8.72338737,58.0330886 C8.30651368,57.9751342 3.49956632,57.4182287 3.05055579,57.3693296 C2.79165053,59.2750332 2.61467158,61.2069974 2.52731368,63.1625055 L3.91508211,63.3073915 Z" id="Fill-34"></path>
                            <path d="M5.57049158,88.8848404 L8.56238632,87.6510456 C9.02407053,88.8861987 9.51970211,90.0991661 10.0510916,91.2881368 L11.2804389,90.741645 C10.5969653,89.2135505 9.97097579,87.6465179 9.40744947,86.0400945 L3.90480737,88.23557 C3.90480737,88.2364756 5.11740737,91.8165179 7.70102842,96.7444528 C10.2959653,101.666502 12.5582179,104.694166 12.5591232,104.694619 L17.4425653,101.431967 C16.3911021,99.976316 15.3989337,98.4672378 14.4714916,96.9056384 C14.4687758,96.8997524 14.4651547,96.8943192 14.4624389,96.888886 L13.3055126,97.5757362 C14.0442074,98.8213029 14.8236389,100.033818 15.6397337,101.213733 L12.9687547,102.954176 C12.9687547,102.954176 10.8576811,99.9917101 8.82310211,96.1544951 C6.81477579,92.3027915 5.57049158,88.8848404 5.57049158,88.8848404" id="Fill-36"></path>
                            <path d="M6.09735474,82.6858026 C5.69179684,81.2247179 5.34462842,79.7613694 5.04906,78.2966625 C5.04951263,78.2966625 5.04951263,78.2966625 5.04951263,78.2971153 C5.28352316,78.2482163 7.70374421,77.7497179 8.00655474,77.6885941 C8.01062842,77.7089687 8.01470211,77.7293433 8.01922842,77.7497179 C8.10387053,78.1676235 8.19213368,78.5850762 8.28628105,79.0029818 C8.69229158,80.8104345 9.18158632,82.6156235 9.76593368,84.4122098 C9.76910211,84.4230762 9.77317579,84.4334899 9.77679684,84.4448091 C9.81164947,84.5634345 9.84695474,84.6825127 9.88316526,84.8024964 C9.97233368,85.0574052 10.0624074,85.3095974 10.1538389,85.5577147 C10.8785021,87.6445257 11.7059126,89.6670436 12.6324495,91.6198352 C12.4047758,91.7244248 10.1135547,92.7843564 9.89221789,92.8898515 C9.32914421,91.6990697 8.80092316,90.4833857 8.30710211,89.2441577 L7.03294421,89.8110241 C7.69197579,91.4609134 8.41166,93.070959 9.19244947,94.6366332 C9.54097579,94.4786169 13.9812916,92.4094638 14.3673863,92.2202065 C13.3408179,90.1750502 12.42786,88.0474899 11.6325863,85.8452228 C11.41306,85.2394182 11.1998705,84.629086 10.9993547,84.0115094 C10.9459442,83.8462489 10.89706,83.6809883 10.8450074,83.5152749 C10.0777968,81.0811902 9.47851263,78.6326169 9.04081789,76.1835909 C8.62620737,76.2573922 3.88262842,77.213187 3.44040737,77.3055518 C3.78259684,79.1981251 4.21123895,81.0902456 4.73221789,82.9773857 L6.09735474,82.6858026 Z" id="Fill-38"></path>
                            <path d="M15.5730158,106.499944 L18.0375947,104.401361 C18.8577632,105.433673 19.7037316,106.433839 20.5768579,107.400501 L21.5771737,106.500396 C20.4551,105.258905 19.3746684,103.962175 18.3431211,102.608396 L13.7882895,106.397165 C13.7887421,106.398071 16.0478263,109.427999 20.0273632,113.31683 C24.0159526,117.195247 27.1024474,119.375328 27.1038053,119.375781 L30.7402474,114.762973 C29.2904684,113.703947 27.8800684,112.575194 26.5162895,111.376716 C26.5117632,111.372188 26.5067842,111.36766 26.5022579,111.363133 L25.6141947,112.374618 C26.7014158,113.330865 27.8176053,114.242742 28.9577842,115.11251 L26.9548895,117.593683 C26.9548895,117.593683 24.0322474,115.428996 20.9118053,112.408576 C17.8121842,109.36597 15.5730158,106.499944 15.5730158,106.499944" id="Fill-40"></path>
                            <path d="M14.1589947,100.441491 C13.3225316,99.1773603 12.5399316,97.8924026 11.8062158,96.5906925 L11.8062158,96.5911453 C12.0144263,96.4720671 14.1621632,95.2500443 14.4314789,95.0983668 C14.4409842,95.1164775 14.4513947,95.1345883 14.4618053,95.152699 C14.6718263,95.5244221 14.8850158,95.8943342 15.1031842,96.2624352 C16.0482789,97.8557283 17.0707737,99.4209498 18.1815316,100.949044 C18.1874158,100.958552 18.1951105,100.967608 18.2019,100.976663 C18.2716053,101.078989 18.3417632,101.181315 18.4132789,101.28364 C18.5771316,101.499611 18.7405316,101.711054 18.9043842,101.918875 C20.2378368,103.67924 21.6500474,105.34724 23.1337737,106.918347 C22.9500053,107.088136 21.0982895,108.804129 20.9204053,108.973012 C20.0169526,108.0145 19.1388474,107.021579 18.2865421,105.996057 L17.2500158,106.928761 C18.3865737,108.293859 19.5683947,109.602813 20.7941211,110.850644 C21.0770158,110.592565 24.6609526,107.252038 24.9696474,106.952758 C23.3614474,105.325054 21.8360789,103.583253 20.3989737,101.735051 C20.0029211,101.226592 19.6123,100.712246 19.2307316,100.186582 C19.1284368,100.046223 19.0315737,99.9040541 18.9306368,99.7627902 C17.4491737,97.6850345 16.1225105,95.5416274 14.9492895,93.3475101 C14.5781316,93.5458228 10.3618684,95.9210476 9.96988947,96.1460736 C10.8801316,97.8398814 11.8723,99.5069759 12.9509211,101.140565 L14.1589947,100.441491 Z" id="Fill-42"></path>
                            <path d="M30.5275105,120.160791 L32.2235211,117.40343 C33.3225105,118.131482 34.4359842,118.821501 35.5648474,119.471224 L36.2379105,118.305345 C34.7872263,117.471345 33.3596263,116.571693 31.9600895,115.603674 L28.7984579,120.614918 C28.7993632,120.615824 31.8835947,122.799075 36.8697842,125.267117 C41.8614053,127.722935 45.4706895,128.842632 45.4715947,128.842632 L47.5052684,123.331078 C45.7993,122.771908 44.1096263,122.13441 42.4416789,121.416319 C42.4362474,121.413602 42.4299105,121.410886 42.4240263,121.408169 L41.8917316,122.644228 C43.2215632,123.217886 44.5649737,123.739475 45.9183421,124.214882 L44.7795211,127.193195 C44.7795211,127.193195 41.3313737,126.037729 37.4305947,124.129762 C33.5424895,122.194176 30.5275105,120.160791 30.5275105,120.160791" id="Fill-44"></path>
                            <path d="M27.3113821,114.836367 C26.1250347,113.892344 24.9834979,112.912552 23.8840558,111.901067 C23.8840558,111.90152 23.8840558,111.90152 23.8845084,111.90152 C24.0451926,111.724035 25.7104242,109.898018 25.91954,109.670728 C25.9349295,109.684764 25.9498663,109.698347 25.9652558,109.712836 C26.2798347,110.000797 26.5966768,110.287399 26.9180453,110.569021 C28.3094347,111.792855 29.7655505,112.965074 31.2936347,114.075263 C31.3022347,114.082507 31.3126453,114.088846 31.3212453,114.095184 C31.4194663,114.17125 31.51814,114.246409 31.6181716,114.322021 C31.8399611,114.476416 32.0603926,114.627188 32.2808242,114.773885 C34.0927084,116.036657 35.9512137,117.185784 37.8472874,118.221719 C37.7250768,118.439953 36.4943716,120.644031 36.37714,120.860455 C35.2224768,120.227031 34.0800347,119.55467 32.9525295,118.842917 L32.2550242,120.050451 C33.7577611,120.996738 35.2862979,121.877373 36.8374663,122.68466 C37.0262137,122.351875 39.4029821,118.066872 39.6044032,117.686546 C37.5716347,116.636122 35.5827716,115.450774 33.6455084,114.137292 C33.1114032,113.775982 32.5813716,113.407881 32.0558663,113.026197 C31.9155505,112.923872 31.7788558,112.818829 31.6398979,112.715145 C29.5881189,111.197464 27.6644347,109.568855 25.8711084,107.845165 C25.5796137,108.14852 22.3039189,111.710451 22.0006558,112.0455 C23.3888768,113.375282 24.8477084,114.653901 26.3780558,115.874113 L27.3113821,114.836367 Z" id="Fill-46"></path>
                            <path d="M48.9700747,128.530402 L49.7318537,125.384112 C51.0014853,125.736366 52.2738326,126.048777 53.5479905,126.317269 L53.8281695,125.000617 C52.1905484,124.655607 50.5551905,124.241777 48.9248116,123.753239 L47.4664326,129.497064 C47.4677905,129.497969 51.0748116,130.620383 56.5797168,131.426311 C62.08598,132.219109 65.8640958,132.168399 65.8645484,132.167946 L66.0967484,126.297347 C64.3016116,126.293272 62.4974221,126.20951 60.6896116,126.041985 C60.6832747,126.04108 60.6764853,126.039721 60.6701484,126.039269 L60.5456747,127.379464 C61.9877589,127.514389 63.4262221,127.595435 64.8601589,127.62894 L64.6976642,130.813715 C64.6976642,130.813715 61.0612221,130.780663 56.7616747,130.171689 C52.4666537,129.532379 48.9700747,128.530402 48.9700747,128.530402" id="Fill-48"></path>
                            <path d="M44.2669158,124.460781 C42.8470105,123.929683 41.4587895,123.350592 40.1004421,122.728941 L40.1008947,122.728941 C40.1991158,122.510253 41.2184421,120.259087 41.3474421,119.978371 C41.366,119.986521 41.3850105,119.995576 41.4040211,120.003726 C41.7919263,120.181211 42.1816421,120.355527 42.5745263,120.52441 C44.2759684,121.257895 46.0226737,121.923012 47.8191684,122.506631 C47.8295789,122.509801 47.8408947,122.51297 47.8517579,122.516592 C47.9685368,122.5587 48.0853158,122.599902 48.2034526,122.640198 C48.4628105,122.71898 48.719,122.793687 48.9733789,122.86613 C51.0871684,123.506345 53.2095579,124.024765 55.3328526,124.423201 C55.2844211,124.669055 54.7946737,127.146152 54.7498632,127.387478 C53.4557895,127.142983 52.1617158,126.855928 50.8694526,126.526765 L50.5788632,127.89141 C52.3011263,128.327426 54.0265579,128.691905 55.7510842,128.980319 C55.8280316,128.605426 56.7645263,123.795211 56.8383053,123.371872 C54.5810316,123.000602 52.3237579,122.488973 50.0750842,121.837892 C49.4558842,121.659501 48.8375895,121.47296 48.2197474,121.272384 C48.0549895,121.218957 47.8924947,121.161003 47.7277368,121.105765 C45.3084211,120.296214 42.9755579,119.341778 40.7372947,118.256944 C40.5535263,118.635006 38.5388632,123.035918 38.3537368,123.44839 C40.0850526,124.283749 41.8675158,125.048928 43.6997684,125.736231 L44.2669158,124.460781 Z" id="Fill-50"></path>
                            <path d="M69.0957947,130.789809 L68.8477526,127.561568 C70.1644579,127.504519 71.4712053,127.408079 72.7657316,127.269985 L72.6258684,125.931148 C70.9619947,126.109086 69.2782053,126.221372 67.5772158,126.260763 L67.9642158,132.173926 C67.9655737,132.174376 71.7436895,132.126835 77.2273211,131.19232 C82.7086895,130.24377 86.2867421,129.02718 86.2871947,129.026727 L84.6943842,123.372099 C82.9857,123.923118 81.2439737,124.400789 79.4728263,124.800131 C79.4664895,124.801037 79.4597,124.802395 79.4538158,124.803753 L79.7493842,126.117236 C81.1620474,125.799392 82.5552474,125.431744 83.9294368,125.02063 L84.7586579,128.09991 C84.7586579,128.09991 81.2896895,129.192441 77.0127737,129.942226 C72.7304263,130.662128 69.0957947,130.789809 69.0957947,130.789809" id="Fill-52"></path>
                            <path d="M63.3654337,128.373427 C61.8509284,128.307323 60.3522653,128.185076 58.8676337,128.013929 L58.8680863,128.013476 C58.8943389,127.775773 59.1686337,125.319502 59.2043916,125.012525 C59.2252126,125.014789 59.2451284,125.017053 59.2659495,125.019317 C59.6900653,125.067763 60.1137284,125.11304 60.5401074,125.152431 C62.3845811,125.324483 64.2512337,125.416848 66.1405179,125.416395 C66.1513811,125.416395 66.1631495,125.415942 66.1744653,125.415942 C66.2980337,125.420017 66.4220547,125.422734 66.5469811,125.424545 C66.8176547,125.420017 67.0847074,125.411414 67.3494968,125.401453 C69.5574337,125.357082 71.7359495,125.194538 73.8787074,124.916538 C73.9081284,125.165561 74.2073179,127.672541 74.2394547,127.916131 C72.9336126,128.083655 71.6141916,128.210431 70.2830021,128.297362 L70.4282968,129.684646 C72.2012547,129.567379 73.9547495,129.380385 75.6838021,129.121854 C75.6412547,128.741076 75.0460442,123.876981 74.9853916,123.451379 C72.7240442,123.796841 70.4187916,124.006926 68.0791389,124.082991 C67.4350442,124.104724 66.7895916,124.119212 66.1405179,124.119212 C65.9667074,124.119212 65.7942547,124.114232 65.6208968,124.112421 C63.0698653,124.090688 60.5564021,123.904147 58.0927284,123.563665 C58.0347916,123.980212 57.4776021,128.788164 57.4291705,129.238216 C59.3338442,129.497199 61.2652232,129.674232 63.2205916,129.761616 L63.3654337,128.373427 Z" id="Fill-54"></path>
                            <path d="M88.9346821,126.717562 L87.7017137,123.724307 C88.93604,123.262936 90.1490926,122.767154 91.3377032,122.235604 L90.7909242,121.005431 C89.2632926,121.689112 87.6967347,122.316197 86.0912505,122.879441 L88.2856084,128.38375 C88.2874189,128.383298 91.8659242,127.17033 96.7923663,124.586832 C101.712472,121.990203 104.739672,119.727718 104.740124,119.727265 L101.478461,114.841438 C100.023251,115.893672 98.5146295,116.886141 96.9535032,117.813412 C96.9476189,117.816581 96.9412821,117.81975 96.9363032,117.82292 L97.6233979,118.980197 C98.8685874,118.241278 100.080282,117.46161 101.25984,116.644816 L102.999303,119.317057 C102.999303,119.317057 100.038187,121.42877 96.2025874,123.463965 C92.3515979,125.472448 88.9346821,126.717562 88.9346821,126.717562" id="Fill-56"></path>
                            <path d="M82.7379747,126.190493 C81.2773326,126.595721 79.8144274,126.942995 78.3497116,127.238653 L78.3501642,127.238653 C78.30128,127.004572 77.8033853,124.583164 77.74228,124.280262 C77.7626484,124.276187 77.7825642,124.272112 77.8033853,124.268037 C78.2211642,124.182464 78.6384905,124.09508 79.0553642,124.000451 C80.8631747,123.594318 82.6673642,123.104875 84.4638589,122.520803 C84.4742695,122.517181 84.4851326,122.513106 84.4959958,122.509936 C84.6150379,122.475073 84.7336274,122.439757 84.8535747,122.403083 C85.1088589,122.31434 85.3605221,122.223787 85.6085642,122.132327 C87.6951958,121.407897 89.7166484,120.579783 91.6688484,119.653419 C91.7738589,119.880708 92.8330168,122.173077 92.9389326,122.39448 C91.7480589,122.957272 90.5327432,123.485653 89.2938905,123.979624 L89.8610379,125.254621 C91.5104274,124.594936 93.1199853,123.875034 94.6851853,123.094461 C94.5267642,122.746282 92.4582379,118.304168 92.2690379,117.917956 C90.2245011,118.944836 88.0971326,119.857617 85.8959853,120.653585 C85.2903642,120.873178 84.6806695,121.085979 84.06328,121.286555 C83.8980695,121.340435 83.7324063,121.389334 83.5671958,121.44095 C81.1338484,122.208845 78.6855642,122.808311 76.23728,123.246591 C76.3110589,123.660422 77.2665642,128.405438 77.3589011,128.848246 C79.2509011,128.5055 81.1429011,128.076728 83.0294695,127.556044 L82.7379747,126.190493 Z" id="Fill-58"></path>
                            <path d="M106.544449,116.711961 L104.446955,114.246183 C105.478955,113.426219 106.478818,112.579541 107.445186,111.70615 L106.544902,110.705531 C105.303786,111.828398 104.007449,112.908704 102.654081,113.941017 L106.441702,118.496776 C106.443513,118.496323 109.471618,116.237007 113.359723,112.256264 C117.236965,108.266466 119.416386,105.178583 119.416386,105.177678 L114.805428,101.539681 C113.746271,102.989899 112.618313,104.400727 111.419744,105.764919 C111.415671,105.769447 111.410692,105.77488 111.406618,105.779407 L112.417797,106.66774 C113.373755,105.580189 114.285355,104.463662 115.15486,103.322684 L117.634828,105.326639 C117.634828,105.326639 115.470797,108.250166 112.451292,111.371101 C109.409155,114.471662 106.544449,116.711961 106.544449,116.711961" id="Fill-60"></path>
                            <path d="M100.488284,118.126456 C99.2240842,118.963173 97.9399684,119.74601 96.6382,120.479948 L96.6386526,120.479495 C96.5196105,120.271674 95.2984105,118.123287 95.1467789,117.853889 C95.1648842,117.843928 95.1825368,117.833967 95.2006421,117.823101 C95.5722526,117.613016 95.9420526,117.400215 96.3095895,117.181528 C97.9028526,116.236599 99.4676,115.213342 100.995684,114.102248 C101.004737,114.096362 101.013789,114.088664 101.023295,114.082326 C101.125589,114.012147 101.227432,113.941967 101.329726,113.87043 C101.546084,113.70698 101.757011,113.543531 101.964768,113.380081 C103.725505,112.045319 105.392095,110.633134 106.962726,109.148505 C107.132463,109.332782 108.847937,111.185059 109.017221,111.362997 C108.059,112.266723 107.065474,113.144642 106.040716,113.997205 L106.973589,115.034498 C108.338274,113.896691 109.646832,112.714964 110.894284,111.488866 C110.636284,111.206339 107.296316,107.621316 106.996674,107.312075 C105.370368,108.921215 103.628642,110.446593 101.781,111.884134 C101.272695,112.280306 100.758958,112.671046 100.233453,113.053182 C100.093137,113.155508 99.9510105,113.252401 99.8093368,113.352915 C97.7326632,114.83528 95.5894526,116.162345 93.396,117.335922 C93.5942526,117.706739 95.9687579,121.92428 96.1937158,122.316378 C97.8870105,121.406313 99.5540526,120.413391 101.187147,119.334896 L100.488284,118.126456 Z" id="Fill-62"></path>
                            <path d="M120.201204,101.752935 L117.444678,100.056411 C118.172962,98.9570883 118.862773,97.8432772 119.512299,96.7136192 L118.345867,96.0403521 C117.512573,97.4919287 116.613194,98.9199612 115.64592,100.319922 L120.655194,103.482059 C120.656552,103.481153 122.838688,100.39644 125.306436,95.4087397 C127.761057,90.4151534 128.880867,86.8052283 128.880415,86.8043228 L123.370983,84.7695801 C122.811983,86.4765182 122.174225,88.1662511 121.456352,89.8347039 C121.453636,89.8401371 121.45092,89.8469287 121.448657,89.8528147 L122.683888,90.3852707 C123.257825,89.0550362 123.779257,87.7112186 124.254067,86.3569873 L127.231931,87.4966062 C127.231931,87.4966062 126.076815,90.9457984 124.169878,94.8477593 C122.233973,98.7365899 120.201204,101.752935 120.201204,101.752935" id="Fill-64"></path>
                            <path d="M114.8788,104.970038 C113.934611,106.156292 112.955568,107.298175 111.944389,108.398403 L111.944389,108.39795 C111.767411,108.237217 109.941947,106.571481 109.714726,106.361849 C109.728758,106.346908 109.741884,106.331966 109.756368,106.31612 C110.044242,106.000993 110.330305,105.68496 110.612295,105.363494 C111.836211,103.971683 113.008074,102.515126 114.117926,100.986126 C114.124716,100.977523 114.131505,100.967563 114.137842,100.95896 C114.213432,100.860256 114.289021,100.762006 114.364158,100.661944 C114.518958,100.439634 114.669232,100.219136 114.816337,99.9990902 C116.078726,98.186657 117.227053,96.3275886 118.263126,94.4304876 C118.481295,94.5527352 120.684705,95.7842661 120.901063,95.9010805 C120.268284,97.0565463 119.595221,98.1993345 118.883232,99.3267287 L120.091305,100.024898 C121.037305,98.5212531 121.917674,96.9927059 122.724716,95.4410674 C122.392032,95.2518101 118.108326,92.8743215 117.727663,92.673745 C116.678011,94.7062238 115.492568,96.6956896 114.179484,98.6335397 C113.818737,99.1678068 113.450747,99.697999 113.069179,100.223664 C112.966884,100.364022 112.861874,100.501211 112.758221,100.640211 C111.241,102.692159 109.612432,104.616426 107.889263,106.410295 C108.192526,106.701879 111.753379,109.979019 112.088779,110.282374 C113.417705,108.893279 114.696389,107.433553 115.916232,105.903647 L114.8788,104.970038 Z" id="Fill-66"></path>
                            <path d="M128.568687,83.3043752 L125.422898,82.5428182 C125.775498,81.272802 126.088266,80.0000691 126.356224,78.7250723 L125.039519,78.4452612 C124.694614,80.0833785 124.281361,81.7192319 123.792972,83.3496521 L129.534603,84.8089257 C129.535961,84.8071147 130.657582,81.1990007 131.463719,75.6924274 C132.255824,70.1849485 132.205582,66.4056879 132.205129,66.4047824 L126.336308,66.1725121 C126.332235,67.9686456 126.248045,69.772929 126.080572,71.5812873 C126.079666,71.5880788 126.078761,71.5948704 126.078308,71.6012091 L127.418098,71.7252678 C127.552982,70.2831993 127.634003,68.8438476 127.667045,67.4094762 L130.850856,67.572473 C130.850856,67.572473 130.818266,71.2100169 130.209477,75.5104143 C129.570361,79.8071896 128.568687,83.3043752 128.568687,83.3043752" id="Fill-68"></path>
                            <path d="M124.500299,88.0093668 C123.968909,89.4297023 123.390446,90.8178912 122.768531,92.1771029 C122.550362,92.0783993 120.299878,91.0583114 120.019246,90.9297251 C120.027846,90.9107088 120.035994,90.8921453 120.044594,90.8726762 C120.221573,90.4846534 120.395836,90.0948195 120.564667,89.7022691 C121.298836,88.0003114 121.963299,86.2530769 122.546741,84.455585 C122.549457,84.4456241 122.552625,84.4343049 122.556699,84.4234384 C122.598341,84.3061713 122.639531,84.189357 122.680267,84.0716371 C122.759025,83.8117479 122.833257,83.5559336 122.905678,83.3014775 C123.546152,81.1870476 124.064415,79.064015 124.462731,76.9396241 C124.708509,76.9885231 127.184857,77.4784189 127.426109,77.5227902 C127.181688,78.8177088 126.894267,80.1121746 126.565204,81.4043765 L127.929888,81.6950541 C128.36532,79.9722691 128.730141,78.2467674 129.018467,76.5212658 C128.643688,76.4442951 123.834931,75.5079694 123.411267,75.4341681 C123.040562,77.6921257 122.528636,79.9496306 121.878204,82.1989857 C121.699867,82.8183733 121.513383,83.4368554 121.312867,84.0548847 C121.259457,84.2201453 121.20152,84.3822365 121.146299,84.5465915 C120.337446,86.9670932 119.382846,89.301116 118.297888,91.5396046 C118.676288,91.7234287 123.075415,93.739155 123.488215,93.9238847 C124.322867,92.1924971 125.087815,90.409041 125.775362,88.5762332 L124.500299,88.0093668 Z" id="Fill-70"></path>
                            <path d="M130.826957,63.1725117 L127.599694,63.420629 C127.543115,62.1035248 127.446704,60.7963814 127.308652,59.5010101 L125.969767,59.6418212 C126.148104,61.306199 126.259904,62.9904987 126.299283,64.6915508 L132.210664,64.3048863 C132.211557,64.3030752 132.163578,60.5238147 131.229799,55.0385215 C130.281536,49.5554922 129.065767,45.9763554 129.064862,45.9759026 L123.411494,47.5691958 C123.962799,49.2788505 124.440325,51.0206518 124.839546,52.7927886 C124.840452,52.7991274 124.841809,52.8059189 124.84362,52.8118049 L126.156252,52.5156941 C125.838504,51.1026029 125.470967,49.7089808 125.059073,48.3339221 L128.137873,47.5049026 C128.137873,47.5049026 129.230073,50.9749221 129.980083,55.2531339 C130.699767,59.5372316 130.826957,63.1725117 130.826957,63.1725117" id="Fill-72"></path>
                            <path d="M128.41176,68.9046544 C128.345223,70.4196186 128.223465,71.9187358 128.051918,73.40427 L128.051918,73.4038173 C127.814286,73.3775567 125.35876,73.1027261 125.051876,73.0674101 C125.054139,73.0465827 125.056402,73.0266609 125.058665,73.0053808 C125.106644,72.5811365 125.151907,72.1577977 125.191739,71.7312896 C125.363739,69.886257 125.455623,68.018586 125.455623,66.1291821 C125.455623,66.1183156 125.454718,66.1060909 125.455171,66.0947717 C125.458792,65.9711658 125.461507,65.8471072 125.463771,65.722143 C125.458792,65.4513873 125.450192,65.1842537 125.440686,64.9202896 C125.396328,62.7107782 125.233834,60.532055 124.956371,58.3881951 C125.204865,58.3587651 127.711086,58.059485 127.954602,58.0268857 C128.122076,59.334029 128.248813,60.6538498 128.335265,61.9845371 L129.722581,61.8396511 C129.604897,60.066156 129.418413,58.3125827 129.159507,56.5825534 C128.779297,56.6246609 123.916676,57.2205046 123.491202,57.2816283 C123.836107,59.5432081 124.046128,61.8491593 124.122623,64.1890681 C124.144349,64.833358 124.158834,65.479459 124.158834,66.1291821 C124.158834,66.3025925 124.153855,66.4750974 124.152044,66.648055 C124.130318,69.2003124 123.943381,71.7149899 123.603455,74.1794101 C124.019876,74.2373645 128.826371,74.7947228 129.275834,74.8427163 C129.535192,72.9374655 129.711718,71.0050485 129.799528,69.0495404 L128.41176,68.9046544 Z" id="Fill-74"></path>
                            <path d="M126.755943,43.3278394 L123.763596,44.5611814 C123.302364,43.3264811 122.807185,42.1130609 122.275343,40.9236375 L121.045543,41.4714876 C121.729469,42.9991293 122.355912,44.5661619 122.918985,46.1721326 L128.421627,43.9771098 C128.421627,43.9748459 127.209027,40.3957091 124.625859,35.4673215 C122.030469,30.5461782 119.768217,27.5180609 119.768217,27.5176081 L114.883417,30.7802596 C115.935333,32.2359111 116.927501,33.7449893 117.854943,35.3070414 C117.857659,35.3124746 117.86128,35.3188134 117.864901,35.3237938 L119.021375,34.6360381 C118.28268,33.3909241 117.502796,32.1788622 116.686248,30.9984941 L119.358133,29.2585039 C119.358133,29.2585039 121.468754,32.2205169 123.503785,36.0577319 C125.511659,39.9094355 126.755943,43.3278394 126.755943,43.3278394" id="Fill-76"></path>
                            <path d="M126.229487,49.5262433 C126.63414,50.9877808 126.981761,52.4506765 127.277329,53.9162889 L127.276877,53.9158362 C127.042866,53.9647352 124.622645,54.4627808 124.319835,54.5239046 C124.315761,54.5030772 124.311687,54.4836081 124.307161,54.462328 C124.221614,54.0444225 124.134256,53.6274225 124.040108,53.2095169 C123.634098,51.4016114 123.144803,49.597328 122.560908,47.7998362 C122.557287,47.7898752 122.552761,47.778556 122.549593,47.7676896 C122.51474,47.6486114 122.479435,47.529986 122.443224,47.410455 C122.354056,47.1541879 122.263529,46.9033541 122.172551,46.654784 C121.44834,44.5675202 120.620024,42.5459078 119.694393,40.5926635 C119.921614,40.4876212 122.213287,39.4281423 122.434624,39.3217417 C122.997245,40.513429 123.525466,41.729113 124.019287,42.968341 L125.293898,42.4010218 C124.633961,40.7515853 123.914729,39.141087 123.134393,37.5754127 C122.785866,37.7338818 118.345098,39.8030349 117.959003,39.992745 C118.986024,42.0374485 119.898077,44.1654616 120.694256,46.3672759 C120.913782,46.9730805 121.126519,47.5829599 121.327035,48.2005365 C121.380898,48.3662498 121.429782,48.5315104 121.481382,48.6963182 C122.249045,51.1304029 122.848329,53.5803345 123.286024,56.0289078 C123.700182,55.9555593 128.443761,54.9993117 128.885982,54.9064941 C128.543793,53.0148264 128.114698,51.1218003 127.594624,49.2346603 L126.229487,49.5262433 Z" id="Fill-78"></path>
                            <path d="M116.753419,25.712555 L114.28884,27.8106853 C113.468672,26.7788254 112.622703,25.7782065 111.749124,24.8115453 L110.748808,25.712555 C111.871335,26.9544997 112.951766,28.2507765 113.983314,29.6041023 L118.537693,25.8153336 C118.53724,25.8135225 116.278608,22.7844997 112.299524,18.8956691 C108.310935,15.0172521 105.223987,12.8367179 105.223082,12.8367179 L101.585735,17.4495257 C103.035966,18.5085518 104.445914,19.6373042 105.810145,20.8357831 C105.814672,20.8403107 105.820103,20.8452912 105.825082,20.8489134 L106.71224,19.837428 C105.625472,18.8811805 104.508377,17.969757 103.368198,17.0995355 L105.371545,14.6188156 C105.371545,14.6188156 108.294187,16.7835029 111.415082,19.8039231 C114.514251,22.846529 116.753419,25.712555 116.753419,25.712555" id="Fill-80"></path>
                            <path d="M118.16744,31.7705101 C119.003903,33.0350932 119.786503,34.3191453 120.520672,35.6217609 L120.520219,35.6213081 C120.312008,35.7403863 118.164724,36.9619564 117.895408,37.1136339 C117.885451,37.0955231 117.87504,37.0778651 117.864629,37.0593016 C117.654156,36.6880313 117.441872,36.318572 117.223251,35.950471 C116.278608,34.3562723 115.255208,32.7915036 114.144903,31.2629564 C114.139019,31.253901 114.130872,31.2448456 114.124535,31.2357902 C114.054829,31.1334645 113.984672,31.0311388 113.913156,30.928813 C113.748851,30.7128423 113.585903,30.5018521 113.422503,30.2940313 C112.088598,28.5327609 110.676387,26.8656664 109.193114,25.2941062 C109.376429,25.1243179 111.228598,23.4083244 111.406029,23.2389889 C112.309935,24.1975003 113.187587,25.1913277 114.039893,26.2168489 L115.076872,25.2832397 C113.939408,23.9185948 112.75804,22.6091876 111.532314,21.361357 C111.249419,21.6194352 107.665482,24.9604156 107.356787,25.2601485 C108.96544,26.8873993 110.489903,28.6292007 111.927008,30.4774026 C112.323061,30.9858619 112.714135,31.5002072 113.095703,32.0254189 C113.197998,32.16623 113.295314,32.3083993 113.395345,32.4492104 C114.877261,34.5265134 116.204377,36.6708261 117.377598,38.8649433 C117.748303,38.6666306 121.964566,36.2918586 122.356545,36.0663798 C121.446303,34.372572 120.453682,32.7054775 119.375966,31.0714352 L118.16744,31.7705101 Z" id="Fill-82"></path>
                            <path d="M101.798879,12.0516622 L100.102868,14.8090238 C99.0043316,14.0809717 97.8908579,13.3909521 96.7610895,12.7416818 L96.0884789,13.9075612 C97.5391632,14.7415612 98.9672158,15.6407599 100.3663,16.6087795 L103.527479,11.5979879 C103.526574,11.5961769 100.442342,9.41337883 95.4566053,6.94488371 C90.4649842,4.48951889 86.8561526,3.36936906 86.8547947,3.36982169 L84.8206684,8.88137557 C86.5275421,9.44054495 88.2167632,10.0780433 89.8847105,10.7961345 C89.8901421,10.7988511 89.8964789,10.8020205 89.9032684,10.8038316 L90.4346579,9.56777296 C89.1048263,8.99456775 87.7614158,8.47252541 86.4080474,7.99757101 L87.5473211,5.01925831 C87.5473211,5.01925831 90.9950158,6.1747241 94.8962474,8.08223876 C98.7834474,10.0182779 101.798879,12.0516622 101.798879,12.0516622" id="Fill-84"></path>
                            <path d="M105.015053,17.3759055 C106.200947,18.3203811 107.342484,19.2997199 108.442832,20.3112052 L108.442379,20.3112052 C108.281695,20.4882378 106.616011,22.3138013 106.407347,22.541544 C106.391958,22.5270554 106.376568,22.5139251 106.361179,22.4994365 C106.046147,22.2114756 105.729758,21.9257785 105.408389,21.6432508 C104.017453,20.4189642 102.561337,19.2471987 101.0328,18.136557 C101.0242,18.1302182 101.013789,18.1234267 101.005189,18.1170879 C100.906968,18.0410228 100.808747,17.9658632 100.708716,17.8902508 C100.486021,17.7354039 100.266042,17.5855375 100.046063,17.4383876 C98.2341789,16.1756156 96.3752211,15.0264886 94.4791474,13.990101 C94.6013579,13.7723192 95.8325158,11.5677883 95.9492947,11.3518176 C97.1044105,11.9843355 98.2464,12.6580554 99.3739053,13.3702606 L100.071863,12.1618208 C98.5682211,11.2155342 97.0405895,10.334899 95.4889684,9.52761238 C95.2997684,9.86039739 92.9234526,14.1454007 92.7224842,14.5261792 C94.7548,15.5761498 96.7432105,16.7614984 98.6804737,18.0749805 C99.2141263,18.4358371 99.7450632,18.8043909 100.270568,19.1860749 C100.410884,19.2879479 100.548032,19.3938958 100.686537,19.4966743 C102.737863,21.014355 104.662,22.6434169 106.455326,24.3675603 C106.746821,24.0642052 110.022516,20.5022736 110.325779,20.166772 C108.937558,18.837443 107.477821,17.5583713 105.948379,16.3377068 L105.015053,17.3759055 Z" id="Fill-86"></path>
                            <path d="M83.3559074,3.68164365 L82.5945811,6.82883909 C81.3254021,6.47567948 80.0530547,6.16326906 78.7784442,5.89522997 L78.4982653,7.21188143 C80.1358863,7.55689121 81.7716968,7.97026906 83.4011705,8.45880651 L84.8600021,2.71588795 C84.8581916,2.71452964 81.2511705,1.59211596 75.7467179,0.785734853 C70.2409074,-0.00661042345 66.4627916,0.0436469055 66.4618863,0.0440996743 L66.2296863,5.91469902 C68.0252758,5.91922671 69.8290126,6.00298893 71.6368232,6.17051336 C71.64316,6.17187166 71.6504021,6.17232443 71.6567389,6.17232443 L71.78076,4.83258176 C70.3391284,4.69856221 68.9002126,4.61706384 67.4662758,4.58401173 L67.6292232,1.39878371 C67.6292232,1.39878371 71.2652126,1.43183583 75.56476,2.040357 C79.8597811,2.68011922 83.3559074,3.68164365 83.3559074,3.68164365" id="Fill-88"></path>
                            <path d="M88.0594737,7.75144593 C89.4793789,8.28299642 90.8671474,8.86163485 92.2264,9.48373909 L92.2259474,9.48373909 C92.1272737,9.70197362 91.1079474,11.952687 90.9794,12.2338564 C90.9603895,12.2252537 90.9413789,12.2171039 90.9223684,12.2080485 C90.5340105,12.0319215 90.1452,11.8576055 89.7518632,11.6878173 C88.0508737,10.9538792 86.3041684,10.2896674 84.5067684,9.70604853 C84.4972632,9.70242638 84.4854947,9.699257 84.4746316,9.69563485 C84.3578526,9.65398013 84.2410737,9.61232541 84.1233895,9.57202899 C83.8631263,9.49324723 83.6073895,9.41899316 83.3534632,9.34655016 C81.2396737,8.70588241 79.1168316,8.18746221 76.9935368,7.78857296 C77.0419684,7.54317231 77.5321684,5.06607459 77.5765263,4.82429609 C78.8706,5.06924397 80.1646737,5.35675212 81.4569368,5.68546221 L81.7475263,4.3203645 C80.0252632,3.88525375 78.2998316,3.52032215 76.5753053,3.23190847 C76.4983579,3.60680098 75.5618632,8.41656319 75.4885368,8.84080749 C77.7458105,9.21162508 80.0026316,9.72370651 82.2508526,10.3743352 C82.8700526,10.5527261 83.4888,10.738814 84.1061895,10.9398433 C84.2718526,10.9928173 84.4338947,11.0512244 84.5977474,11.1064622 C87.0175158,11.9160127 89.3512842,12.8699964 91.5890947,13.9557358 C91.7728632,13.5772212 93.7879789,9.17630912 93.9726526,8.76383681 C92.2413368,7.92893127 90.4584211,7.16375212 88.6261684,6.47554365 L88.0594737,7.75144593 Z" id="Fill-90"></path>
                        </g>
                        <path d="M74.3187558,20.8638547 C73.4424611,20.031213 71.8215874,18.5411511 68.3313453,18.5411511 C65.0751137,18.5411511 62.3593242,20.7470404 61.5563558,23.7412 C61.7165874,23.77063 61.8623347,23.8874443 61.8917558,24.0626658 C61.9207242,24.2089101 62.5928821,27.5100469 65.5571663,27.8604899 C65.77624,27.8899199 65.9518611,28.0945713 65.9219874,28.3137114 C65.8930189,28.5323987 65.7178505,28.678643 65.5132611,28.678643 L65.4693558,28.678643 C61.9066926,28.2548515 61.1032716,24.2673173 61.0887874,24.2233987 C61.0743032,24.1215257 61.0887874,24.0332358 61.1326926,23.9458515 C60.0518084,23.2739427 58.7962084,22.8650925 57.4378611,22.8650925 C53.5538295,22.8650925 50.4139242,26.0050436 50.4139242,29.8766691 C50.4139242,30.8840795 50.6329979,31.8339883 51.0276926,32.7100958 C51.2028611,32.6227114 51.4219347,32.6521414 51.5531979,32.8269101 C51.5971032,32.8853173 54.2988611,36.2742912 61.4391242,35.1790436 C61.6731347,35.1496137 61.8772716,35.295858 61.9066926,35.5294866 C61.9356611,35.7486267 61.7894611,35.967314 61.5563558,35.996744 C60.50444,36.1574769 59.54124,36.2303726 58.6649453,36.2303726 C53.1301663,36.2303726 50.9982716,33.4549003 50.8964295,33.3240502 C50.8086189,33.2067831 50.7936821,33.0754801 50.8375874,32.958213 C50.1369137,32.7250371 49.3773979,32.5787928 48.6033979,32.5787928 C44.7338505,32.5787928 41.5794611,35.7191967 41.5794611,39.604858 C41.5794611,41.3285485 42.2077137,42.9059948 43.2446926,44.132998 C43.2881453,44.0890795 43.3465347,44.0451609 43.4343453,44.0306723 C44.1055979,43.8554508 59.9499663,39.9263238 63.0744821,47.9892293 C64.4034084,51.4221218 63.0310295,53.3060925 62.0818611,54.1242456 C60.9720084,55.0881902 59.4674611,55.5264704 58.1389874,55.5264704 C57.2921137,55.5264704 56.5036295,55.3512489 55.9197347,55.0152945 C55.0724084,54.5480371 54.6781663,53.7738026 54.8243663,52.8967896 C54.8678189,52.6781023 55.0724084,52.5173694 55.3059663,52.5608352 C55.52504,52.5902651 55.6857242,52.8094052 55.6418189,53.0430339 C55.5544611,53.5691511 55.7884716,53.9924899 56.3284611,54.2994671 C57.5695768,54.9858645 60.0667453,54.7961544 61.5563558,53.4962554 C62.5050716,52.6631609 63.4103347,51.0861674 62.3154189,48.2812651 C59.4389453,40.904757 43.7991663,44.7904182 43.6384821,44.833884 C43.4194084,44.892744 43.2003347,44.7609883 43.1419453,44.5418482 C40.29444,45.462327 37.2129242,47.7261707 36.8041979,52.4734508 C36.5271874,55.8479362 38.2938084,59.1051544 41.4771663,59.7770632 C41.8714084,60.0256332 46.0039347,59.6453075 46.5733453,59.5728645 C51.94744,58.8126658 68.5508716,58.4332456 68.5508716,58.4332456 C68.5508716,58.4332456 75.9396295,58.6374443 75.9396295,50.5890274 C75.9396295,42.5406104 75.9541137,28.9706788 75.9541137,26.2536137 C75.9251453,24.1500502 75.9251453,22.3973824 74.3187558,20.8638547" id="Fill-93" fill="#B8E986"></path>
                        <path d="M116.973081,52.8824368 C116.578839,48.1206681 113.497776,45.8563717 110.649818,44.9363456 C110.591428,45.1405443 110.372807,45.2723 110.153734,45.2138928 C109.993049,45.1699743 94.3532705,41.2698244 91.4767968,48.6467853 C90.3818811,51.4657235 91.27266,53.0427169 92.2213758,53.86087 C93.7109863,55.1616746 96.2081547,55.3654205 97.4492705,54.6645345 C97.9897126,54.3580101 98.2232705,53.9487072 98.1359126,53.4081013 C98.0920074,53.1889612 98.2526916,52.9702739 98.4713126,52.9263554 C98.6903863,52.8824368 98.9099126,53.0427169 98.9384284,53.261857 C99.0846284,54.13887 98.6759021,54.898616 97.8290284,55.3654205 C97.2446811,55.6873391 96.4561968,55.8770492 95.5948389,55.8770492 C94.2514284,55.8770492 92.7618179,55.4387691 91.6524179,54.4603358 C90.7172811,53.6421827 89.3304179,51.7428179 90.6733758,48.3253195 C93.8571863,40.3058798 109.686165,44.2494954 110.358323,44.4251697 C110.431197,44.4401111 110.489586,44.4835769 110.533039,44.5274954 C111.570018,43.3004922 112.212302,41.7375345 112.212302,39.9993554 C112.212302,36.1136941 109.073302,32.9728375 105.203302,32.9728375 C104.414818,32.9728375 103.669786,33.1045932 102.969565,33.3531632 C103.013018,33.4699775 102.998081,33.6157691 102.911176,33.717642 C102.808428,33.8493977 100.662049,36.6103814 95.1272705,36.6103814 C94.2514284,36.6103814 93.2873232,36.5370329 92.2363126,36.3763 C92.0172389,36.3473228 91.8565547,36.1281827 91.8855232,35.9090427 C91.9149442,35.6899026 92.1340179,35.5291697 92.3526389,35.5585997 C99.5227758,36.6543 102.224534,33.2508375 102.239018,33.2214075 C102.370281,33.0611274 102.574871,33.016756 102.750039,33.1045932 C103.129797,32.2429743 103.363807,31.2930655 103.363807,30.2707137 C103.363807,26.3999938 100.223902,23.2451013 96.3394179,23.2451013 C94.9815232,23.2451013 93.7109863,23.6539515 92.6305547,24.3258603 C92.6740074,24.4132446 92.7034284,24.5010818 92.6740074,24.6034075 C92.6595232,24.6473261 91.8420705,28.6344075 88.2785021,29.0437104 L88.2350495,29.0437104 C88.0309126,29.0437104 87.8552916,28.8829775 87.8258705,28.6787788 C87.7969021,28.4446974 87.9575863,28.2404987 88.1911442,28.2255573 C91.1554284,27.8755671 91.8565547,24.4716518 91.8565547,24.4426746 C91.8855232,24.2674531 92.0317232,24.150186 92.1924074,24.1216616 C91.3894389,21.1265964 88.6736495,18.9062186 85.4165126,18.9062186 C81.9267232,18.9062186 80.3058495,20.3962805 79.4300074,21.2289221 C77.8236179,22.7629026 77.8236179,24.5155704 77.8236179,26.5752153 C77.8236179,29.2918277 77.8091337,42.8622121 77.8091337,50.910629 C77.8091337,58.9590459 85.1978916,58.7693358 85.1978916,58.7693358 C85.1978916,58.7693358 101.800871,59.1926746 107.174965,59.9524205 C107.729439,60.0253163 111.862418,60.4196779 112.270692,60.1566192 C115.483471,59.5141404 117.250544,56.2569221 116.973081,52.8824368" id="Fill-95" fill="#E6FFCA"></path>
                        <path d="M39.4188242,82.9630329 C41.76934,82.9630329 43.3177926,81.7731567 43.3177926,76.6555117 C43.3177926,72.4511013 42.1015716,70.3488961 39.4740453,70.3488961 C39.19794,70.3488961 38.9209295,70.376515 38.6172137,70.4041339 C38.6448242,77.2092479 38.7828768,82.9349612 38.7828768,82.9349612 C39.0042137,82.9630329 39.19794,82.9630329 39.4188242,82.9630329 M34.1922874,67.1120524 C35.7959611,66.8630296 37.2344242,66.7249352 38.5339295,66.7249352 C45.1708663,66.7249352 48.1297189,70.2103489 48.1297189,76.794059 C48.1297189,83.6820296 44.8114768,86.5313033 38.3130453,86.5313033 C37.0683084,86.5313033 35.6855189,86.4484466 34.1922874,86.2546616 C34.2755716,75.3832316 34.1922874,67.1120524 34.1922874,67.1120524" id="Fill-97" fill="#EEEEEF"></path>
                        <path d="M49.6224979,75.5215072 C49.6224979,72.755543 49.8714453,69.9615072 50.3136663,67.250328 C50.3136663,67.250328 51.6688453,67.4717319 54.7109821,67.8036114 C54.3239821,70.652885 54.1021926,72.7827091 54.1021926,74.8020577 C54.1021926,80.3901293 54.98754,82.3542401 56.4807716,82.3542401 C58.0292242,82.3542401 58.7484558,80.9157938 58.7484558,75.8814583 C58.7484558,73.1702792 58.4718979,69.9062694 58.0020663,66.6970446 C58.0020663,66.6970446 59.5781295,66.6418068 62.5369821,66.392784 C63.0624874,69.6020088 63.3942663,72.8107808 63.3942663,75.6876733 C63.3942663,82.963214 61.40314,86.5591033 56.5359926,86.5591033 C51.6688453,86.5591033 49.6224979,82.8518329 49.6224979,75.5215072" id="Fill-99" fill="#EEEEEF"></path>
                        <path d="M65.2462537,66.973958 C65.2462537,66.973958 69.1456747,66.9182674 76.2524432,66.8354107 C76.2524432,66.8354107 76.2524432,68.3014759 76.3076642,70.7083945 C76.3076642,70.7083945 73.51538,70.7360134 69.7259484,70.8193228 C69.7259484,70.8193228 69.6987905,72.4234824 69.7540116,75.078971 C70.4727905,75.078971 72.2149695,75.1065899 75.2571063,75.0237332 C75.2571063,75.0237332 75.2294958,76.3236322 75.2851695,78.6476941 C75.2851695,78.6476941 73.1831484,78.5924564 69.8092326,78.6476941 C69.8372958,79.7818798 69.8644537,81.026541 69.9196747,82.3268928 C69.9196747,82.3268928 72.3258642,82.4373684 76.4190116,82.4926062 C76.4190116,82.4926062 76.3633379,83.8205769 76.3909484,86.3103521 C76.3909484,86.3103521 71.3300747,86.1165671 65.4675905,86.0613293 C65.4675905,86.0613293 65.43998,78.1496485 65.2462537,66.973958" id="Fill-101" fill="#EEEEEF"></path>
                        <path d="M78.2156421,67.4165847 C78.2156421,67.4165847 79.6255895,67.4718225 82.7234,67.4165847 C82.7234,67.4165847 82.6677263,70.4591906 82.8338421,81.8839039 C86.8160947,81.9115228 88.8067684,81.856285 88.8067684,81.856285 C88.7515474,84.2908225 88.7796105,85.7564349 88.7796105,85.7564349 C82.4468421,85.6459593 78.3813053,85.7011971 78.3813053,85.7011971 C78.3813053,85.7011971 78.3813053,77.7347313 78.2156421,67.4165847" id="Fill-103" fill="#EEEEEF"></path>
                        <path d="M99.5087442,76.5451267 C99.5087442,71.9807651 98.5962389,70.1275827 96.8816705,70.1275827 C95.1671021,70.1275827 94.2545968,72.0912407 94.2545968,76.5451267 C94.2545968,81.3032733 95.1671021,83.1288368 96.9092811,83.1288368 C98.4857968,83.1288368 99.5087442,81.6075339 99.5087442,76.5451267 M89.41506,76.6556023 C89.3598389,70.7080322 91.7379653,66.5312407 96.9092811,66.5312407 C102.108207,66.5312407 104.403502,70.4870811 104.376344,76.6284362 C104.348281,83.8202147 101.47226,86.6694883 96.9092811,86.6694883 C91.9869126,86.6694883 89.4426705,83.1564557 89.41506,76.6556023" id="Fill-105" fill="#EEEEEF"></path>
                        <path d="M105.730663,79.3665098 C105.730663,79.3665098 107.500453,79.3945814 110.431695,79.3388909 C110.321253,81.8839039 111.233305,83.1842557 112.837432,83.1842557 C113.999337,83.1842557 114.690505,82.6029007 114.690505,81.1649072 C114.690505,79.9202459 113.971274,79.0903208 110.984358,78.011373 C107.389558,76.6834023 105.813495,75.1068616 105.813495,71.9528746 C105.813495,68.3569853 108.384895,66.476184 112.3676,66.476184 C116.9858,66.476184 119.308705,69.103601 119.198263,73.7232003 C119.198263,73.7232003 117.262358,73.5851059 114.635284,73.557487 C114.829011,71.1229495 113.916053,69.9059072 112.3676,69.9059072 C111.178537,69.9059072 110.597811,70.7358322 110.597811,72.0085651 C110.597811,73.281298 111.482253,74.1383893 113.944116,74.9959332 C118.479032,76.5453078 119.585263,78.2323241 119.585263,80.9430505 C119.585263,84.9822003 116.709242,86.6696694 112.699379,86.6696694 C107.942674,86.6696694 105.592158,84.0694186 105.730663,79.3665098" id="Fill-107" fill="#EEEEEF"></path>
                        <path d="M152.916645,107.423139 C104.073172,87.1848296 49.1929505,87.1848296 0.349476842,107.423139 C0.373918947,107.482905 0.398813684,107.543576 0.424161053,107.603341 C5.33476105,109.227422 10.0941821,111.039403 14.6933716,113.021624 C12.3093611,117.42797 10.1398979,121.8728 8.18317158,126.341628 C8.20851895,126.402751 8.23341368,126.46297 8.25830842,126.524093 C52.0381926,108.383914 101.228382,108.383914 145.007361,126.524093 C143.018045,121.969693 140.804677,117.439742 138.370424,112.951445 C143.055614,110.925758 147.907372,109.076198 152.916645,107.423139" id="Fill-109" fill="#B8E986"></path>
                        <path d="M152.916645,105.308302 C104.073172,83.5885329 49.1929505,83.5885329 0.349476842,105.308302 C0.373918947,105.373048 0.398813684,105.437793 0.424161053,105.502087 C5.33476105,107.245246 10.0941821,109.189435 14.6933716,111.316995 C12.3093611,116.045259 10.1398979,120.815631 8.18317158,125.611357 C8.20851895,125.677008 8.23341368,125.741302 8.25830842,125.806953 C52.0381926,106.339256 101.228382,106.339256 145.007361,125.806953 C143.018045,120.919315 140.804677,116.057937 138.370424,111.241383 C143.055614,109.06764 147.907372,107.082702 152.916645,105.308302" id="Fill-111" fill="#E6FFCA"></path>
                        <path d="M37.7731916,104.301525 C36.6656021,98.9525153 38.3217811,95.5323003 42.8716337,94.7512743 C47.0964968,94.0268443 49.3478863,96.5641603 50.0123495,100.265092 C47.1363284,100.759515 45.7797916,100.972769 45.7797916,100.972769 C45.2574547,98.5124241 44.4232547,97.5946619 43.2169916,97.8024827 C41.6667284,98.0700691 41.3068863,99.9119322 41.9677284,103.43402 C42.6575389,107.114577 43.6284337,108.537629 45.0963179,108.285437 C46.2378547,108.088936 46.8679179,107.1019 46.4170968,103.999076 C48.9427811,103.592036 50.6700232,103.408212 50.6700232,103.408212 C51.2896758,108.419004 49.2084758,110.72405 45.6426442,111.325326 C41.6884547,111.991802 38.9550126,110.012297 37.7731916,104.301525" id="Fill-113" fill="#4B256F"></path>
                        <path d="M50.8181695,93.9687541 C50.8181695,93.9687541 52.2702116,93.7659137 54.9294221,93.4494283 C55.5364011,98.7631221 56.1673695,104.073194 56.8019589,109.383718 C56.8019589,109.383718 55.2263484,109.525888 52.9921589,109.841467 C52.3086853,104.544526 51.5718011,99.2557345 50.8181695,93.9687541" id="Fill-115" fill="#4B256F"></path>
                        <path d="M56.2788979,93.9771756 C58.7828558,93.7177391 60.5354453,93.5352733 60.5354453,93.5352733 C61.5303295,97.6722212 62.5265716,101.807811 63.6124347,105.92212 C64.0727611,101.429296 64.54214,96.9387358 65.0585926,92.4527033 C67.6580558,92.3449443 69.3721716,92.2666153 69.3721716,92.2666153 C68.3723084,97.8162016 67.4620663,103.382993 66.6409926,108.962915 C66.6409926,108.962915 63.9342558,109.111876 61.0623084,109.290267 C59.5645505,104.1527 58.0265084,99.0364134 56.2788979,93.9771756" id="Fill-117" fill="#4B256F"></path>
                        <path d="M70.5505074,92.8244717 C70.5505074,92.8244717 72.0093389,92.7656117 74.6766968,92.7117322 C74.7577179,97.775045 74.8613705,102.837452 74.9681916,107.900312 C74.9681916,107.900312 73.3848863,107.887635 71.1303284,108.004449 C70.9786968,102.9434 70.7804442,97.8832567 70.5505074,92.8244717" id="Fill-119" fill="#4B256F"></path>
                        <path d="M76.4828156,100.329159 C76.4697516,95.1884225 78.5319411,92.070657 83.3506568,92.2227873 C87.4125726,92.3509208 89.40732,94.9294388 89.3276568,98.8979567 C86.4692884,98.7625788 85.0258463,98.7879339 85.0258463,98.7879339 C85.0548147,96.2977059 84.3726989,95.3206309 83.1053305,95.2821456 C81.4654463,95.2314355 80.7973621,97.0117221 80.7448568,100.341383 C80.6882779,103.92369 81.4238042,105.446351 82.8618147,105.491175 C84.0400147,105.527849 84.8714989,104.826058 85.0149832,101.971351 C87.5352358,102.099937 89.2918989,102.128914 89.2918989,102.128914 C88.9483516,106.726328 86.7272884,108.749299 82.8102147,108.625693 C79.2412147,108.513406 76.4991726,106.529374 76.4828156,100.329159" id="Fill-121" fill="#4B256F"></path>
                        <path d="M94.4259179,101.162208 C94.0787495,104.996253 94.6929705,106.320149 96.1952547,106.474091 C97.6744547,106.625768 98.5923916,105.459436 99.0309916,101.635351 C99.4777389,97.7419928 98.7892863,96.3130547 97.2535074,96.1554912 C95.8168547,96.0078886 94.7916442,97.1216997 94.4259179,101.162208 M103.260834,102.028354 C102.513539,107.754521 99.7733074,109.830465 95.8919916,109.432481 C91.66396,108.998729 89.7873495,106.158058 90.1834021,100.709439 C90.5894126,95.1231785 93.2096968,92.7284847 97.5590337,93.1744619 C101.983507,93.6285889 103.966034,96.6222958 103.260834,102.028354" id="Fill-123" fill="#4B256F"></path>
                        <path d="M103.890987,104.49033 C103.890987,104.49033 105.408661,104.718978 107.927556,105.084815 C107.489861,107.162118 108.085524,108.354258 109.434819,108.591056 C110.411598,108.762203 111.080135,108.394554 111.296945,107.215997 C111.484335,106.195457 110.99504,105.391339 108.582966,104.072424 C105.672545,102.480942 104.463566,100.986352 104.834272,98.3851961 C105.257029,95.4182026 107.813493,94.1803329 111.412366,94.8028899 C115.586987,95.5255088 117.229587,98.1334567 116.359629,101.884646 C116.359629,101.884646 114.692587,101.418294 112.395029,100.972317 C112.931398,99.0091114 112.305408,97.8586261 110.925335,97.6191114 C109.865724,97.4357401 109.235208,98.0352059 109.062756,99.0815544 C108.890303,100.12745 109.55884,100.951489 111.576219,102.041756 C115.298208,104.025336 115.935514,105.633571 115.477903,107.845346 C114.795787,111.140597 112.140651,112.011724 108.81924,111.431727 C104.879082,110.743519 103.221545,108.3529 103.890987,104.49033" id="Fill-125" fill="#4B256F"></path>
                    </g>
                </g>
            </g>
        </g>
    </g>
</svg>